<svg width="48" height="48" viewBox="0 0 48 48" fill="none" xmlns="http://www.w3.org/2000/svg">
  <g clip-path="url(#clip0_4918_1633)">
  <path d="M37.7144 0.428711H10.2859C4.8419 0.428711 0.428711 4.8419 0.428711 10.2859V37.7144C0.428711 43.1584 4.8419 47.5716 10.2859 47.5716H37.7144C43.1584 47.5716 47.5716 43.1584 47.5716 37.7144V10.2859C47.5716 4.8419 43.1584 0.428711 37.7144 0.428711Z" fill="white"/>
  <mask id="mask0_4918_1633" style="mask-type:alpha" maskUnits="userSpaceOnUse" x="3" y="10" width="42" height="28">
  <path d="M6.66014 29.6554C10.7521 20.5011 12.799 15.9239 16.663 13.2539C16.9287 13.0714 17.1979 12.8965 17.4721 12.7294C21.4836 10.2856 26.485 10.2856 36.4887 10.2856H43.3279C44.0016 10.2856 44.3393 10.2856 44.4919 10.4982C44.502 10.512 44.5114 10.5263 44.5201 10.5411C44.6521 10.7682 44.515 11.0776 44.2424 11.6956L41.1404 18.7225C37.2884 27.4482 35.3633 31.8111 31.705 34.3851C31.4539 34.5616 31.1993 34.7305 30.9387 34.8925C27.1407 37.2531 22.3827 37.3139 12.8667 37.4356L4.69128 37.5394C4.00557 37.5479 3.66357 37.5531 3.50757 37.3388C3.49744 37.325 3.488 37.3107 3.47928 37.2959C3.34471 37.0662 3.48528 36.7534 3.76557 36.1259L6.65843 29.6554H6.66014Z" fill="black"/>
  </mask>
  <g mask="url(#mask0_4918_1633)">
  <path d="M6.66014 29.6554C10.7521 20.5011 12.799 15.9239 16.663 13.2539C16.9287 13.0714 17.1979 12.8965 17.4721 12.7294C21.4836 10.2856 26.485 10.2856 36.4887 10.2856H43.3279C44.0016 10.2856 44.3393 10.2856 44.4919 10.4982C44.502 10.512 44.5114 10.5263 44.5201 10.5411C44.6521 10.7682 44.515 11.0776 44.2424 11.6956L41.1404 18.7225C37.2884 27.4482 35.3633 31.8111 31.705 34.3851C31.4539 34.5616 31.1993 34.7305 30.9387 34.8925C27.1407 37.2531 22.3827 37.3139 12.8667 37.4356L4.69128 37.5394C4.00557 37.5479 3.66357 37.5531 3.50757 37.3388C3.49744 37.325 3.488 37.3107 3.47928 37.2959C3.34471 37.0662 3.48528 36.7534 3.76557 36.1259L6.65843 29.6554H6.66014Z" fill="url(#paint0_linear_4918_1633)"/>
  <path fill-rule="evenodd" clip-rule="evenodd" d="M29.5757 19.9715H24.2965C21.7148 19.9767 20.4668 19.9801 19.3183 20.1515C14.6185 20.8484 10.7074 23.3855 8.15398 27.3935C7.52998 28.3724 6.92398 29.7215 5.6734 32.5098L3.75683 36.7827C3.69083 36.9301 3.64455 37.0338 3.61369 37.1127C3.69769 37.1153 3.81083 37.1144 3.97369 37.1127L9.97369 37.0355C11.9065 37.0133 12.8434 37.0013 13.5248 36.9344C19.1665 36.3798 23.2688 33.6747 26.0014 28.7084C26.3314 28.1084 26.79 27.0721 27.7345 24.9404L29.79 20.3007C29.8543 20.155 29.8988 20.053 29.928 19.9758C29.8106 19.9718 29.6931 19.9704 29.5757 19.9715ZM7.79226 27.163C7.14769 28.1753 6.52626 29.5613 5.28255 32.3341L3.36598 36.607C3.17998 37.021 3.08655 37.2284 3.17569 37.3793C3.18146 37.3893 3.18775 37.399 3.19455 37.4084C3.2974 37.5498 3.52455 37.5464 3.97883 37.5413L9.97883 37.4641C11.9014 37.4418 12.8623 37.4298 13.5668 37.3613C19.3491 36.793 23.5765 34.0055 26.3768 28.915C26.718 28.2944 27.1877 27.235 28.1263 25.1144L30.1817 20.4738C30.3617 20.0658 30.4525 19.8618 30.3651 19.711C30.3595 19.7016 30.3535 19.6924 30.3471 19.6835C30.2443 19.543 30.0214 19.543 29.5757 19.543H24.2957C21.7268 19.5481 20.4428 19.5507 19.2557 19.7273C14.4325 20.443 10.4125 23.0504 7.79226 27.163Z" fill="white" fill-opacity="0.1"/>
  <path opacity="0.3" d="M8.14035 30.7911C9.38407 28.0183 10.0064 26.6323 10.6509 25.62C13.2704 21.5074 17.2904 18.9 22.1135 18.1843C23.3006 18.0077 24.5855 18.0051 27.1535 18.0009L27.9026 18H32.4335C32.8801 18 33.1038 18 33.2049 18.1406C33.2118 18.1491 33.2178 18.1594 33.2238 18.1689C33.3112 18.3189 33.2204 18.5229 33.0395 18.9317L30.9858 23.5714C30.0464 25.6911 29.5775 26.7514 29.2364 27.372C26.4361 32.4626 22.2078 35.2491 16.4264 35.8183C15.7218 35.8869 14.7601 35.8989 12.8384 35.9211L12.2546 35.9297L6.8375 35.9983C6.38407 36.0034 6.15692 36.0069 6.05321 35.8654C6.04673 35.856 6.04073 35.8463 6.03521 35.8363C5.94607 35.6854 6.03864 35.4789 6.22464 35.0649L8.14121 30.7911H8.14035Z" fill="url(#paint1_linear_4918_1633)"/>
  <path opacity="0.5" d="M9.42649 29.9337C10.6702 27.1609 11.2925 25.7749 11.9371 24.7626C14.5573 20.65 18.5765 18.0426 23.3996 17.3269C24.5868 17.1503 25.8716 17.1477 28.4396 17.1434L29.1888 17.1426H33.7196C34.1662 17.1426 34.3899 17.1426 34.4911 17.2831C34.4979 17.2917 34.5039 17.302 34.5099 17.3114C34.5973 17.4614 34.5065 17.6654 34.3256 18.0743L32.2719 22.714C31.3325 24.8337 30.8636 25.894 30.5225 26.5146C27.7222 31.6052 23.4939 34.3917 17.7125 34.9609C17.0079 35.0294 16.0462 35.0414 14.1245 35.0637L13.5408 35.0723L8.12363 35.1409C7.6702 35.146 7.44306 35.1494 7.33934 35.008C7.33287 34.9986 7.32686 34.9889 7.32134 34.9789C7.2322 34.828 7.32477 34.6214 7.51077 34.2074L9.42734 29.9337H9.42649Z" fill="url(#paint2_linear_4918_1633)"/>
  <path d="M10.2839 29.4196C11.5276 26.6467 12.1499 25.2607 12.7945 24.2484C15.4148 20.1358 19.4339 17.5284 24.257 16.8127C25.4442 16.6361 26.729 16.6336 29.2971 16.6293L30.0462 16.6284H34.577C35.0236 16.6284 35.2473 16.6284 35.3485 16.769C35.3553 16.7776 35.3613 16.7878 35.3673 16.7973C35.4548 16.9473 35.3639 17.1513 35.1831 17.5601L33.1293 22.1998C32.1899 24.3196 31.7211 25.3798 31.3799 26.0004C28.5796 31.091 24.3513 33.8776 18.5699 34.4467C17.8653 34.5153 16.9036 34.5273 14.9819 34.5496L14.3982 34.5581L8.98105 34.6267C8.52762 34.6318 8.30048 34.6353 8.19676 34.4938C8.19029 34.4844 8.18428 34.4747 8.17876 34.4647C8.08962 34.3138 8.18219 34.1064 8.36819 33.6933L10.2848 29.4196H10.2839Z" fill="url(#paint3_linear_4918_1633)"/>
  <path d="M21.3603 22.3798C16.5748 22.3798 13.3117 24.1969 11.9745 25.1406L9.47168 23.632L15.9123 17.8892L36.1948 16.9326L33.5805 22.3798H21.3603Z" fill="url(#paint4_radial_4918_1633)"/>
  <path fill-rule="evenodd" clip-rule="evenodd" d="M7.7374 27.2485L7.7914 27.1628C10.4117 23.0502 14.4317 20.4428 19.2548 19.7271C20.442 19.5505 21.726 19.5479 24.2948 19.5436L25.044 19.5428H29.5748C30.0205 19.5428 30.2434 19.5428 30.3463 19.6834L30.3643 19.7116C30.4517 19.8616 30.3617 20.0656 30.1808 20.4736L28.1254 25.1142C27.1868 27.2339 26.7171 28.2942 26.376 28.9148C23.5757 34.0054 19.3474 36.7919 13.566 37.3611C12.8614 37.4296 11.9005 37.4416 9.97797 37.4639L9.39426 37.4725L4.11426 37.5394C4.27197 37.5454 4.46311 37.5428 4.69283 37.5394L12.8674 37.4356C22.3834 37.3139 27.1414 37.2531 30.9394 34.8925C31.2 34.7305 31.4554 34.5616 31.7057 34.3851C35.3631 31.8111 37.2891 27.4482 41.1411 18.7225L44.244 11.6956C44.5165 11.0776 44.6528 10.7682 44.5208 10.5411C44.5121 10.5263 44.5027 10.512 44.4925 10.4982C44.34 10.2856 44.0023 10.2856 43.3285 10.2856H36.4885C26.484 10.2856 21.4825 10.2856 17.4711 12.7285C17.1968 12.8965 16.9268 13.0714 16.6628 13.2539C13.1528 15.6796 11.1428 19.6774 7.73654 27.2485H7.7374Z" fill="url(#paint5_linear_4918_1633)"/>
  <path fill-rule="evenodd" clip-rule="evenodd" d="M7.7374 27.2485L7.7914 27.1628C10.4117 23.0502 14.4317 20.4428 19.2548 19.7271C20.442 19.5505 21.726 19.5479 24.2948 19.5436L25.044 19.5428H29.5748C30.0205 19.5428 30.2434 19.5428 30.3463 19.6834L30.3643 19.7116C30.4517 19.8616 30.3617 20.0656 30.1808 20.4736L28.1254 25.1142C27.1868 27.2339 26.7171 28.2942 26.376 28.9148C23.5757 34.0054 19.3474 36.7919 13.566 37.3611C12.8614 37.4296 11.9005 37.4416 9.97797 37.4639L9.39426 37.4725L4.11426 37.5394C4.27197 37.5454 4.46311 37.5428 4.69283 37.5394L12.8674 37.4356C22.3834 37.3139 27.1414 37.2531 30.9394 34.8925C31.2 34.7305 31.4554 34.5616 31.7057 34.3851C35.3631 31.8111 37.2891 27.4482 41.1411 18.7225L44.244 11.6956C44.5165 11.0776 44.6528 10.7682 44.5208 10.5411C44.5121 10.5263 44.5027 10.512 44.4925 10.4982C44.34 10.2856 44.0023 10.2856 43.3285 10.2856H36.4885C26.484 10.2856 21.4825 10.2856 17.4711 12.7285C17.1968 12.8965 16.9268 13.0714 16.6628 13.2539C13.1528 15.6796 11.1428 19.6774 7.73654 27.2485H7.7374Z" fill="url(#paint6_radial_4918_1633)"/>
  <path fill-rule="evenodd" clip-rule="evenodd" d="M7.7374 27.2485L7.7914 27.1628C10.4117 23.0502 14.4317 20.4428 19.2548 19.7271C20.442 19.5505 21.726 19.5479 24.2948 19.5436L25.044 19.5428H29.5748C30.0205 19.5428 30.2434 19.5428 30.3463 19.6834L30.3643 19.7116C30.4517 19.8616 30.3617 20.0656 30.1808 20.4736L28.1254 25.1142C27.1868 27.2339 26.7171 28.2942 26.376 28.9148C23.5757 34.0054 19.3474 36.7919 13.566 37.3611C12.8614 37.4296 11.9005 37.4416 9.97797 37.4639L9.39426 37.4725L4.11426 37.5394C4.27197 37.5454 4.46311 37.5428 4.69283 37.5394L12.8674 37.4356C22.3834 37.3139 27.1414 37.2531 30.9394 34.8925C31.2 34.7305 31.4554 34.5616 31.7057 34.3851C35.3631 31.8111 37.2891 27.4482 41.1411 18.7225L44.244 11.6956C44.5165 11.0776 44.6528 10.7682 44.5208 10.5411C44.5121 10.5263 44.5027 10.512 44.4925 10.4982C44.34 10.2856 44.0023 10.2856 43.3285 10.2856H36.4885C26.484 10.2856 21.4825 10.2856 17.4711 12.7285C17.1968 12.8965 16.9268 13.0714 16.6628 13.2539C13.1528 15.6796 11.1428 19.6774 7.73654 27.2485H7.7374Z" fill="url(#paint7_linear_4918_1633)"/>
  <path fill-rule="evenodd" clip-rule="evenodd" d="M43.3294 11.1428H36.4894C31.47 11.1428 27.7689 11.1436 24.8203 11.4436C21.8897 11.7419 19.7752 12.3299 17.9177 13.4614C17.6573 13.6197 17.4015 13.7855 17.1506 13.9585C15.3609 15.1962 13.9603 16.8908 12.4903 19.4502C11.0109 22.0268 9.49544 25.4125 7.44173 30.0051L4.54887 36.4756L4.45544 36.6856L4.68173 36.6831L12.8563 36.5785C17.6314 36.5176 21.15 36.4714 23.9503 36.1516C26.7326 35.8345 28.734 35.2542 30.4869 34.1639C30.7337 34.0114 30.9754 33.8511 31.212 33.6839C32.9006 32.4959 34.2206 30.8785 35.6049 28.4382C36.9994 25.9808 38.4249 22.7554 40.3569 18.3762L43.4597 11.3494L43.5497 11.1436L43.3294 11.1428ZM16.6637 13.2539C12.7997 15.9248 10.7529 20.5019 6.66087 29.6554L3.76716 36.1259C3.48687 36.7534 3.34715 37.0662 3.48087 37.2951C3.48944 37.3105 3.49887 37.3242 3.50915 37.3379C3.66515 37.5522 4.00801 37.5488 4.69287 37.5394L12.8683 37.4356C22.3843 37.3139 27.1423 37.2531 30.9403 34.8925C31.2009 34.7305 31.4563 34.5616 31.7066 34.3851C35.364 31.8111 37.29 27.4482 41.142 18.7225L44.2449 11.6956C44.5166 11.0776 44.6537 10.7682 44.5217 10.5411C44.513 10.5263 44.5036 10.512 44.4934 10.4982C44.3409 10.2856 44.0032 10.2856 43.3294 10.2856H36.4894C26.4849 10.2856 21.4826 10.2856 17.472 12.7285C17.1977 12.8965 16.9277 13.0714 16.6637 13.2539Z" fill="url(#paint8_linear_4918_1633)" fill-opacity="0.4"/>
  <path fill-rule="evenodd" clip-rule="evenodd" d="M43.3294 11.1428H36.4894C31.47 11.1428 27.7689 11.1436 24.8203 11.4436C21.8897 11.7419 19.7752 12.3299 17.9177 13.4614C17.6573 13.6197 17.4015 13.7855 17.1506 13.9585C15.3609 15.1962 13.9603 16.8908 12.4903 19.4502C11.0109 22.0268 9.49544 25.4125 7.44173 30.0051L4.54887 36.4756L4.45544 36.6856L4.68173 36.6831L12.8563 36.5785C17.6314 36.5176 21.15 36.4714 23.9503 36.1516C26.7326 35.8345 28.734 35.2542 30.4869 34.1639C30.7337 34.0114 30.9754 33.8511 31.212 33.6839C32.9006 32.4959 34.2206 30.8785 35.6049 28.4382C36.9994 25.9808 38.4249 22.7554 40.3569 18.3762L43.4597 11.3494L43.5497 11.1436L43.3294 11.1428ZM16.6637 13.2539C12.7997 15.9248 10.7529 20.5019 6.66087 29.6554L3.76716 36.1259C3.48687 36.7534 3.34715 37.0662 3.48087 37.2951C3.48944 37.3105 3.49887 37.3242 3.50915 37.3379C3.66515 37.5522 4.00801 37.5488 4.69287 37.5394L12.8683 37.4356C22.3843 37.3139 27.1423 37.2531 30.9403 34.8925C31.2009 34.7305 31.4563 34.5616 31.7066 34.3851C35.364 31.8111 37.29 27.4482 41.142 18.7225L44.2449 11.6956C44.5166 11.0776 44.6537 10.7682 44.5217 10.5411C44.513 10.5263 44.5036 10.512 44.4934 10.4982C44.3409 10.2856 44.0032 10.2856 43.3294 10.2856H36.4894C26.4849 10.2856 21.4826 10.2856 17.472 12.7285C17.1977 12.8965 16.9277 13.0714 16.6637 13.2539Z" fill="url(#paint9_linear_4918_1633)" fill-opacity="0.2"/>
  <path fill-rule="evenodd" clip-rule="evenodd" d="M43.3294 10.7142H36.4894C31.4786 10.7142 27.7526 10.7142 24.7766 11.0176C21.8109 11.3194 19.626 11.9185 17.6949 13.0954C17.4274 13.2582 17.1643 13.4288 16.9063 13.6071C15.0463 14.8928 13.6063 16.6456 12.1192 19.2368C10.626 21.8356 9.10116 25.2454 7.05087 29.8302L4.15801 36.3008C4.0123 36.6265 3.9223 36.8288 3.87944 36.9779C3.8694 37.0107 3.86223 37.0442 3.85801 37.0782C3.89025 37.0876 3.92323 37.0942 3.95658 37.0979C4.11087 37.1176 4.3303 37.1151 4.68687 37.1116L12.8623 37.0071C17.628 36.9462 21.1723 36.8999 23.9992 36.5785C26.8166 36.2562 28.8874 35.6631 30.7132 34.5282C30.9669 34.3705 31.2146 34.2068 31.4589 34.0354C33.2177 32.7976 34.5754 31.1211 35.9777 28.6491C37.3852 26.1694 38.82 22.9199 40.7494 18.5494L43.8514 11.5225C43.9929 11.2011 44.0794 11.0022 44.1214 10.8548C44.1311 10.8229 44.138 10.7902 44.142 10.7571C44.1104 10.7474 44.078 10.7406 44.0452 10.7365C43.8952 10.7151 43.6792 10.7142 43.3294 10.7142ZM44.1634 10.7656C44.1634 10.7656 44.1617 10.7656 44.1592 10.7631L44.1634 10.7656ZM3.83744 37.0696C3.83744 37.0696 3.83915 37.0696 3.84173 37.0722L3.83744 37.0696ZM16.6637 13.2539C12.7997 15.9248 10.7529 20.5019 6.66087 29.6554L3.76716 36.1259C3.48687 36.7534 3.34715 37.0662 3.48087 37.2951C3.48944 37.3105 3.49887 37.3242 3.50915 37.3379C3.66515 37.5522 4.00801 37.5488 4.69287 37.5394L12.8683 37.4356C22.3843 37.3139 27.1423 37.2531 30.9403 34.8925C31.2009 34.7305 31.4563 34.5616 31.7066 34.3851C35.364 31.8111 37.29 27.4482 41.142 18.7225L44.2449 11.6956C44.5166 11.0776 44.6537 10.7682 44.5217 10.5411C44.513 10.5263 44.5036 10.512 44.4934 10.4982C44.3409 10.2856 44.0032 10.2856 43.3294 10.2856H36.4894C26.4849 10.2856 21.4826 10.2856 17.472 12.7285C17.1977 12.8965 16.9277 13.0714 16.6637 13.2539Z" fill="black" fill-opacity="0.05"/>
  <path fill-rule="evenodd" clip-rule="evenodd" d="M43.3294 10.7142H36.4894C31.4786 10.7142 27.7526 10.7142 24.7766 11.0176C21.8109 11.3194 19.626 11.9185 17.6949 13.0954C17.4274 13.2582 17.1643 13.4288 16.9063 13.6071C15.0463 14.8928 13.6063 16.6456 12.1192 19.2368C10.626 21.8356 9.10116 25.2454 7.05087 29.8302L4.15801 36.3008C4.0123 36.6265 3.9223 36.8288 3.87944 36.9779C3.8694 37.0107 3.86223 37.0442 3.85801 37.0782C3.89025 37.0876 3.92323 37.0942 3.95658 37.0979C4.11087 37.1176 4.3303 37.1151 4.68687 37.1116L12.8623 37.0071C17.628 36.9462 21.1723 36.8999 23.9992 36.5785C26.8166 36.2562 28.8874 35.6631 30.7132 34.5282C30.9669 34.3705 31.2146 34.2068 31.4589 34.0354C33.2177 32.7976 34.5754 31.1211 35.9777 28.6491C37.3852 26.1694 38.82 22.9199 40.7494 18.5494L43.8514 11.5225C43.9929 11.2011 44.0794 11.0022 44.1214 10.8548C44.1311 10.8229 44.138 10.7902 44.142 10.7571C44.1104 10.7474 44.078 10.7406 44.0452 10.7365C43.8952 10.7151 43.6792 10.7142 43.3294 10.7142ZM44.1634 10.7656C44.1634 10.7656 44.1617 10.7656 44.1592 10.7631L44.1634 10.7656ZM3.83744 37.0696C3.83744 37.0696 3.83915 37.0696 3.84173 37.0722L3.83744 37.0696ZM16.6637 13.2539C12.7997 15.9248 10.7529 20.5019 6.66087 29.6554L3.76716 36.1259C3.48687 36.7534 3.34715 37.0662 3.48087 37.2951C3.48944 37.3105 3.49887 37.3242 3.50915 37.3379C3.66515 37.5522 4.00801 37.5488 4.69287 37.5394L12.8683 37.4356C22.3843 37.3139 27.1423 37.2531 30.9403 34.8925C31.2009 34.7305 31.4563 34.5616 31.7066 34.3851C35.364 31.8111 37.29 27.4482 41.142 18.7225L44.2449 11.6956C44.5166 11.0776 44.6537 10.7682 44.5217 10.5411C44.513 10.5263 44.5036 10.512 44.4934 10.4982C44.3409 10.2856 44.0032 10.2856 43.3294 10.2856H36.4894C26.4849 10.2856 21.4826 10.2856 17.472 12.7285C17.1977 12.8965 16.9277 13.0714 16.6637 13.2539Z" fill="url(#paint10_linear_4918_1633)" fill-opacity="0.2"/>
  <path fill-rule="evenodd" clip-rule="evenodd" d="M43.3294 10.7142H36.4894C31.4786 10.7142 27.7526 10.7142 24.7766 11.0176C21.8109 11.3194 19.626 11.9185 17.6949 13.0954C17.4274 13.2582 17.1643 13.4288 16.9063 13.6071C15.0463 14.8928 13.6063 16.6456 12.1192 19.2368C10.626 21.8356 9.10116 25.2454 7.05087 29.8302L4.15801 36.3008C4.0123 36.6265 3.9223 36.8288 3.87944 36.9779C3.8694 37.0107 3.86223 37.0442 3.85801 37.0782C3.89025 37.0876 3.92323 37.0942 3.95658 37.0979C4.11087 37.1176 4.3303 37.1151 4.68687 37.1116L12.8623 37.0071C17.628 36.9462 21.1723 36.8999 23.9992 36.5785C26.8166 36.2562 28.8874 35.6631 30.7132 34.5282C30.9669 34.3705 31.2146 34.2068 31.4589 34.0354C33.2177 32.7976 34.5754 31.1211 35.9777 28.6491C37.3852 26.1694 38.82 22.9199 40.7494 18.5494L43.8514 11.5225C43.9929 11.2011 44.0794 11.0022 44.1214 10.8548C44.1311 10.8229 44.138 10.7902 44.142 10.7571C44.1104 10.7474 44.078 10.7406 44.0452 10.7365C43.8952 10.7151 43.6792 10.7142 43.3294 10.7142ZM44.1634 10.7656C44.1634 10.7656 44.1617 10.7656 44.1592 10.7631L44.1634 10.7656ZM3.83744 37.0696C3.83744 37.0696 3.83915 37.0696 3.84173 37.0722L3.83744 37.0696ZM16.6637 13.2539C12.7997 15.9248 10.7529 20.5019 6.66087 29.6554L3.76716 36.1259C3.48687 36.7534 3.34715 37.0662 3.48087 37.2951C3.48944 37.3105 3.49887 37.3242 3.50915 37.3379C3.66515 37.5522 4.00801 37.5488 4.69287 37.5394L12.8683 37.4356C22.3843 37.3139 27.1423 37.2531 30.9403 34.8925C31.2009 34.7305 31.4563 34.5616 31.7066 34.3851C35.364 31.8111 37.29 27.4482 41.142 18.7225L44.2449 11.6956C44.5166 11.0776 44.6537 10.7682 44.5217 10.5411C44.513 10.5263 44.5036 10.512 44.4934 10.4982C44.3409 10.2856 44.0032 10.2856 43.3294 10.2856H36.4894C26.4849 10.2856 21.4826 10.2856 17.472 12.7285C17.1977 12.8965 16.9277 13.0714 16.6637 13.2539Z" fill="url(#paint11_linear_4918_1633)" fill-opacity="0.1"/>
  <path fill-rule="evenodd" clip-rule="evenodd" d="M43.3294 10.7142H36.4894C31.4786 10.7142 27.7526 10.7142 24.7766 11.0176C21.8109 11.3194 19.626 11.9185 17.6949 13.0954C17.4274 13.2582 17.1643 13.4288 16.9063 13.6071C15.0463 14.8928 13.6063 16.6456 12.1192 19.2368C10.626 21.8356 9.10116 25.2454 7.05087 29.8302L4.15801 36.3008C4.0123 36.6265 3.9223 36.8288 3.87944 36.9779C3.8694 37.0107 3.86223 37.0442 3.85801 37.0782C3.89025 37.0876 3.92323 37.0942 3.95658 37.0979C4.11087 37.1176 4.3303 37.1151 4.68687 37.1116L12.8623 37.0071C17.628 36.9462 21.1723 36.8999 23.9992 36.5785C26.8166 36.2562 28.8874 35.6631 30.7132 34.5282C30.9669 34.3705 31.2146 34.2068 31.4589 34.0354C33.2177 32.7976 34.5754 31.1211 35.9777 28.6491C37.3852 26.1694 38.82 22.9199 40.7494 18.5494L43.8514 11.5225C43.9929 11.2011 44.0794 11.0022 44.1214 10.8548C44.1311 10.8229 44.138 10.7902 44.142 10.7571C44.1104 10.7474 44.078 10.7406 44.0452 10.7365C43.8952 10.7151 43.6792 10.7142 43.3294 10.7142ZM44.1634 10.7656C44.1634 10.7656 44.1617 10.7656 44.1592 10.7631L44.1634 10.7656ZM3.83744 37.0696C3.83744 37.0696 3.83915 37.0696 3.84173 37.0722L3.83744 37.0696ZM16.6637 13.2539C12.7997 15.9248 10.7529 20.5019 6.66087 29.6554L3.76716 36.1259C3.48687 36.7534 3.34715 37.0662 3.48087 37.2951C3.48944 37.3105 3.49887 37.3242 3.50915 37.3379C3.66515 37.5522 4.00801 37.5488 4.69287 37.5394L12.8683 37.4356C22.3843 37.3139 27.1423 37.2531 30.9403 34.8925C31.2009 34.7305 31.4563 34.5616 31.7066 34.3851C35.364 31.8111 37.29 27.4482 41.142 18.7225L44.2449 11.6956C44.5166 11.0776 44.6537 10.7682 44.5217 10.5411C44.513 10.5263 44.5036 10.512 44.4934 10.4982C44.3409 10.2856 44.0032 10.2856 43.3294 10.2856H36.4894C26.4849 10.2856 21.4826 10.2856 17.472 12.7285C17.1977 12.8965 16.9277 13.0714 16.6637 13.2539Z" fill="url(#paint12_radial_4918_1633)"/>
  <path fill-rule="evenodd" clip-rule="evenodd" d="M3.95683 37.0971C4.11112 37.1176 4.33055 37.1159 4.68712 37.1116L10.6691 37.0345L13.5097 36.4611L20.2871 30.0822L12.9131 25.8136L6.09369 31.9714L4.1574 36.2999C4.01169 36.6265 3.92169 36.8288 3.87883 36.9788C3.86884 37.0112 3.86167 37.0445 3.8574 37.0782C3.88964 37.0876 3.92262 37.0942 3.95597 37.0979L3.95683 37.0971ZM5.73969 31.7142L12.8574 25.2856L21.0003 29.9999L13.7145 36.8571L10.7145 37.4631L4.69226 37.5402C4.00655 37.5488 3.66454 37.5531 3.50854 37.3388C3.49841 37.325 3.48897 37.3107 3.48026 37.2959C3.34569 37.0662 3.48626 36.7534 3.76655 36.1259L5.73969 31.7142Z" fill="url(#paint13_radial_4918_1633)"/>
  <path d="M6.18469 29.8894C4.04954 36.1105 3.20269 37.2145 4.82183 37.8402L4.30754 39.3128L1.80469 38.0982L3.93897 29.1162L6.18469 29.8894Z" fill="url(#paint14_linear_4918_1633)"/>
  </g>
  <path d="M37.7144 0.428711H10.2859C4.8419 0.428711 0.428711 4.8419 0.428711 10.2859V37.7144C0.428711 43.1584 4.8419 47.5716 10.2859 47.5716H37.7144C43.1584 47.5716 47.5716 43.1584 47.5716 37.7144V10.2859C47.5716 4.8419 43.1584 0.428711 37.7144 0.428711Z" stroke="#DBDFEC"/>
  </g>
  <defs>
    <linearGradient id="paint0_linear_4918_1633" x1="7.71443" y1="34.7142" x2="22.2859" y2="23.9999" gradientUnits="userSpaceOnUse">
      <stop stop-color="#8ADAFF"/>
      <stop offset="1" stop-color="#5AAFFE"/>
    </linearGradient>
    <linearGradient id="paint1_linear_4918_1633" x1="26.5715" y1="22.2857" x2="12.7257" y2="33.5074" gradientUnits="userSpaceOnUse">
      <stop stop-color="#59A2FF"/>
      <stop offset="1" stop-color="#60C0FE"/>
    </linearGradient>
    <linearGradient id="paint2_linear_4918_1633" x1="27.8576" y1="21.4283" x2="14.0119" y2="32.65" gradientUnits="userSpaceOnUse">
      <stop stop-color="#59A2FF"/>
      <stop offset="1" stop-color="#60C0FE" stop-opacity="0.57"/>
    </linearGradient>
    <linearGradient id="paint3_linear_4918_1633" x1="28.7151" y1="20.9141" x2="14.8693" y2="32.1358" gradientUnits="userSpaceOnUse">
      <stop stop-color="#59A2FF"/>
      <stop offset="1" stop-color="#60C0FE" stop-opacity="0.33"/>
    </linearGradient>
    <radialGradient id="paint4_radial_4918_1633" cx="0" cy="0" r="1" gradientUnits="userSpaceOnUse" gradientTransform="translate(25.2856 20.1423) rotate(121.607) scale(6.54186 21.2977)">
      <stop stop-color="#82A2E5"/>
      <stop offset="1" stop-color="#5EACFE" stop-opacity="0"/>
    </radialGradient>
    <linearGradient id="paint5_linear_4918_1633" x1="40.2857" y1="13.2856" x2="18.4285" y2="19.7142" gradientUnits="userSpaceOnUse">
      <stop stop-color="#FF843B"/>
      <stop offset="1" stop-color="#FF8F57"/>
    </linearGradient>
    <radialGradient id="paint6_radial_4918_1633" cx="0" cy="0" r="1" gradientUnits="userSpaceOnUse" gradientTransform="translate(34.2855 21.0015) rotate(-176.1) scale(18.9009 28.0546)">
      <stop stop-color="#FF6012"/>
      <stop offset="1" stop-color="#FF8D51" stop-opacity="0"/>
    </radialGradient>
    <linearGradient id="paint7_linear_4918_1633" x1="33.4285" y1="23.9999" x2="24" y2="35.9999" gradientUnits="userSpaceOnUse">
      <stop stop-color="#FF843B" stop-opacity="0"/>
      <stop offset="1" stop-color="#FF9973"/>
    </linearGradient>
    <linearGradient id="paint8_linear_4918_1633" x1="15.5346" y1="16.9692" x2="20.0991" y2="23.3005" gradientUnits="userSpaceOnUse">
      <stop stop-color="white"/>
      <stop offset="1" stop-color="white" stop-opacity="0"/>
    </linearGradient>
    <linearGradient id="paint9_linear_4918_1633" x1="16.2708" y1="38.2822" x2="16.3812" y2="34.4539" gradientUnits="userSpaceOnUse">
      <stop stop-color="white"/>
      <stop offset="1" stop-color="white" stop-opacity="0"/>
    </linearGradient>
    <linearGradient id="paint10_linear_4918_1633" x1="5.14373" y1="32.9999" x2="8.14373" y2="33.4285" gradientUnits="userSpaceOnUse">
      <stop stop-color="#4FA4FF"/>
      <stop offset="1" stop-color="#4FA4FF" stop-opacity="0"/>
    </linearGradient>
    <linearGradient id="paint11_linear_4918_1633" x1="15.0009" y1="17.9999" x2="20.5723" y2="23.1428" gradientUnits="userSpaceOnUse">
      <stop stop-color="#9D3800"/>
      <stop offset="1" stop-opacity="0"/>
    </linearGradient>
    <radialGradient id="paint12_radial_4918_1633" cx="0" cy="0" r="1" gradientUnits="userSpaceOnUse" gradientTransform="translate(5.14373 33.4285) rotate(17.1985) scale(18.8425 12.5087)">
      <stop stop-color="#5FB0FF"/>
      <stop offset="1" stop-color="#92DEFF" stop-opacity="0"/>
    </radialGradient>
    <radialGradient id="paint13_radial_4918_1633" cx="0" cy="0" r="1" gradientUnits="userSpaceOnUse" gradientTransform="translate(6.8574 38.5714) rotate(-63.435) scale(9.58311 6.36184)">
      <stop stop-color="#AFFEFF" stop-opacity="0.71"/>
      <stop offset="1" stop-color="#92DEFF" stop-opacity="0"/>
    </radialGradient>
    <linearGradient id="paint14_linear_4918_1633" x1="3.75501" y1="34.8957" x2="4.15993" y2="37.6564" gradientUnits="userSpaceOnUse">
    <stop stop-color="#55A5FF" stop-opacity="0"/>
    <stop offset="0.765259" stop-color="#55A5FF" stop-opacity="0.34"/>
    <stop offset="1" stop-color="#55A5FF" stop-opacity="0"/>
    </linearGradient>
    <clipPath id="clip0_4918_1633">
      <rect width="48" height="48" fill="white"/>
    </clipPath>
  </defs>
</svg>
