<svg xmlns="http://www.w3.org/2000/svg">
  <symbol xmlns="http://www.w3.org/2000/svg" fill="none" viewBox="0 0 188 40" id="logo-gazprombank">
    <g clip-path="url(#clip0_5030_1450)">
      <path fill-rule="evenodd" clip-rule="evenodd"
        d="M0.689762 20C0.689762 9.36005 9.28526 0.685197 19.8439 0.685197C30.4159 0.685197 39.0114 9.34712 39.0114 20C39.0114 30.6529 30.4159 39.3148 19.8439 39.3148C9.28526 39.3148 0.689762 30.6529 0.689762 20ZM0 20C0 31.0278 8.90059 40 19.8439 40C30.7873 40 39.6879 31.0278 39.6879 20C39.7011 8.9722 30.7873 0 19.8439 0C8.90059 0 0 8.9722 0 20Z"
        fill="currentColor" />
      <path fill-rule="evenodd" clip-rule="evenodd"
        d="M32.4722 17.9701C32.3263 18.0994 32.1671 18.2286 31.9814 18.3579C30.8804 19.2112 29.156 19.8835 26.7551 20.5299C21.7676 21.8744 18.1596 22.0813 14.0343 23.0897C13.2384 23.2836 12.4027 23.5551 11.6201 23.8783C12.4027 24.2661 13.2251 24.6281 14.0741 24.9513C15.7454 24.473 16.5413 24.2532 18.9687 23.8395C19.884 23.6844 22.7226 23.1802 24.7919 22.7406C28.4928 21.952 33.918 20.2325 32.4722 17.9701ZM30.0845 13.2771C29.3019 12.9151 28.3071 12.5661 27.2592 12.2817C26.7949 12.6566 26.2378 12.9927 25.4684 13.2901C26.7684 13.5228 27.7632 13.8848 28.8509 14.208C29.0631 14.3114 29.9519 13.4711 30.0845 13.2771ZM11.9385 18.2674C16.7801 16.8324 21.8604 16.3928 27.0071 15.0095C24.9909 14.4665 23.8899 14.2338 21.7676 14.4795C18.6769 14.8414 15.2812 15.5266 12.3762 16.3928C11.2354 16.729 5.23982 18.4484 6.96423 20.8402C6.96423 20.8789 7.99887 19.431 11.9385 18.2674ZM8.59578 26.5027C8.58252 26.9552 8.86107 27.3431 9.44472 27.8343C9.52431 27.5887 9.63042 27.4206 9.80286 27.1879C9.39166 26.9681 8.98046 26.7354 8.59578 26.5027ZM10.864 26.27C11.2222 26.0502 11.6599 25.8305 12.164 25.6365C11.4742 25.3521 10.7712 25.0418 10.0549 24.7057C9.72328 24.9126 9.44472 25.1194 9.20596 25.3521C9.76307 25.6624 10.3069 25.9727 10.864 26.27ZM29.4744 15.9016C28.4928 16.3541 27.1 16.8324 25.0838 17.3366C23.4389 17.7503 19.433 18.3321 15.122 19.2758C13.7557 19.5732 10.0682 20.4523 8.2509 22.0037C8.75496 22.4174 9.07331 22.5208 9.63042 22.8311C10.3865 22.3528 11.3946 21.8873 12.9201 21.4736C15.5597 20.7626 17.5362 20.4523 19.9105 20.0774C22.2716 19.7025 26.702 18.7587 29.1693 17.8796C29.9651 17.5822 30.708 17.2202 31.2651 16.7807C31.1059 16.5997 29.5274 15.8369 29.4744 15.9016ZM30.9069 15.0224C31.3845 15.2681 31.8222 15.4361 32.2467 15.7335C32.5518 15.1517 32.366 14.7768 31.7293 14.2338C31.4906 14.5312 31.1988 14.7897 30.9069 15.0224ZM8.35702 23.8395C7.93255 23.5939 7.62746 23.4258 7.26931 23.1672C7.07034 23.5939 7.44176 24.0722 7.82643 24.292C7.99887 24.1239 8.18458 23.9817 8.35702 23.8395ZM28.9703 10.3553C28.8774 10.6915 28.5326 11.0664 28.2805 11.3379C29.0101 11.5318 29.7396 11.8033 30.4427 12.0619C30.3631 11.4155 29.607 10.782 28.9703 10.3553ZM6.18161 14.5182C11.2487 11.1698 16.8597 9.21766 26.3704 10.8725C26.901 10.5622 27.1928 10.2778 27.3255 9.64429C24.9511 8.7781 22.3778 8.48075 19.0483 8.53246C16.0505 8.61003 10.6651 9.73479 7.7999 11.4542L8.67537 10.3553C10.6916 9.16595 15.9311 7.5887 19.8575 7.51113C22.6298 7.45942 24.0624 7.61456 27.352 8.5066C27.0735 7.93776 26.3837 7.65334 25.3888 7.20085C22.2053 5.75289 16.2495 5.62361 11.3681 7.78262C11.9915 7.38185 12.5884 6.994 13.3843 6.63201C14.9893 5.8951 17.629 5.17112 20.9186 5.22283C23.5451 5.26161 26.6755 6.19245 28.5856 8.10583C28.904 8.48075 29.0897 8.88152 29.1693 9.20473C30.6814 9.98042 31.5569 10.7044 32.061 11.5577C32.2599 11.9843 32.3528 12.4756 32.2599 13.0056C32.8834 13.3935 33.1885 13.7038 33.4935 14.1175C33.719 14.4665 33.8915 14.8673 33.9313 15.2293C33.9843 15.7076 34.0374 16.2506 33.5466 16.8712C34.0772 17.1297 34.4751 17.8537 34.5415 18.1769C34.7802 19.3275 34.0507 20.4394 33.0691 21.3185C31.9548 22.301 29.5009 23.4646 27.4979 23.9817C23.5185 24.9901 20.0167 25.4168 17.2178 25.9339C18.4647 26.2312 20.1626 26.6449 22.9481 26.6449C28.8774 26.6449 34.117 23.8137 34.117 23.8137C34.117 23.8137 33.9976 24.1886 33.8782 24.5118C30.1111 26.813 24.1154 27.7826 21.5686 27.6663C18.9687 27.5499 16.7801 27.1621 14.6445 26.4898C13.9812 26.6708 13.3445 26.8776 12.7211 27.1491C15.9842 28.6359 18.4382 28.972 21.2237 29.1789C24.0624 29.3857 28.7581 28.7005 32.7375 27.2526C32.5518 27.4336 32.4589 27.718 32.2732 27.899C30.2437 28.972 25.946 30.058 23.7838 30.1356C21.6349 30.2261 19.0218 30.1485 16.7403 29.7089C14.7771 29.334 13.1854 28.7005 11.5007 27.9636C11.1957 28.1834 11.0365 28.4808 10.9834 28.804C17.5096 32.2429 23.6379 32.3204 30.6018 30.1356L29.9651 30.7561C22.2982 33.8848 16.3025 32.6695 11.6732 30.42C11.5273 30.3553 11.3416 30.2778 11.2089 30.1873C11.6334 30.9371 15.1751 33.5486 19.1412 33.8718C21.8737 34.0916 25.2031 33.6262 27.1796 32.8246L26.0255 33.4323C25.0705 33.9106 22.5369 34.9837 18.982 34.7509C14.2598 34.4277 11.5936 32.3204 10.3998 31.2215C9.84266 30.7044 9.59063 30.1097 9.41819 29.3728C8.34375 28.804 7.68052 28.2222 7.1234 27.356C6.79179 26.8389 6.85811 26.27 6.9377 25.7787C6.96423 25.6236 7.00402 25.4814 7.05708 25.3392C6.53976 24.9643 6.02244 24.5635 5.79694 24.1627C5.33267 23.3095 5.61123 22.5855 5.94285 22.0166C5.66429 21.6934 5.399 21.3702 5.27962 21.047C5.16023 20.685 5.1337 20.3101 5.1735 19.8964C5.26635 19.1853 5.63776 18.526 6.12855 17.9572C7.1632 16.7548 8.78149 15.824 11.5671 14.8932C14.2863 13.9882 15.3873 13.846 17.4433 13.3676C19.8442 12.8117 22.7094 12.6307 25.1103 11.7904C18.4116 10.6139 11.4609 11.687 5.79694 15.6171L6.18161 14.5182Z"
        fill="currentColor" />
      <path
        d="M64.6919 16.5225L65.448 21.8619H63.9226L64.6919 16.5225ZM58.6963 28.7397H62.7951L63.2859 25.7145H66.098L66.5888 28.7397H70.6743L67.2255 11.2349H62.1584L58.6963 28.7397Z"
        fill="currentColor" />
      <path
        d="M74.5471 18.009C75.197 18.009 76.4041 17.5824 76.4041 16.2895C76.4041 14.764 75.0113 14.6735 74.6266 14.6735C74.1624 14.6735 73.2869 14.7381 72.4114 15.1648L72.3584 11.3768C73.7246 11.0148 74.7195 10.9243 75.8735 10.9243C79.1632 10.9243 80.6488 13.2514 80.6488 15.5138C80.6488 17.7246 79.3754 19.0691 78.155 19.5862V19.7543C79.3223 20.1292 80.9141 21.2798 80.9141 23.956C80.9141 27.2527 78.6193 29.0756 75.7011 29.0756C74.1359 29.0756 73.1145 28.8429 71.8809 28.1706L71.9472 24.5378C73.0747 25.029 73.844 25.0678 74.6266 25.0678C75.9133 25.0678 76.4439 24.1111 76.4439 23.4001C76.4439 22.4175 75.8205 21.7582 74.4542 21.7582H72.8227V18.009H74.5471Z"
        fill="currentColor" />
      <path d="M82.8115 11.2349H93.8079V28.7397H89.7755V15.4365H86.844V28.7397H82.8115V11.2349Z"
        fill="currentColor" />
      <path
        d="M100.148 15.087H101.103C102.018 15.087 102.588 15.6429 102.588 17.0909C102.588 18.9914 101.62 19.1206 101.103 19.1206H100.148V15.087ZM96.1152 28.7393H100.148V22.9603H101.501C105.493 22.9603 106.727 19.3533 106.727 17.0521C106.727 14.7897 105.321 11.2215 101.501 11.2344H96.1152V28.7393Z"
        fill="currentColor" />
      <path
        d="M114.183 24.7188C112.763 24.7188 112.034 23.0511 112.034 19.9612C112.034 16.8714 112.763 15.2036 114.183 15.2036C115.602 15.2036 116.345 16.8714 116.345 19.9612C116.345 23.0511 115.602 24.7188 114.183 24.7188ZM114.183 28.9463C118.958 28.9463 120.576 24.4602 120.576 19.9612C120.576 15.4751 118.958 10.9761 114.183 10.9761C109.407 10.9761 107.789 15.4751 107.789 19.9612C107.802 24.4602 109.407 28.9463 114.183 28.9463Z"
        fill="currentColor" />
      <path
        d="M142.077 25.2362V21.2543H142.661C143.138 21.2543 144.412 21.2801 144.412 23.0771C144.412 24.9259 143.138 25.2362 142.661 25.2362H142.077ZM138.138 28.7397H142.953C143.987 28.7397 148.351 28.3002 148.365 22.9996C148.365 18.5264 144.982 17.7507 142.807 17.7507H142.091V15.4365H147.423V11.2349H138.138V28.7397Z"
        fill="currentColor" />
      <path
        d="M162.864 11.2349H166.817V17.5309H169.629V11.2349H173.582V28.7397H169.629V21.7326H166.817V28.7397H162.864V11.2349Z"
        fill="currentColor" />
      <path
        d="M176.221 11.2349H180.174L180.16 17.5309H181.023L183.277 11.2349H187.575L184.498 19.5348L188 28.7397H183.357L181.102 21.6938H180.16L180.174 28.7397H176.221V11.2349Z"
        fill="currentColor" />
      <path d="M50.8965 11.2349H59.1604V15.5917H54.9953V28.7397H50.8965V11.2349Z"
        fill="currentColor" />
      <path
        d="M122.512 11.2349H125.934L128.958 15.359L131.996 11.2349H135.418V28.7397H131.386V18.061L128.958 21.125L126.544 18.061V28.7397H122.512V11.2349Z"
        fill="currentColor" />
      <path
        d="M155.144 16.5479L155.9 21.8873H154.375L155.144 16.5479ZM149.148 28.7651H153.234L153.725 25.7399H156.537L157.028 28.7651H161.113L157.651 11.2603H152.584L149.148 28.7651Z"
        fill="currentColor" />
    </g>
    <defs>
      <clipPath id="clip0_5030_1450">
        <rect width="188" height="40" fill="white" />
      </clipPath>
    </defs>
  </symbol>
  <symbol xmlns="http://www.w3.org/2000/svg" fill="none" viewBox="0 0 14 14" id="icon-whatsapp">
    <g clip-path="url(#icon-whatsapp-clip)">
      <path fill="#1E222E"
        d="M7.002 0h-.004C3.138 0 0 3.14 0 7c0 1.531.493 2.95 1.333 4.103l-.873 2.6 2.69-.86A6.94 6.94 0 0 0 7.003 14C10.862 14 14 10.86 14 7s-3.139-7-6.998-7Z"></path>
      <path fill="#E3E5EB"
        d="M11.075 9.885c-.169.477-.84.872-1.374.988-.366.078-.843.14-2.452-.527-2.057-.852-3.381-2.943-3.485-3.078-.099-.136-.83-1.107-.83-2.112 0-1.004.51-1.493.715-1.703.169-.173.448-.251.716-.251.086 0 .164.004.234.008.206.008.309.02.445.345.168.407.58 1.412.629 1.515.05.103.1.243.03.379-.066.14-.124.202-.227.32-.103.12-.201.21-.305.339-.094.11-.2.23-.082.435.12.202.53.873 1.136 1.412.781.695 1.415.918 1.641 1.012.17.07.37.053.494-.078.156-.169.35-.449.547-.724.14-.198.316-.223.502-.153.189.066 1.19.56 1.395.663.205.103.341.152.39.239.05.086.05.493-.119.97Z"></path>
    </g>
    <defs>
      <clipPath id="icon-whatsapp-clip">
        <path fill="#fff" d="M0 0h14v14H0z"></path>
      </clipPath>
    </defs>
  </symbol>
  <symbol xmlns="http://www.w3.org/2000/svg" fill="none" viewBox="0 0 16 16" id="icon-yt">
    <path fill-rule="evenodd" clip-rule="evenodd"
      d="M6.63601 10.013V6.04801L10.121 8.03001L6.63601 10.013ZM14.388 4.80001C14.3125 4.51624 14.1638 4.25729 13.9567 4.04913C13.7496 3.84098 13.4914 3.69092 13.208 3.61401C12.169 3.33301 8.00001 3.33301 8.00001 3.33301C8.00001 3.33301 3.83001 3.33301 2.79001 3.61301C2.50673 3.69025 2.24872 3.84056 2.04181 4.04888C1.83489 4.25719 1.68633 4.51622 1.61101 4.80001C1.33301 5.84701 1.33301 8.03001 1.33301 8.03001C1.33301 8.03001 1.33301 10.214 1.61101 11.26C1.68633 11.5438 1.83489 11.8028 2.04181 12.0111C2.24872 12.2195 2.50673 12.3698 2.79001 12.447C3.83001 12.727 8.00001 12.727 8.00001 12.727C8.00001 12.727 12.169 12.727 13.209 12.447C13.4923 12.3699 13.7504 12.2196 13.9573 12.0112C14.1642 11.8029 14.3128 11.5438 14.388 11.26C14.666 10.214 14.666 8.03001 14.666 8.03001C14.666 8.03001 14.666 5.84701 14.388 4.80001Z"
      fill="currentColor" />
  </symbol>
  <symbol xmlns="http://www.w3.org/2000/svg" fill="none" viewBox="0 0 16 16" id="icon-ok">
    <path
      d="M8.82588 6.12971C8.82607 6.29336 8.77771 6.45339 8.68692 6.58954C8.59612 6.7257 8.46697 6.83185 8.31582 6.89457C8.16466 6.95729 7.9983 6.97375 7.83778 6.94187C7.67727 6.90999 7.52982 6.83121 7.4141 6.71549C7.29838 6.59977 7.2196 6.45232 7.18772 6.29181C7.15584 6.13129 7.1723 5.96493 7.23502 5.81377C7.29774 5.66262 7.40389 5.53347 7.54004 5.44267C7.67619 5.35187 7.83622 5.30351 7.99987 5.30371C8.45487 5.30371 8.82588 5.67471 8.82588 6.12971Z"
      fill="currentColor" />
    <path fill-rule="evenodd" clip-rule="evenodd"
      d="M1.33301 8.00048C1.33301 7.12503 1.50544 6.25814 1.84046 5.44933C2.17549 4.64051 2.66654 3.9056 3.28558 3.28656C3.90462 2.66752 4.63953 2.17646 5.44835 1.84144C6.25717 1.50642 7.12405 1.33398 7.99951 1.33398C8.87497 1.33398 9.74185 1.50642 10.5507 1.84144C11.3595 2.17646 12.0944 2.66752 12.7134 3.28656C13.3325 3.9056 13.8235 4.64051 14.1586 5.44933C14.4936 6.25814 14.666 7.12503 14.666 8.00048C14.666 9.76855 13.9636 11.4642 12.7134 12.7144C11.4632 13.9646 9.76757 14.667 7.99951 14.667C6.23144 14.667 4.53579 13.9646 3.28558 12.7144C2.03537 11.4642 1.33301 9.76855 1.33301 8.00048ZM9.92301 11.6955C9.9774 11.6412 10.0206 11.5768 10.05 11.5058C10.0794 11.4349 10.0946 11.3588 10.0946 11.282C10.0946 11.2052 10.0794 11.1291 10.05 11.0581C10.0206 10.9872 9.9774 10.9227 9.92301 10.8685L8.80701 9.75248C9.21769 9.65912 9.60957 9.49682 9.96601 9.27248C10.0936 9.1882 10.1831 9.05731 10.2154 8.90785C10.2476 8.75838 10.2201 8.60222 10.1387 8.47281C10.0572 8.34339 9.92835 8.25101 9.77964 8.21543C9.63093 8.17986 9.4742 8.20393 9.34301 8.28248C8.94017 8.53439 8.47462 8.66796 7.99951 8.66796C7.52439 8.66796 7.05885 8.53439 6.65601 8.28248C6.591 8.24158 6.51858 8.21388 6.44287 8.20096C6.36716 8.18804 6.28964 8.19016 6.21475 8.2072C6.13986 8.22424 6.06906 8.25587 6.00639 8.30027C5.94372 8.34467 5.89042 8.40098 5.84951 8.46598C5.8086 8.53099 5.7809 8.60341 5.76798 8.67912C5.75506 8.75483 5.75719 8.83235 5.77423 8.90724C5.79127 8.98213 5.82289 9.05293 5.86729 9.1156C5.91169 9.17827 5.968 9.23158 6.03301 9.27248C6.39401 9.49949 6.78601 9.66048 7.19201 9.75248L6.07601 10.8685C6.02171 10.9229 5.97864 10.9874 5.94928 11.0584C5.91992 11.1294 5.90483 11.2055 5.90488 11.2823C5.90492 11.3592 5.9201 11.4353 5.94955 11.5062C5.979 11.5772 6.02214 11.6417 6.07651 11.696C6.13088 11.7503 6.19541 11.7933 6.26641 11.8227C6.33742 11.8521 6.41352 11.8672 6.49036 11.8671C6.5672 11.8671 6.64328 11.8519 6.71425 11.8224C6.78523 11.793 6.84971 11.7499 6.90401 11.6955L7.99901 10.5985L9.09701 11.6955C9.15117 11.7498 9.21554 11.793 9.28641 11.8224C9.35728 11.8518 9.43327 11.867 9.51001 11.867C9.58675 11.867 9.66273 11.8518 9.73361 11.8224C9.80448 11.793 9.86884 11.7498 9.92301 11.6955ZM8.00001 4.13548C9.10001 4.13548 9.99501 5.02948 9.99501 6.13048C9.99501 7.23048 9.10001 8.12548 8.00001 8.12548C6.90001 8.12548 6.00401 7.23048 6.00401 6.13048C6.00401 5.03048 6.89901 4.13448 8.00001 4.13448V4.13548Z"
      fill="currentColor" />
  </symbol>
  <symbol xmlns="http://www.w3.org/2000/svg" fill="none" viewBox="0 0 16 16" id="icon-vk">
    <path fill-rule="evenodd" clip-rule="evenodd"
      d="M11.9336 10.7316H11.0036C10.6506 10.7316 10.5426 10.4436 9.91061 9.81161C9.35861 9.27761 9.11461 9.20561 8.97961 9.20561C8.78961 9.20561 8.73561 9.25061 8.73561 9.52261V10.3626C8.73561 10.5876 8.66361 10.7226 8.06661 10.7226C7.08261 10.7226 5.98961 10.1266 5.22161 9.01661C4.06561 7.38961 3.74961 6.16161 3.74961 5.91661C3.74961 5.78261 3.79461 5.65561 4.06561 5.65561H5.00561C5.23961 5.65561 5.33061 5.75561 5.42061 6.01661C5.88061 7.34461 6.64861 8.50961 6.96461 8.50961C7.08261 8.50961 7.13661 8.45661 7.13661 8.15761V6.78461C7.10061 6.15261 6.76661 6.09761 6.76661 5.87261C6.76661 5.76361 6.85661 5.65561 7.00061 5.65561H8.46461C8.66461 5.65561 8.73561 5.76361 8.73561 5.99861V7.85061C8.73561 8.04961 8.81761 8.12161 8.88061 8.12161C8.99761 8.12161 9.09661 8.04961 9.31361 7.83261C9.98261 7.08261 10.4616 5.92661 10.4616 5.92661C10.493 5.84576 10.5492 5.77693 10.6221 5.73004C10.6951 5.68314 10.781 5.66058 10.8676 5.66561H11.7976C12.0776 5.66561 12.1416 5.80861 12.0776 6.00861C11.9606 6.55061 10.8216 8.15761 10.8316 8.15761C10.7316 8.32061 10.6956 8.39261 10.8316 8.57361C10.9306 8.70961 11.2556 8.98861 11.4716 9.24161C11.8696 9.69361 12.1766 10.0726 12.2586 10.3346C12.3306 10.5966 12.2036 10.7316 11.9336 10.7316ZM9.96361 1.59961H6.03561C2.44961 1.59961 1.59961 2.44961 1.59961 6.03561V9.96561C1.59961 13.5506 2.44861 14.3996 6.03461 14.3996H9.96461C13.5496 14.3996 14.3996 13.5506 14.3996 9.96461V6.03461C14.3996 2.44861 13.5496 1.59961 9.96461 1.59961H9.96361Z"
      fill="currentColor" />
  </symbol>
  <symbol xmlns="http://www.w3.org/2000/svg" fill="none" viewBox="0 0 15 12" id="icon-telegram">
    <mask id="icon-telegram-mask" width="15" height="12" x="0" y="0" maskUnits="userSpaceOnUse">
      <path fill="#fff" fill-rule="evenodd" d="M.5.167h14v11.666H.5V.167Z" clip-rule="evenodd"></path>
    </mask>
    <g mask="url(#icon-telegram-mask)">
      <path fill="#1E222E" fill-rule="evenodd"
        d="M14.5 1.104c-.073.326-.15.652-.22.979l-1.355 6.344c-.195.91-.388 1.822-.587 2.732a1.363 1.363 0 0 1-.129.342c-.152.287-.402.394-.71.298a1.406 1.406 0 0 1-.402-.195c-1.006-.729-2.007-1.465-3.01-2.2l-.116-.082c-.033.029-.065.053-.094.08l-1.552 1.481a.714.714 0 0 1-.559.223l.056-.836.125-1.73c.007-.09.03-.184.019-.272-.046-.332.141-.525.37-.729 1.856-1.654 3.703-3.319 5.553-4.98.027-.025.062-.046.078-.076.03-.056.047-.118.07-.177-.063-.017-.132-.06-.187-.047a1.153 1.153 0 0 0-.323.136 6370.27 6370.27 0 0 0-7.229 4.524c-.067.042-.126.065-.212.038-1.022-.323-2.047-.638-3.069-.961a1.302 1.302 0 0 1-.352-.172c-.199-.14-.223-.344-.045-.51.13-.12.288-.228.453-.294.86-.342 1.728-.67 2.593-1C6.953 2.76 10.24 1.5 13.528.243c.104-.04.218-.067.33-.075.296-.023.515.137.605.425.011.034.025.067.037.1v.41Z"
        clip-rule="evenodd"></path>
    </g>
  </symbol>
  <symbol xmlns="http://www.w3.org/2000/svg" fill="none" viewBox="0 0 20 20" id="icon-flag">
    <g clip-path="url(#icon-flag-clip)">
      <path fill="#00247D"
        d="M0 5.033v2.19h3.127L0 5.032Zm2.591 12.19h4.631V13.98l-4.63 3.242Zm10.187-3.243v3.242h4.63l-4.63-3.242ZM0 12.778v2.19l3.128-2.19H0Zm17.41-10h-4.632V6.02l4.631-3.243ZM20 14.968v-2.19h-3.128L20 14.968Zm0-7.746v-2.19l-3.127 2.19H20ZM7.222 2.778h-4.63l4.63 3.243V2.778Z"></path>
      <path fill="#CF1B2B"
        d="m13.967 12.778 5.395 3.778a2.21 2.21 0 0 0 .55-.972l-4.008-2.806h-1.937Zm-6.745 0H6.033L.638 16.555c.29.295.66.505 1.077.603l5.507-3.856v-.524Zm5.556-5.556h1.19l5.394-3.778a2.216 2.216 0 0 0-1.076-.602l-5.508 3.856v.524Zm-6.745 0L.638 3.444a2.219 2.219 0 0 0-.55.972l4.008 2.806h1.937Z"></path>
      <path fill="#EEE"
        d="M20 11.667h-8.333v5.555h1.11V13.98l4.631 3.242h.37a2.217 2.217 0 0 0 1.584-.666l-5.395-3.778h1.937l4.008 2.806c.052-.187.088-.38.088-.584v-.032l-3.128-2.19H20v-1.111Zm-20 0v1.11h3.128L0 14.968V15c0 .606.244 1.154.638 1.556l5.395-3.778h1.19v.524l-5.509 3.856c.164.039.333.064.508.064h.37l4.63-3.243v3.243h1.111v-5.555H0ZM20 5c0-.582-.229-1.141-.638-1.555l-5.395 3.777h-1.19v-.524l5.51-3.856a2.222 2.222 0 0 0-.51-.064h-.368L12.778 6.02V2.778h-1.111v5.555H20v-1.11h-3.127L20 5.032V5ZM7.222 2.778V6.02l-4.63-3.243h-.37a2.214 2.214 0 0 0-1.584.667l5.395 3.777H4.096L.087 4.416C.032 4.606.003 4.802 0 5v.033l3.127 2.19H0v1.11h8.333V2.778h-1.11Z"></path>
      <path fill="#CF1B2B"
        d="M11.667 8.333V2.778H8.333v5.555H0v3.334h8.333v5.555h3.334v-5.555H20V8.333h-8.333Z"></path>
    </g>
    <defs>
      <clipPath id="icon-flag-clip">
        <path fill="#fff" d="M0 0h20v20H0z"></path>
      </clipPath>
    </defs>
  </symbol>
  <symbol xmlns="http://www.w3.org/2000/svg" viewBox="0 0 24 24" fill="none" id="icon-burger">
    <path fill="currentColor" fill-rule="evenodd" clip-rule="evenodd"
      d="M2 5.75C2 5.55109 2.07902 5.36032 2.21967 5.21967C2.36032 5.07902 2.55109 5 2.75 5H21.25C21.4489 5 21.6397 5.07902 21.7803 5.21967C21.921 5.36032 22 5.55109 22 5.75C22 5.94891 21.921 6.13968 21.7803 6.28033C21.6397 6.42098 21.4489 6.5 21.25 6.5H2.75C2.55109 6.5 2.36032 6.42098 2.21967 6.28033C2.07902 6.13968 2 5.94891 2 5.75ZM2 11.75C2 11.5511 2.07902 11.3603 2.21967 11.2197C2.36032 11.079 2.55109 11 2.75 11H21.25C21.4489 11 21.6397 11.079 21.7803 11.2197C21.921 11.3603 22 11.5511 22 11.75C22 11.9489 21.921 12.1397 21.7803 12.2803C21.6397 12.421 21.4489 12.5 21.25 12.5H2.75C2.55109 12.5 2.36032 12.421 2.21967 12.2803C2.07902 12.1397 2 11.9489 2 11.75ZM2 17.75C2 17.5511 2.07902 17.3603 2.21967 17.2197C2.36032 17.079 2.55109 17 2.75 17H21.25C21.4489 17 21.6397 17.079 21.7803 17.2197C21.921 17.3603 22 17.5511 22 17.75C22 17.9489 21.921 18.1397 21.7803 18.2803C21.6397 18.421 21.4489 18.5 21.25 18.5H2.75C2.55109 18.5 2.36032 18.421 2.21967 18.2803C2.07902 18.1397 2 17.9489 2 17.75Z" />
  </symbol>
  <symbol xmlns="http://www.w3.org/2000/svg" viewBox="0 0 24 24" fill="none" id="icon-search">
    <path fill="currentColor" fill-rule="evenodd" clip-rule="evenodd"
      d="M14.5547 15.9692C13.0972 17.0687 11.2768 17.5744 9.46103 17.3843C7.64523 17.1941 5.96915 16.3223 4.77101 14.9447C3.57286 13.5672 2.94186 11.7864 3.00534 9.96175C3.06882 8.13713 3.82205 6.40451 5.11303 5.11352C6.40402 3.82254 8.13664 3.06931 9.96126 3.00583C11.7859 2.94235 13.5667 3.57335 14.9442 4.77149C16.3218 5.96964 17.1936 7.64572 17.3838 9.46152C17.5739 11.2773 17.0682 13.0976 15.9687 14.5552L20.7047 19.2912C20.8923 19.4787 20.9978 19.733 20.9979 19.9983C20.998 20.2636 20.8927 20.518 20.7052 20.7057C20.5177 20.8933 20.2633 20.9988 19.998 20.9989C19.7328 20.999 19.4783 20.8937 19.2907 20.7062L14.5547 15.9692ZM15.9227 10.2112C15.9227 10.9612 15.7749 11.7039 15.4879 12.3969C15.2009 13.0898 14.7802 13.7194 14.2498 14.2498C13.7195 14.7802 13.0898 15.2009 12.3969 15.4879C11.7039 15.7749 10.9612 15.9227 10.2112 15.9227C9.46113 15.9227 8.71843 15.7749 8.02548 15.4879C7.33253 15.2009 6.7029 14.7802 6.17253 14.2498C5.64217 13.7194 5.22147 13.0898 4.93444 12.3969C4.64741 11.7039 4.49967 10.9612 4.49967 10.2112C4.49967 8.69638 5.10142 7.24364 6.17253 6.17252C7.24365 5.10141 8.69639 4.49966 10.2112 4.49966C11.726 4.49966 13.1787 5.10141 14.2498 6.17252C15.3209 7.24364 15.9227 8.69638 15.9227 10.2112Z" />
  </symbol>
  <symbol xmlns="http://www.w3.org/2000/svg" viewBox="0 0 24 24" fill="none" id="icon-decor">
    <circle cx="2" cy="2" r="2" fill="#B7B8BC" />
    <circle cx="2" cy="12" r="2" fill="#B7B8BC" />
    <circle cx="2" cy="22" r="2" fill="#B7B8BC" />
    <circle cx="12" cy="2" r="2" fill="#B7B8BC" />
    <circle cx="12" cy="12" r="2" fill="#1E222E" />
    <circle cx="12" cy="22" r="2" fill="#B7B8BC" />
    <circle cx="22" cy="2" r="2" fill="#B7B8BC" />
    <circle cx="22" cy="12" r="2" fill="#B7B8BC" />
  </symbol>
  <symbol xmlns="http://www.w3.org/2000/svg" viewBox="0 0 16 16" fill="none" id="icon-arrow-right">
    <path fill-rule="evenodd" clip-rule="evenodd"
      d="M8.55532 12.7781C8.64907 12.8717 8.77616 12.9243 8.90866 12.9243C9.04116 12.9243 9.16824 12.8717 9.26199 12.7781L13.6867 8.35342C13.7803 8.25967 13.8329 8.13259 13.8329 8.00008C13.8329 7.86758 13.7803 7.7405 13.6867 7.64675L9.26199 3.22209C9.16721 3.13377 9.04184 3.08568 8.91231 3.08797C8.78277 3.09025 8.65918 3.14273 8.56758 3.23434C8.47597 3.32595 8.42349 3.44954 8.42121 3.57907C8.41892 3.7086 8.467 3.83397 8.55532 3.92875L12.126 7.50008H2.66666C2.53405 7.50008 2.40687 7.55276 2.3131 7.64653C2.21933 7.7403 2.16666 7.86748 2.16666 8.00008C2.16666 8.13269 2.21933 8.25987 2.3131 8.35364C2.40687 8.44741 2.53405 8.50008 2.66666 8.50008H12.1267L8.55532 12.0714C8.46169 12.1652 8.4091 12.2923 8.4091 12.4248C8.4091 12.5573 8.46169 12.6843 8.55532 12.7781Z"
      fill="currentColor" />
  </symbol>
  <symbol xmlns="http://www.w3.org/2000/svg" viewBox="0 0 32 32" fill="none" id="icon-percent">
    <path
      d="M14.0573 20.3831C13.848 20.6977 13.668 20.8098 13.372 20.8098C13.0067 20.8098 12.6533 20.5737 12.6533 20.1844C12.6533 19.9684 12.716 19.8324 12.8213 19.6778L17.9293 12.0391C18.14 11.7231 18.3133 11.5938 18.672 11.5938C19.0547 11.5938 19.352 11.8604 19.352 12.2364C19.3431 12.4109 19.2828 12.5788 19.1787 12.7191L14.0573 20.3831Z"
      fill="currentColor" />
    <path fill-rule="evenodd" clip-rule="evenodd"
      d="M14.7338 14.0663C14.7338 15.6263 13.8858 16.5663 12.5685 16.5663C11.2445 16.5663 10.3965 15.6329 10.3965 14.0663C10.3965 12.4956 11.2498 11.5996 12.5685 11.5996C13.8792 11.5996 14.7325 12.4903 14.7325 14.0663H14.7338ZM11.9552 14.0729C11.9552 15.0129 12.2032 15.4036 12.5685 15.4036C12.9272 15.4036 13.1738 15.0129 13.1738 14.0663C13.1738 13.1196 12.9272 12.7623 12.5685 12.7623C12.2032 12.7623 11.9552 13.1209 11.9552 14.0729Z"
      fill="currentColor" />
    <path fill-rule="evenodd" clip-rule="evenodd"
      d="M21.635 18.3108C21.635 19.8628 20.7937 20.8094 19.4697 20.8094C18.147 20.8094 17.3057 19.8761 17.3057 18.3108C17.3057 16.7388 18.159 15.8428 19.4697 15.8428C20.7817 15.8428 21.635 16.7348 21.635 18.3108ZM18.8643 18.3108C18.8643 19.2574 19.1043 19.6401 19.4697 19.6401C19.835 19.6401 20.0763 19.2561 20.0763 18.3108C20.0763 17.3574 19.835 16.9988 19.4697 16.9988C19.1057 16.9988 18.8643 17.3588 18.8643 18.3108Z"
      fill="currentColor" />
    <path fill-rule="evenodd" clip-rule="evenodd"
      d="M25.431 6.57366C24.8028 5.94385 24.0351 5.471 23.19 5.19347C22.3449 4.91594 21.4462 4.84154 20.567 4.97633C20.0407 4.25971 19.353 3.67717 18.5596 3.27595C17.7662 2.87472 16.8894 2.6661 16.0003 2.667C15.1115 2.66631 14.2349 2.87503 13.4418 3.27625C12.6486 3.67746 11.9611 4.25989 11.435 4.97633C10.5558 4.84154 9.65712 4.91594 8.81202 5.19347C7.96691 5.471 7.19914 5.94385 6.57099 6.57366C5.94249 7.20176 5.47073 7.96904 5.19392 8.81338C4.91711 9.65771 4.84302 10.5554 4.97766 11.4337C4.26115 11.9595 3.67858 12.6467 3.27714 13.4396C2.8757 14.2326 2.66667 15.1089 2.66699 15.9977C2.66699 17.8737 3.57899 19.5337 4.97766 20.563C4.84302 21.4413 4.91711 22.3389 5.19392 23.1833C5.47073 24.0276 5.94249 24.7949 6.57099 25.423C7.19941 26.0528 7.96746 26.5255 8.81281 26.8028C9.65816 27.0801 10.557 27.1542 11.4363 27.019C11.9623 27.7353 12.6496 28.3176 13.4425 28.7188C14.2354 29.12 15.1117 29.3288 16.0003 29.3283C16.8892 29.329 17.7657 29.1203 18.5589 28.7191C19.352 28.3179 20.0395 27.7354 20.5657 27.019C21.4448 27.1539 22.3434 27.0798 23.1885 26.8025C24.0336 26.5252 24.8014 26.0526 25.4297 25.423C26.0584 24.795 26.5304 24.0278 26.8075 23.1835C27.0845 22.3391 27.1588 21.4414 27.0243 20.563C27.741 20.037 28.3237 19.3496 28.7251 18.5564C29.1266 17.7632 29.3355 16.8866 29.335 15.9977C29.3355 15.1087 29.1266 14.2321 28.7251 13.4389C28.3237 12.6457 27.741 11.9583 27.0243 11.4323C27.1588 10.5539 27.0845 9.65621 26.8075 8.81187C26.5304 7.96753 26.0584 7.2003 25.4297 6.57233L25.431 6.57366ZM20.1977 7.12033C20.8506 6.88858 21.5558 6.84654 22.2316 6.9991C22.9074 7.15165 23.5261 7.49255 24.0162 7.98231C24.5062 8.47206 24.8475 9.09063 25.0004 9.76635C25.1533 10.4421 25.1117 11.1473 24.8803 11.8003C24.787 12.0657 24.7417 12.1977 24.7483 12.271C24.7503 12.3373 24.7769 12.4006 24.823 12.4483C24.8697 12.507 24.9963 12.567 25.2483 12.6883C25.8737 12.9864 26.4018 13.4554 26.7716 14.0412C27.1413 14.627 27.3375 15.3056 27.3375 15.9983C27.3375 16.6911 27.1413 17.3696 26.7716 17.9554C26.4018 18.5412 25.8737 19.0103 25.2483 19.3083C24.995 19.4283 24.8697 19.4883 24.8217 19.547C24.7758 19.5948 24.7497 19.6581 24.7483 19.7243C24.7417 19.799 24.7883 19.9297 24.8817 20.1937C25.1132 20.8468 25.1549 21.5523 25.0019 22.2282C24.8489 22.9041 24.5076 23.5228 24.0173 24.0126C23.5271 24.5024 22.9081 24.8433 22.2321 24.9957C21.556 25.1481 20.8506 25.1058 20.1977 24.8737C19.9337 24.7803 19.8017 24.7337 19.7283 24.7403C19.662 24.7422 19.5987 24.7688 19.551 24.815C19.4923 24.8617 19.4323 24.9883 19.311 25.2417C19.013 25.867 18.5439 26.3951 17.9581 26.7649C17.3723 27.1346 16.6937 27.3309 16.001 27.3309C15.3083 27.3309 14.6297 27.1346 14.0439 26.7649C13.4581 26.3951 12.989 25.867 12.691 25.2417C12.571 24.9883 12.5097 24.8617 12.4523 24.815C12.4044 24.7693 12.3412 24.7431 12.275 24.7417C12.2003 24.7337 12.0683 24.7817 11.8043 24.875C11.1514 25.1067 10.4462 25.1488 9.77041 24.9962C9.0946 24.8437 8.47584 24.5028 7.98581 24.013C7.49578 23.5233 7.15453 22.9047 7.00159 22.229C6.84865 21.5533 6.89028 20.848 7.12166 20.195C7.21499 19.9297 7.26166 19.7977 7.25499 19.7243C7.25304 19.658 7.22642 19.5948 7.18033 19.547C7.13366 19.4883 7.00699 19.4283 6.75366 19.307C6.12831 19.009 5.60018 18.5399 5.23043 17.9541C4.86068 17.3683 4.66444 16.6897 4.66444 15.997C4.66444 15.3043 4.86068 14.6257 5.23043 14.0399C5.60018 13.4541 6.12831 12.985 6.75366 12.687C7.00699 12.567 7.13366 12.507 7.18033 12.4483C7.22593 12.4004 7.25207 12.3372 7.25366 12.271C7.26166 12.1977 7.21499 12.0657 7.12166 11.8017C6.89028 11.1486 6.84865 10.4434 7.00159 9.76768C7.15453 9.09196 7.49578 8.47339 7.98581 7.98364C8.47584 7.49389 9.0946 7.15299 9.77041 7.00043C10.4462 6.84788 11.1514 6.88991 11.8043 7.12166C12.0683 7.215 12.2003 7.26166 12.275 7.255C12.3414 7.25317 12.4046 7.22653 12.4523 7.18033C12.5097 7.13366 12.571 7.007 12.6923 6.75366C12.9905 6.12868 13.4596 5.6009 14.0452 5.23142C14.6309 4.86193 15.3092 4.66584 16.0017 4.66584C16.6941 4.66584 17.3724 4.86193 17.9581 5.23142C18.5438 5.6009 19.0128 6.12868 19.311 6.75366C19.4323 7.007 19.4923 7.13366 19.551 7.18033C19.615 7.23366 19.6443 7.247 19.7283 7.25366C19.8017 7.26166 19.935 7.21366 20.199 7.12033H20.1977Z"
      fill="currentColor" />
  </symbol>
  <symbol xmlns="http://www.w3.org/2000/svg" viewBox="0 0 32 32" fill="none" id="icon-transaction">
    <path
      d="M30 11.3333C31.104 11.3333 32 12.2293 32 13.3333V28.6667C32 29.7707 31.104 30.6667 30 30.6667H7.33333C6.22933 30.6667 5.33333 29.7707 5.33333 28.6667V18.792C6.38267 19.1387 7.50267 19.3333 8.66667 19.3333C13.6267 19.3333 17.7947 15.928 18.9813 11.3333H30ZM27.3333 24.9067H10C9.448 24.9067 9 25.3547 9 25.9067C9 26.4587 9.448 26.9067 10 26.9067H27.3333C27.8853 26.9067 28.3333 26.4587 28.3333 25.9067C28.3333 25.3547 27.8853 24.9067 27.3333 24.9067ZM8.66667 0C13.4533 0 17.3333 3.88 17.3333 8.66667C17.3333 13.4533 13.4533 17.3333 8.66667 17.3333C3.88 17.3333 0 13.4533 0 8.66667C0 3.88 3.88 0 8.66667 0ZM10.48 4.488C10.088 4.10267 9.456 4.10267 9.06667 4.49867C8.67733 4.89067 8.68267 5.52533 9.07333 5.91333L10.8507 7.66667H4.044C3.492 7.66667 3.044 8.11467 3.044 8.66667C3.044 9.21867 3.492 9.66667 4.044 9.66667H10.8507L9.07333 11.42C8.68267 11.808 8.67733 12.4427 9.06533 12.8347C9.26133 13.0333 9.51867 13.1333 9.77733 13.1333C10.0307 13.1333 10.2853 13.036 10.4787 12.8453L13.9907 9.37867C14.1827 9.19067 14.2893 8.93333 14.2893 8.66667C14.2893 8.4 14.1827 8.14267 13.9907 7.95467L10.48 4.488Z"
      fill="currentColor" />
  </symbol>
  <symbol xmlns="http://www.w3.org/2000/svg" viewBox="0 0 32 32" fill="none" id="icon-coins">
    <path fill-rule="evenodd" clip-rule="evenodd"
      d="M12.6667 25.6237C8.81333 25.3704 6.07333 24.0277 6 22.3997V19.8837C6.49867 20.2997 7.104 20.6411 7.75733 20.9171C9.084 21.4797 10.7773 21.8424 12.6667 21.9584V25.6224V25.6237ZM12.8267 27.6371C10.8 27.5304 8.956 27.1491 7.49733 26.5317C6.632 26.1664 5.80933 25.6784 5.17467 25.0304C4.54133 24.3864 4.02 23.4931 4 22.3997V6.39974C4 4.32507 5.744 2.94241 7.49733 2.19974C9.23333 1.46641 11.5133 1.06641 14 1.06641C16.4867 1.06641 18.7667 1.46641 20.5027 2.19974C22.2493 2.94107 24 4.33174 24 6.39974V13.0117C26.0627 13.4717 28.6667 14.6997 28.6667 17.1664V26.6637C28.6667 28.4011 27.2293 29.6304 25.7573 30.2717C24.372 30.8744 22.584 31.1917 20.6667 31.1917C18.7493 31.1917 16.9613 30.8744 15.576 30.2717C14.5973 29.8451 13.2787 29.0144 12.8267 27.6357V27.6371ZM21.828 12.7037C21.9413 12.4771 22 12.2411 22 11.9997V8.95041C21.4677 9.37901 20.8757 9.72758 20.2427 9.98507C18.6107 10.6757 16.424 11.0651 14 11.0651C11.576 11.0651 9.38933 10.6757 7.75733 9.98507C7.12432 9.72756 6.53229 9.37899 6 8.95041V11.9997C6 13.7397 9.04267 15.1691 13.256 15.3197C13.82 14.4984 14.6907 13.9384 15.5947 13.5571C16.9747 12.9731 18.7547 12.6664 20.6667 12.6664C21.06 12.6664 21.448 12.6797 21.828 12.7051V12.7037ZM12.7133 16.6291C10.8053 16.5157 9.09467 16.1504 7.75733 15.5837C7.1244 15.3266 6.53239 14.9785 6 14.5504V17.3331C6 18.9904 8.76133 20.3664 12.6667 20.6224V17.1664C12.6667 16.9797 12.6827 16.8011 12.7133 16.6291ZM14 3.06641C9.40533 3.06641 6 4.55974 6 6.39974C6 8.23974 9.40533 9.73307 14 9.73307C18.5947 9.73307 22 8.23974 22 6.39974C22 4.55974 18.5947 3.06641 14 3.06641ZM14.6667 17.1664C14.6667 18.5464 17.22 19.6664 20.6667 19.6664C24.1067 19.6664 26.656 18.5437 26.6667 17.1664C26.6667 15.7851 24.1133 14.6664 20.6667 14.6664C17.22 14.6664 14.6667 15.7864 14.6667 17.1664ZM26.6667 19.5024C26.308 19.7651 25.9027 19.9824 25.4787 20.1611C24.2027 20.7011 22.516 20.9997 20.6667 20.9997C18.8173 20.9997 17.1307 20.7011 15.8547 20.1611C15.4346 19.988 15.036 19.767 14.6667 19.5024V21.9997C14.7813 23.3357 17.3 24.4037 20.6667 24.4037C24.0333 24.4037 26.5467 23.3357 26.6627 21.9997L26.6667 19.5024ZM14.6667 26.6464V24.2397C15.0253 24.5024 15.4307 24.7197 15.8547 24.8997C17.1307 25.4397 18.8173 25.7371 20.6667 25.7371C22.516 25.7371 24.2027 25.4397 25.4787 24.8997C25.9027 24.7197 26.308 24.5024 26.6667 24.2397V26.6464C26.6333 28.0544 24.0907 29.1904 20.6667 29.1904C17.2427 29.1904 14.7 28.0544 14.6667 26.6464Z"
      fill="currentColor" />
  </symbol>
  <symbol xmlns="http://www.w3.org/2000/svg" viewBox="0 0 32 32" fill="none" id="icon-notifications">
    <path fill-rule="evenodd" clip-rule="evenodd"
      d="M6.09207 17.5403C5.67741 18.763 4.85074 19.615 4.11341 20.375C3.24941 21.2643 2.50941 22.0283 2.69607 23.1097C2.96941 24.695 5.04807 24.675 6.21874 24.6657L11.0107 24.663C11.0936 25.9299 11.6553 27.1178 12.5819 27.9857C13.5085 28.8536 14.7305 29.3366 16.0001 29.3366C17.2696 29.3366 18.4917 28.8536 19.4183 27.9857C20.3448 27.1178 20.9065 25.9299 20.9894 24.663L25.7814 24.6657C26.9521 24.6763 29.0307 24.695 29.3041 23.1097C29.4907 22.027 28.7507 21.2643 27.8867 20.375C27.1494 19.615 26.3227 18.7617 25.9081 17.5403C25.3841 15.9937 25.1254 13.3337 24.6667 10.6163C24.0001 6.66699 21.3334 2.66699 16.0001 2.66699C10.6667 2.66699 8.00007 6.66699 7.33341 10.6163C6.89074 13.2363 6.61607 15.9937 6.09207 17.5417V17.5403ZM4.80007 22.5937C4.93341 22.4137 5.16941 22.1577 5.56141 21.7563C6.27874 21.023 7.41874 19.8577 7.98541 18.1843C8.76941 15.8737 8.90141 13.3443 9.30541 10.951C9.58807 9.27233 10.2841 7.68166 11.3681 6.53766C12.4107 5.43766 13.8881 4.66699 16.0001 4.66699C18.1121 4.66699 19.5894 5.43766 20.6321 6.53633C21.7161 7.68033 22.4107 9.27099 22.6947 10.9497C23.1001 13.3537 23.2281 15.8657 24.0147 18.183C24.5814 19.8563 25.7214 21.0203 26.4387 21.755C26.8307 22.155 27.0654 22.4123 27.1987 22.5923C26.6521 22.6977 26.0854 22.663 25.5321 22.663H6.46807C5.91341 22.663 5.34674 22.6977 4.79874 22.5923L4.80007 22.5937ZM18.9827 24.6643H13.0174C13.0968 25.3999 13.4453 26.0803 13.9958 26.5746C14.5464 27.0689 15.2602 27.3423 16.0001 27.3423C16.74 27.3423 17.4538 27.0689 18.0043 26.5746C18.5549 26.0803 18.9033 25.3999 18.9827 24.6643Z"
      fill="currentColor" />
  </symbol>
  <symbol xmlns="http://www.w3.org/2000/svg" viewBox="0 0 32 32" fill="none" id="icon-terminal">
    <path
      d="M12.2172 7.38166L11.0292 10.411C10.8959 10.7483 10.8292 10.9177 10.8706 11.051C10.8942 11.1283 10.9407 11.1966 11.0039 11.247C11.1132 11.3337 11.2946 11.3337 11.6572 11.3337H15.4012C15.7026 11.3337 15.8546 11.3337 15.9826 11.2777C16.0581 11.2444 16.1268 11.1974 16.1852 11.139C16.2839 11.0403 16.3399 10.899 16.4492 10.619L17.6386 7.58966C17.7706 7.25233 17.8372 7.08299 17.7959 6.94966C17.7723 6.87235 17.7258 6.80402 17.6626 6.75366C17.5532 6.66699 17.3719 6.66699 17.0092 6.66699H13.2652C12.9639 6.66699 12.8119 6.66699 12.6839 6.72299C12.6083 6.75627 12.5396 6.80329 12.4812 6.86166C12.3826 6.96033 12.3266 7.10166 12.2172 7.38166Z"
      fill="currentColor" />
    <path
      d="M9.58014 14.4117L9.72014 14.0503C9.8308 13.7677 9.88547 13.6277 9.98414 13.5277C10.0429 13.4691 10.1121 13.4221 10.1881 13.389C10.3161 13.333 10.4668 13.333 10.7695 13.333H12.4841C12.8455 13.333 13.0268 13.333 13.1361 13.4197C13.1994 13.47 13.2459 13.5384 13.2695 13.6157C13.3108 13.749 13.2455 13.917 13.1135 14.2557L12.9721 14.6157C12.8628 14.8983 12.8081 15.0383 12.7081 15.1383C12.6498 15.1967 12.581 15.2438 12.5055 15.277C12.3775 15.333 12.2255 15.333 11.9228 15.333H10.2095C9.8468 15.333 9.6668 15.333 9.55614 15.2463C9.49291 15.196 9.44642 15.1276 9.4228 15.0503C9.3828 14.917 9.44814 14.749 9.58014 14.4103V14.4117Z"
      fill="currentColor" />
    <path fill-rule="evenodd" clip-rule="evenodd"
      d="M9.44 4.09899L4.232 17.4057C4.13867 17.6483 4.09067 17.7683 4.05867 17.8937C4.0401 17.9683 4.02585 18.044 4.016 18.1203C4 18.2497 4 18.3803 4 18.639V27.0817C4 27.9417 4 28.3723 4.19067 28.6897C4.30303 28.8755 4.45911 29.0312 4.64533 29.143C4.96267 29.335 5.392 29.335 6.25333 29.335H24.4133C25.2733 29.335 25.704 29.335 26.0213 29.1443C26.2072 29.032 26.3628 28.8759 26.4747 28.6897C26.6667 28.3723 26.6667 27.943 26.6667 27.0817V4.92033C26.6667 4.06033 26.6667 3.62966 26.476 3.31233C26.3636 3.12644 26.2076 2.97081 26.0213 2.85899C25.704 2.66699 25.2747 2.66699 24.4133 2.66699H11.5373C10.9333 2.66699 10.6307 2.66699 10.3747 2.77899C10.2231 2.8454 10.0852 2.93944 9.968 3.05633C9.77067 3.25366 9.66 3.53633 9.44 4.09899ZM6 18.379L11.3333 4.66699C14.628 4.66699 17.924 4.66033 21.2187 4.66166L16.232 17.4057C16.1387 17.647 16.0907 17.7683 16.0587 17.8937C16.0401 17.9683 16.0259 18.044 16.016 18.1203C16 18.2483 16 18.3777 16 18.6377C16 21.5403 15.992 24.443 16 27.3457C12.6667 27.3457 9.33333 27.343 6 27.3323C5.992 24.435 6.00133 21.2763 6.00133 18.3777L6 18.379ZM24.6667 27.3337C24.6867 19.7777 24.6867 12.223 24.6667 4.66699C24.232 4.66699 23.8 4.66166 23.3653 4.66699C21.5987 9.15233 19.7587 13.8883 18.0013 18.3777V27.3337C20.2053 27.339 22.4467 27.339 24.6667 27.3337Z"
      fill="currentColor" />
  </symbol>
  <symbol xmlns="http://www.w3.org/2000/svg" viewBox="0 0 32 32" fill="none" id="icon-phone">
    <path
      d="M14.1602 25.1663C14.1602 24.9256 14.2076 24.6872 14.2997 24.4648C14.3918 24.2423 14.5269 24.0402 14.6971 23.87C14.8674 23.6997 15.0695 23.5647 15.2919 23.4726C15.5143 23.3804 15.7527 23.333 15.9935 23.333C16.2342 23.333 16.4726 23.3804 16.6951 23.4726C16.9175 23.5647 17.1196 23.6997 17.2899 23.87C17.4601 24.0402 17.5951 24.2423 17.6873 24.4648C17.7794 24.6872 17.8268 24.9256 17.8268 25.1663C17.8268 25.6526 17.6337 26.1189 17.2899 26.4627C16.946 26.8065 16.4797 26.9997 15.9935 26.9997C15.5073 26.9997 15.0409 26.8065 14.6971 26.4627C14.3533 26.1189 14.1602 25.6526 14.1602 25.1663Z"
      fill="currentColor" />
    <path fill-rule="evenodd" clip-rule="evenodd"
      d="M23.7193 1.81034C22.926 1.33301 21.8487 1.33301 19.698 1.33301H12.298C10.1473 1.33301 9.07135 1.33301 8.27935 1.81034C7.81308 2.09093 7.42261 2.48141 7.14202 2.94767C6.66602 3.74101 6.66602 4.81567 6.66602 6.96634V25.033C6.66602 27.1837 6.66602 28.2597 7.14335 29.053C7.42335 29.5183 7.81402 29.909 8.28068 30.189C9.07402 30.6663 10.1487 30.6663 12.2993 30.6663H19.6993C21.85 30.6663 22.926 30.6663 23.718 30.189C24.1841 29.9088 24.5746 29.5188 24.8553 29.053C25.3327 28.2597 25.3327 27.1837 25.3327 25.033V6.96634C25.3327 4.81567 25.3327 3.73967 24.8553 2.94767C24.5751 2.48157 24.1851 2.0911 23.7193 1.81034ZM23.3327 25.033V6.96634C23.3327 5.85301 23.33 5.15567 23.282 4.63434C23.2353 4.14101 23.162 4.01167 23.142 3.97834C23.0296 3.79245 22.8736 3.63683 22.6873 3.52501C22.654 3.50367 22.5247 3.43034 22.0313 3.38367C21.51 3.33567 20.778 3.33301 19.666 3.33301C19.6633 4.02767 19.646 4.40234 19.4753 4.68767C19.363 4.87356 19.2069 5.02919 19.0207 5.14101C18.7033 5.33301 18.274 5.33301 17.4127 5.33301H14.586C13.726 5.33301 13.2953 5.33301 12.978 5.14234C12.7921 5.02997 12.6365 4.87389 12.5247 4.68767C12.3513 4.40234 12.3353 4.02767 12.3327 3.33301C11.2193 3.33301 10.4887 3.33567 9.96735 3.38367C9.47402 3.43034 9.34468 3.50367 9.31135 3.52367C9.12546 3.63604 8.96984 3.79212 8.85802 3.97834C8.83668 4.01167 8.76335 4.14101 8.71668 4.63434C8.66868 5.15567 8.66602 5.85301 8.66602 6.96634V25.033C8.66602 26.1463 8.66868 26.8437 8.71668 27.365C8.76335 27.8583 8.83668 27.9877 8.85668 28.021C8.96905 28.2069 9.12513 28.3625 9.31135 28.4743C9.34468 28.4957 9.47402 28.569 9.96735 28.6157C10.4887 28.665 11.186 28.6663 12.2993 28.6663H19.6993C20.8127 28.6663 21.51 28.6637 22.0313 28.6157C22.5247 28.569 22.654 28.4957 22.6873 28.4757C22.8732 28.3633 23.0289 28.2072 23.1407 28.021C23.162 27.9877 23.2353 27.8583 23.282 27.365C23.3313 26.8437 23.3327 26.1463 23.3327 25.033Z"
      fill="currentColor" />
  </symbol>
  <symbol xmlns="http://www.w3.org/2000/svg" viewBox="0 0 12 12" fill="none" id="icon-check">
    <g clip-path="url(#clip0_5274_2838)">
      <path
        d="M11.7212 1.96136C11.3499 1.58959 10.747 1.58982 10.3752 1.96136L4.31744 8.01936L1.62503 5.32697C1.25325 4.95519 0.650609 4.95519 0.278832 5.32697C-0.0929441 5.69874 -0.0929441 6.30139 0.278832 6.67316L3.6442 10.0385C3.82998 10.2243 4.07357 10.3174 4.31719 10.3174C4.5608 10.3174 4.80463 10.2245 4.9904 10.0385L11.7212 3.30753C12.0929 2.93602 12.0929 2.33311 11.7212 1.96136Z"
        fill="currentColor" />
    </g>
    <defs>
      <clipPath id="clip0_5274_2838">
        <rect width="12" height="12" fill="white" />
      </clipPath>
    </defs>
  </symbol>
  <symbol xmlns="http://www.w3.org/2000/svg" viewBox="0 0 20 20" fill="none" id="icon-circle-check">
    <path
      d="M13.7433 7.30333C13.7884 7.23477 13.8196 7.15799 13.8351 7.07737C13.8506 6.99675 13.85 6.91387 13.8335 6.83347C13.8169 6.75306 13.7847 6.67671 13.7386 6.60877C13.6925 6.54083 13.6335 6.48263 13.5649 6.43749C13.4259 6.34791 13.2573 6.31649 13.0954 6.35C12.9334 6.38351 12.7911 6.47927 12.6991 6.61666C12.0549 7.53999 9.21994 12.1942 9.21994 12.1942L7.48494 10.0642C7.43346 9.99962 7.3697 9.94592 7.29735 9.90616C7.225 9.8664 7.14549 9.84136 7.06341 9.8325C6.98133 9.82364 6.89831 9.83113 6.81914 9.85454C6.73997 9.87794 6.66622 9.9168 6.60215 9.96887C6.53809 10.0209 6.48497 10.0852 6.44587 10.1579C6.40677 10.2306 6.38247 10.3103 6.37436 10.3925C6.36625 10.4747 6.3745 10.5576 6.39863 10.6366C6.42276 10.7155 6.46229 10.7889 6.51494 10.8525L8.09827 12.8083C8.62161 13.455 8.88411 13.7783 9.21744 13.7817C9.24865 13.7818 9.27983 13.7798 9.31077 13.7758C9.64244 13.735 9.86577 13.3842 10.3133 12.6825L13.7433 7.30333Z"
      fill="currentColor" />
    <path fill-rule="evenodd" clip-rule="evenodd"
      d="M10.0001 18.3337C14.6026 18.3337 18.3334 14.6028 18.3334 10.0003C18.3334 5.39783 14.6026 1.66699 10.0001 1.66699C5.39758 1.66699 1.66675 5.39783 1.66675 10.0003C1.66675 14.6028 5.39758 18.3337 10.0001 18.3337ZM17.0834 10.0003C17.0834 11.8789 16.3371 13.6806 15.0088 15.009C13.6804 16.3374 11.8787 17.0837 10.0001 17.0837C8.12146 17.0837 6.31979 16.3374 4.99141 15.009C3.66303 13.6806 2.91675 11.8789 2.91675 10.0003C2.91675 8.12171 3.66303 6.32004 4.99141 4.99165C6.31979 3.66327 8.12146 2.91699 10.0001 2.91699C11.8787 2.91699 13.6804 3.66327 15.0088 4.99165C16.3371 6.32004 17.0834 8.12171 17.0834 10.0003Z"
      fill="currentColor" />
  </symbol>
  <symbol xmlns="http://www.w3.org/2000/svg" viewBox="0 0 32 32" fill="none" id="icon-question">
    <path
      d="M16.6745 17.9182C16.5825 18.5209 16.2745 18.8942 15.6532 18.8942C14.9599 18.8942 14.5785 18.4009 14.5785 17.7369V17.5636C14.5785 16.4329 15.1425 15.6863 16.2825 15.0116C17.4132 14.3276 17.7959 13.8263 17.7959 12.9516C17.7959 11.9583 17.0212 11.2649 15.8999 11.2649C14.8879 11.2649 14.2132 11.7663 13.9212 12.6876C13.7212 13.2516 13.3839 13.4796 12.8825 13.4796C12.2532 13.4796 11.8799 13.0969 11.8799 12.4863C11.8799 12.0943 11.9625 11.7569 12.1359 11.4116C12.6999 10.1716 14.1225 9.40625 15.9999 9.40625C18.4692 9.40625 20.1652 10.8089 20.1652 12.8689C20.1652 14.2636 19.4719 15.2209 18.2319 15.9596C17.0385 16.6529 16.7465 17.0889 16.6745 17.9196V17.9182Z"
      fill="currentColor" />
    <path
      d="M16.9933 21.5549C16.9933 22.2749 16.4106 22.8482 15.672 22.8482C15.4995 22.8514 15.3281 22.8204 15.1676 22.757C15.0072 22.6935 14.8609 22.599 14.7372 22.4788C14.6135 22.3585 14.5148 22.215 14.4469 22.0564C14.3789 21.8978 14.343 21.7274 14.3413 21.5549C14.3413 20.8349 14.9333 20.2695 15.672 20.2695C16.4106 20.2695 16.9933 20.8349 16.9933 21.5549Z"
      fill="currentColor" />
    <path fill-rule="evenodd" clip-rule="evenodd"
      d="M16.0003 29.3346C23.3643 29.3346 29.3337 23.3653 29.3337 16.0013C29.3337 8.6373 23.3643 2.66797 16.0003 2.66797C8.63633 2.66797 2.66699 8.6373 2.66699 16.0013C2.66699 23.3653 8.63633 29.3346 16.0003 29.3346ZM27.3337 16.0013C27.3337 19.0071 26.1396 21.8898 24.0142 24.0152C21.8888 26.1406 19.0061 27.3346 16.0003 27.3346C12.9945 27.3346 10.1119 26.1406 7.98645 24.0152C5.86104 21.8898 4.66699 19.0071 4.66699 16.0013C4.66699 12.9955 5.86104 10.1128 7.98645 7.98743C10.1119 5.86201 12.9945 4.66797 16.0003 4.66797C19.0061 4.66797 21.8888 5.86201 24.0142 7.98743C26.1396 10.1128 27.3337 12.9955 27.3337 16.0013Z"
      fill="currentColor" />
  </symbol>
  <symbol xmlns="http://www.w3.org/2000/svg" viewBox="0 0 16 16" fill="none" id="icon-location">
    <path fill-rule="evenodd" clip-rule="evenodd"
      d="M13.6869 2.31248C13.8296 2.45521 13.8725 2.66976 13.7957 2.85641L9.12901 14.1897C9.05236 14.3759 8.87154 14.4979 8.67024 14.4994C8.46893 14.5008 8.28639 14.3814 8.20709 14.1963L6.28588 9.71349L1.80304 7.79227C1.61801 7.71297 1.49858 7.53043 1.50001 7.32913C1.50145 7.12782 1.62348 6.94701 1.80963 6.87036L13.143 2.20369C13.3296 2.12684 13.5442 2.16975 13.6869 2.31248ZM3.29081 7.34192L6.86363 8.87312C6.98163 8.9237 7.07566 9.01773 7.12624 9.13574L8.65745 12.7086L12.4141 3.58527L3.29081 7.34192Z"
      fill="currentColor" />
  </symbol>
  <symbol id="icon-check-circle" viewBox="0 0 20 20" fill="none" xmlns="http://www.w3.org/2000/svg">
    <path
      d="M13.743 7.30235C13.7882 7.23379 13.8194 7.15701 13.8349 7.07639C13.8503 6.99577 13.8498 6.91289 13.8332 6.83249C13.8167 6.75209 13.7844 6.67573 13.7383 6.60779C13.6923 6.53985 13.6333 6.48165 13.5647 6.43652C13.4257 6.34694 13.2571 6.31552 13.0951 6.34903C12.9332 6.38254 12.7909 6.47829 12.6989 6.61568C12.0547 7.53902 9.2197 12.1932 9.2197 12.1932L7.4847 10.0632C7.43322 9.99864 7.36946 9.94494 7.29711 9.90518C7.22476 9.86542 7.14525 9.84038 7.06317 9.83153C6.98109 9.82267 6.89806 9.83016 6.81889 9.85356C6.73972 9.87697 6.66598 9.91583 6.60191 9.9679C6.53784 10.02 6.48473 10.0842 6.44563 10.1569C6.40653 10.2296 6.38223 10.3094 6.37412 10.3915C6.36601 10.4737 6.37426 10.5566 6.39838 10.6356C6.42251 10.7145 6.46205 10.7879 6.5147 10.8515L8.09803 12.8073C8.62136 13.454 8.88386 13.7773 9.2172 13.7807C9.2484 13.7808 9.27958 13.7789 9.31053 13.7748C9.6422 13.734 9.86553 13.3832 10.313 12.6815L13.743 7.30235Z"
      fill="currentColor" />
    <path fill-rule="evenodd" clip-rule="evenodd"
      d="M10.0003 18.3346C14.6028 18.3346 18.3337 14.6038 18.3337 10.0013C18.3337 5.3988 14.6028 1.66797 10.0003 1.66797C5.39783 1.66797 1.66699 5.3988 1.66699 10.0013C1.66699 14.6038 5.39783 18.3346 10.0003 18.3346ZM17.0837 10.0013C17.0837 11.8799 16.3374 13.6816 15.009 15.01C13.6806 16.3384 11.8789 17.0846 10.0003 17.0846C8.12171 17.0846 6.32004 16.3384 4.99165 15.01C3.66327 13.6816 2.91699 11.8799 2.91699 10.0013C2.91699 8.12268 3.66327 6.32101 4.99165 4.99263C6.32004 3.66425 8.12171 2.91797 10.0003 2.91797C11.8789 2.91797 13.6806 3.66425 15.009 4.99263C16.3374 6.32101 17.0837 8.12268 17.0837 10.0013Z"
      fill="currentColor" />
  </symbol>
</svg>