<svg width="46" height="14" viewBox="0 0 46 14" fill="none" xmlns="http://www.w3.org/2000/svg">
<path d="M16.5974 6.99673L28.8845 1.51336L28.8845 1.51338L28.8862 1.51255C29.0031 1.45764 29.104 1.36653 29.0999 1.24056C29.0958 1.11648 28.9915 1.02948 28.8724 0.977701L28.8724 0.977697L28.8715 0.977322C28.7467 0.924478 28.5926 0.9 28.443 0.9C28.2935 0.9 28.1393 0.924478 28.0145 0.977322L28.0145 0.977305L28.0128 0.978089L15.1232 6.73032C15.0044 6.78334 14.9 6.87217 14.9 6.99795C14.9 7.12373 15.0044 7.21257 15.1232 7.26559L28.0127 13.0178L28.0127 13.0178L28.0145 13.0186C28.1424 13.0728 28.301 13.0972 28.4534 13.0962C28.6057 13.0952 28.7622 13.0688 28.8853 13.0124L28.8862 13.012C29.0003 12.9584 29.0992 12.8703 29.0992 12.7477C29.0992 12.6251 29.0003 12.537 28.8862 12.4834L28.8862 12.4834L28.8844 12.4826L16.5974 6.99673Z" fill="#1919EF" stroke="#1919EF" stroke-width="0.2"/>
<path d="M30.5974 6.99673L42.8845 1.51336L42.8845 1.51338L42.8862 1.51255C43.0031 1.45764 43.104 1.36653 43.0999 1.24056C43.0958 1.11648 42.9915 1.02948 42.8724 0.977701L42.8724 0.977697L42.8715 0.977322C42.7467 0.924478 42.5926 0.9 42.443 0.9C42.2935 0.9 42.1393 0.924478 42.0145 0.977322L42.0145 0.977305L42.0128 0.978089L29.1232 6.73032C29.0044 6.78334 28.9 6.87217 28.9 6.99795C28.9 7.12373 29.0044 7.21257 29.1232 7.26559L42.0127 13.0178L42.0127 13.0178L42.0145 13.0186C42.1424 13.0728 42.301 13.0972 42.4534 13.0962C42.6057 13.0952 42.7622 13.0688 42.8853 13.0124L42.8862 13.012C43.0003 12.9584 43.0992 12.8703 43.0992 12.7477C43.0992 12.6251 43.0003 12.537 42.8862 12.4834L42.8862 12.4834L42.8844 12.4826L30.5974 6.99673Z" fill="#1919EF" stroke="#1919EF" stroke-width="0.2"/>
<path d="M2.59727 6.99983L14.8845 1.51358L14.8845 1.51359L14.8863 1.51276C15.0032 1.45781 15.104 1.36666 15.0999 1.24069C15.0958 1.1166 14.9915 1.02956 14.8724 0.977745L14.8724 0.977741L14.8715 0.977366C14.7467 0.924492 14.5926 0.9 14.443 0.9C14.2935 0.9 14.1393 0.924492 14.0145 0.977366L14.0145 0.977349L14.0128 0.978126L1.12317 6.73086L1.12315 6.73087C1.00432 6.78393 0.9 6.8728 0.9 6.99859C0.9 7.12437 1.00432 7.21325 1.12315 7.26631L14.0128 13.0215L14.0128 13.0215L14.0145 13.0223C14.1424 13.0765 14.301 13.101 14.4535 13.1C14.6057 13.099 14.7623 13.0726 14.8854 13.0161L14.8863 13.0157C15.0004 12.962 15.0992 12.8739 15.0992 12.7513C15.0992 12.6287 15.0004 12.5406 14.8863 12.4869L14.8863 12.4869L14.8845 12.4861L2.59727 6.99983Z" fill="#1919EF" stroke="#1919EF" stroke-width="0.2"/>
</svg>
