<svg width="354" height="19" viewBox="0 0 354 19" fill="none" xmlns="http://www.w3.org/2000/svg">
<g clip-path="url(#clip0_6961_83)">
<path d="M16.6288 0.406982V2.28698H2.47281V17.479H0.132812V0.406982H16.6288Z" fill="black"/>
<path d="M2.607 17.6131H0V0.279053H16.763V2.42005H2.607V17.6131ZM0.26 17.3511H2.34V2.15805H16.502V0.541053H0.262V17.3511H0.26ZM26.549 0.407053L37.13 17.4801H34.64L31.456 12.3341H18.506L15.326 17.4801H13.01L23.587 0.407053H26.549ZM30.345 10.5491L24.993 1.89605L19.618 10.5541H30.345V10.5491Z" fill="black"/>
<path d="M37.3651 17.6129H34.5641L31.3791 12.4669H18.5741L15.3941 17.6129H12.7661L23.5151 0.279893H26.6221L26.6601 0.341893L37.3651 17.6129ZM34.7081 17.3509H36.8931L26.4701 0.540893H23.6601L13.2451 17.3509H15.2571L18.4361 12.2049H31.5301L34.7151 17.3509H34.7081ZM30.5781 10.6889H19.3801L24.9931 1.64489L30.5791 10.6879L30.5781 10.6889ZM19.8521 10.4259H30.1061L24.9931 2.14089L19.8521 10.4209V10.4259ZM40.6801 12.9299C41.6631 15.1319 44.4751 15.9459 49.6051 15.9459C55.1301 15.9459 58.0151 14.9309 58.0151 12.8509V12.3329C58.0151 10.5489 55.9411 9.58389 52.0951 9.58389H44.3251V7.84989H52.0951C55.3021 7.84989 57.4981 6.93589 57.4981 5.12989V4.70989C57.4981 2.52989 54.5131 1.91689 49.6051 1.91689C44.6981 1.91689 41.6411 2.60889 40.9741 4.70989H38.6281C39.4951 1.39989 43.0251 0.139893 49.6111 0.139893C56.5411 0.139893 59.8491 1.69989 59.8491 4.78989C59.8491 6.86989 58.1701 8.17989 56.0031 8.55289C58.4431 8.99889 60.3431 10.1359 60.3431 12.6119C60.3431 16.1019 56.7421 17.7579 49.6161 17.7579C43.0301 17.7579 39.4061 16.3979 38.3671 12.9349H40.6851L40.6801 12.9299Z" fill="black"/>
<path d="M49.6109 17.886C42.7639 17.886 39.2569 16.369 38.2399 12.968L38.1899 12.801H40.7679L40.8019 12.879C41.7239 14.942 44.3589 15.817 49.6109 15.817C54.8629 15.817 57.8919 14.819 57.8919 12.857V12.338C57.8919 10.064 54.2629 9.723 52.1059 9.723H44.2099V7.727H52.1069C55.4089 7.727 57.3769 6.757 57.3769 5.135V4.717C57.3769 2.849 55.0529 2.052 49.6169 2.052C44.1819 2.052 41.7089 2.86 41.1079 4.756L41.0809 4.845H38.4739L38.5179 4.678C39.3729 1.399 42.6909 0 49.6219 0C56.5519 0 59.9879 1.567 59.9879 4.784C59.9879 6.596 58.7209 7.995 56.6419 8.541C59.1919 9.155 60.4819 10.521 60.4819 12.601C60.4819 16.151 56.9309 17.881 49.6219 17.881L49.6109 17.886ZM38.5449 13.063C39.5899 16.213 43.0189 17.623 49.6109 17.623C56.7409 17.623 60.2099 15.984 60.2099 12.611C60.2099 10.515 58.7869 9.194 55.9749 8.681L55.2409 8.547L55.9749 8.419C58.2809 8.023 59.7149 6.635 59.7149 4.789C59.7149 1.745 56.4079 0.268 49.6109 0.268C42.8139 0.268 39.6959 1.561 38.8059 4.583H40.8859C41.5799 2.598 44.1259 1.79 49.6109 1.79C55.0969 1.79 57.6369 2.665 57.6369 4.717V5.135C57.6369 6.919 55.5689 7.989 52.1009 7.989H44.4639V9.456H52.1009C57.1029 9.456 58.1539 11.023 58.1539 12.333V12.851C58.1539 14.992 55.2799 16.074 49.6109 16.074C44.3029 16.074 41.6019 15.17 40.5959 13.057H38.5399L38.5449 13.063ZM85.1439 0.892V17.964H82.7999V2.776H67.0639V17.964H64.7199V0.892H85.1439Z" fill="black"/>
<path d="M85.2729 18.0979H82.6659V2.90492H67.1929V18.0979H64.5859V0.763916H85.2729V18.0979ZM82.9269 17.8359H85.0059V1.02592H64.8469V17.8359H66.9259V2.64292H82.9219V17.8359H82.9269ZM105.269 0.891916C109.488 0.891916 111.339 2.99392 111.339 6.41192C111.339 9.82892 109.488 11.9759 105.269 11.9759H93.2089V17.9639H90.8629V0.891916H105.269ZM109.021 6.21092C109.021 3.98592 107.859 2.69792 105.075 2.69792H93.2089V10.1689H105.075C107.859 10.1689 109.021 8.88092 109.021 6.70692V6.21092Z" fill="black"/>
<path d="M93.337 18.098H90.731V0.764H105.264C109.322 0.764 111.462 2.716 111.462 6.412C111.462 10.109 109.316 12.11 105.264 12.11H93.337V18.098ZM90.992 17.836H93.07V11.848H105.264C109.149 11.848 111.2 9.969 111.2 6.412C111.2 2.855 109.205 1.026 105.264 1.026H90.992V17.836ZM105.064 10.304H93.07V2.57H105.064C107.771 2.57 109.144 3.796 109.144 6.216V6.712C109.144 9.099 107.771 10.308 105.064 10.308V10.304ZM93.332 10.042H105.064C107.632 10.042 108.877 8.949 108.877 6.708V6.212C108.877 3.937 107.627 2.827 105.064 2.827H93.332V10.042ZM127.368 0.625C135.754 0.625 140.145 3.073 140.145 9.485C140.145 15.896 135.754 18.244 127.368 18.244C118.981 18.244 114.59 15.696 114.59 9.484C114.59 3.274 118.981 0.625 127.368 0.625ZM137.828 8.788C137.828 4.361 134.298 2.454 127.368 2.454C120.437 2.454 116.908 4.334 116.908 8.788V10.048C116.908 14.425 120.409 16.404 127.368 16.404C134.326 16.404 137.828 14.447 137.828 10.048V8.788Z" fill="black"/>
<path d="M127.368 18.3719C118.565 18.3719 114.463 15.5449 114.463 9.47894C114.463 3.41294 118.442 0.491943 127.368 0.491943C136.294 0.491943 140.274 3.26194 140.274 9.47894C140.274 15.6959 136.172 18.3719 127.368 18.3719ZM127.368 0.753943C118.626 0.753943 114.724 3.44694 114.724 9.47894C114.724 15.5119 118.743 18.1039 127.368 18.1039C135.994 18.1039 140.013 15.3609 140.013 9.47894C140.013 3.59694 136.117 0.753943 127.368 0.753943ZM127.368 16.5379C120.243 16.5379 116.781 14.4129 116.781 10.0479V8.78794C116.781 4.37794 120.143 2.31994 127.368 2.31994C134.594 2.31994 137.956 4.37194 137.956 8.78794V10.0479C137.956 14.4129 134.494 16.5379 127.368 16.5379ZM127.368 2.58194C120.321 2.58194 117.042 4.55594 117.042 8.78194V10.0419C117.042 14.2909 120.321 16.2699 127.368 16.2699C134.416 16.2699 137.695 14.2899 137.695 10.0419V8.78194C137.695 4.55094 134.416 2.58194 127.368 2.58194ZM166.441 2.50294L157.982 15.3709H155.414L146.955 2.55394V17.9639H144.832V0.891943H148.261L156.771 13.8099L165.302 0.891943H168.753V17.9639H166.436V2.50394L166.441 2.50294Z" fill="black"/>
<path d="M168.887 18.0979H166.309V2.94492L158.049 15.5049H155.343L155.304 15.4449L147.084 2.99492V18.0979H144.699V0.76492H148.329L156.766 13.5709L165.236 0.76492H168.893V18.0979H168.887ZM166.57 17.8359H168.626V1.02592H165.375L156.771 14.0509L156.66 13.8829L148.19 1.02692H144.96V17.8369H146.817V2.11292L155.476 15.2369H157.899L166.564 2.06292V17.8349H166.57V17.8359ZM192.941 0.61792V2.37492H175.972V7.74392H188.378C192.302 7.74392 194.075 9.54992 194.075 12.6939C194.075 15.8389 192.296 17.6899 188.378 17.6899H173.627V0.61792H192.941ZM191.735 12.3709C191.735 10.7149 190.651 9.47792 187.889 9.47792H175.978V15.9619H187.889C190.651 15.9619 191.735 14.7519 191.735 13.0179V12.3709Z" fill="black"/>
<path d="M188.377 17.825H173.498V0.490967H193.073V2.50997H176.105V7.61697H188.382C192.251 7.61697 194.213 9.32797 194.213 12.696C194.213 16.063 192.195 17.826 188.382 17.826L188.377 17.825ZM173.759 17.563H188.377C192.073 17.563 193.946 15.924 193.946 12.696C193.946 9.46797 192.073 7.87897 188.377 7.87897H175.838V2.24797H192.806V0.752967H173.754V17.563H173.759ZM187.882 16.097H175.838V9.34997H187.882C191.345 9.34997 191.861 11.245 191.861 12.377V13.018C191.861 14.423 191.172 16.097 187.882 16.097ZM176.099 15.835H187.882C190.311 15.835 191.6 14.865 191.6 13.025V12.384C191.6 10.577 190.316 9.61797 187.882 9.61797H176.099V15.835ZM209.318 0.617967L219.901 17.69H217.411L214.226 12.544H201.276L198.097 17.69H195.779L206.356 0.617967H209.318ZM213.115 10.76L207.762 2.09997L202.388 10.759H213.115V10.76Z" fill="black"/>
<path d="M220.135 17.825H217.333L214.149 12.679H201.343L198.164 17.825H195.535L206.284 0.490967H209.391L209.43 0.552967L220.135 17.825ZM217.478 17.563H219.662L209.247 0.752967H206.434L196.019 17.563H198.031L201.21 12.417H214.304L217.489 17.563H217.478ZM213.348 10.901H202.149L207.763 1.85697L213.348 10.901ZM202.622 10.639H212.876L207.757 2.35897L202.616 10.639H202.622ZM225.597 0.617967V7.72097H241.727V0.617967H244.044V17.69H241.727V9.59997H225.597V17.69H223.252V0.617967H225.597Z" fill="black"/>
<path d="M244.178 17.825H241.6V9.73499H225.732V17.825H223.125V0.49099H225.732V7.58999H241.6V0.48999H244.178V17.824V17.825ZM241.861 17.563H243.917V0.75299H241.861V7.85599H225.465V0.75299H223.386V17.563H225.465V9.47299H241.861V17.563ZM270.784 0.61799L259.44 8.80799L271.084 17.69H267.632L257.395 9.87299H252.142V17.69H249.797V0.61799H252.142V7.99499H257.322L267.549 0.61799H270.784Z" fill="black"/>
<path d="M271.468 17.825H267.583L267.55 17.797L257.351 10.009H252.271V17.825H249.664V0.490967H252.271V7.86197H257.278L267.511 0.491967H271.19L259.657 8.81497L271.468 17.825ZM267.672 17.563H270.69L259.218 8.80997L270.373 0.752967H267.588L257.351 8.12397H251.998V0.753967H249.92V17.564H251.998V9.74597H257.429L257.462 9.77297L267.661 17.563H267.672Z" fill="black"/>
<path d="M277.79 17.7409C278.735 17.7409 279.502 16.9719 279.502 16.0239C279.502 15.0759 278.735 14.3069 277.79 14.3069C276.845 14.3069 276.078 15.0759 276.078 16.0239C276.078 16.9719 276.845 17.7409 277.79 17.7409Z" fill="black"/>
<path d="M281.525 2.37497V0.490967H303.207V2.36997H293.536V17.563H291.19V2.37397H281.52L281.525 2.37497Z" fill="black"/>
<path d="M293.668 17.696H291.061V2.50304H281.391V0.363037H303.333V2.50304H293.663V17.696H293.668ZM291.323 17.434H293.401V2.24104H303.072V0.624037H281.652V2.24104H291.323V17.434ZM325.649 0.490037V2.27504H309.27V7.98904H321.947V9.74604H309.27V15.784H325.771V17.568H306.93V0.490037H325.649Z" fill="black"/>
<path d="M325.905 17.6961H306.797V0.362061H325.777V2.40806H309.398V7.85506H322.076V9.87406H309.398V15.6501H325.9V17.6961H325.905ZM307.064 17.4341H325.644V15.9171H309.142V9.61706H321.82V8.12306H309.142V2.14106H325.522V0.624061H307.064V17.4341ZM341.41 10.0911L332.161 17.5631H329.227L339.859 8.97606L329.477 0.491061H332.684L341.61 7.78906L350.636 0.490061H353.57L343.16 8.87506L353.815 17.5621H350.586L341.41 10.0911Z" fill="black"/>
</g>
<defs>
<clipPath id="clip0_6961_83">
<rect width="354" height="19" fill="white"/>
</clipPath>
</defs>
</svg>
