<svg width="24" height="24" viewBox="0 0 24 24" fill="none" xmlns="http://www.w3.org/2000/svg">
<rect width="24" height="24" rx="6" fill="black"/>
<path fill-rule="evenodd" clip-rule="evenodd" d="M18.8694 7.84997C18.9696 7.47532 18.8694 7.19995 18.393 7.19995H16.8176C16.417 7.19995 16.2325 7.4378 16.1323 7.70016C16.1323 7.70016 15.3311 9.89212 14.1962 11.316C13.829 11.7281 13.6621 11.8591 13.4619 11.8591C13.3617 11.8591 13.2168 11.7281 13.2168 11.3535V7.84997C13.2168 7.40029 13.1005 7.19995 12.7667 7.19995H10.2911C10.0408 7.19995 9.89027 7.40863 9.89027 7.60644C9.89027 8.03275 10.4576 8.13102 10.5161 9.33001V11.9343C10.5161 12.5052 10.4243 12.6088 10.224 12.6088C9.68997 12.6088 8.39097 10.4069 7.62039 7.88749C7.46938 7.39776 7.31792 7.19995 6.9153 7.19995H5.33993C4.88983 7.19995 4.7998 7.4378 4.7998 7.70016C4.7998 8.16854 5.33397 10.4917 7.28663 13.5642C8.58856 15.6624 10.4225 16.8 12.0915 16.8C13.093 16.8 13.2168 16.5473 13.2168 16.1122V14.5263C13.2168 14.021 13.3116 13.9202 13.6286 13.9202C13.8624 13.9202 14.2629 14.0513 15.1977 15.063C16.2658 16.2618 16.4418 16.8 17.0427 16.8H18.618C19.0681 16.8 19.2932 16.5473 19.1633 16.0487C19.0213 15.5518 18.5114 14.8311 17.8346 13.9764C17.4674 13.4892 16.9166 12.9646 16.7499 12.7024C16.5162 12.3651 16.5829 12.2153 16.7499 11.9157C16.7499 11.9157 18.6691 8.88058 18.8694 7.8501V7.84997Z" fill="white"/>
</svg>
