<svg width="135" height="133" viewBox="0 0 135 133" fill="none" xmlns="http://www.w3.org/2000/svg">
<path d="M131.455 4.47091C114.366 32.6128 66.9351 9.91294 19.0721 45.4979C18.7479 45.7414 18.2831 45.6779 18.0453 45.3603C17.8075 45.0427 17.8615 44.598 18.1858 44.3545C34.3347 31.8717 54.1479 24.5768 74.3394 21.3793C89.1263 18.5419 104.962 19.2724 118.538 12.6446C122.829 10.3894 126.277 6.959 128.753 2.86159C129.834 1.13581 132.547 2.69219 131.455 4.4815V4.47091Z" fill="#EB3702"/>
<path d="M68.4922 46.8744C71.5944 44.1639 80.004 35.4927 72.2106 26.6838C71.7458 26.165 70.8378 26.345 70.6216 26.9802C69.7028 29.6907 69.1516 32.6446 68.8922 35.7997C68.8489 36.3503 67.9842 36.3714 67.9085 35.8209C67.5518 33.2799 67.5302 30.6965 67.8977 28.0813C68.0058 27.2661 66.9141 26.7896 66.3196 27.4037C62.0067 31.8082 60.1583 37.0596 66.6547 46.6414C67.0546 47.2343 67.9301 47.3508 68.4814 46.8744H68.4922Z" fill="#EB3702"/>
<path d="M53.0721 50.1034C55.8392 47.5624 63.2543 39.3676 55.6771 30.4634C55.2339 29.934 54.3908 30.0823 54.2178 30.6963C53.4828 33.3221 53.0937 36.2019 52.9856 39.2723C52.964 39.8123 52.1641 39.8017 52.0668 39.2723C51.6236 36.763 51.5047 34.2432 51.7317 31.6916C51.8074 30.8975 50.7697 30.3999 50.2401 30.9716C46.4244 35.1326 44.9436 40.204 51.3534 49.8282C51.7425 50.4211 52.564 50.5693 53.0504 50.114L53.0721 50.1034Z" fill="#EB3702"/>
<path d="M38.6216 55.6092C41.2266 53.2164 48.2093 45.4345 40.9347 36.3292C40.5024 35.7892 39.7133 35.8951 39.5512 36.4986C38.8702 39.0608 38.5351 41.8771 38.4486 44.9051C38.4378 45.4345 37.6812 45.3922 37.5839 44.8628C37.1407 42.3747 37.011 39.876 37.2056 37.3668C37.2704 36.5833 36.276 36.0433 35.7896 36.5939C32.2009 40.543 30.8282 45.4875 37.0002 55.2492C37.3785 55.8527 38.1568 56.0221 38.6108 55.6092H38.6216Z" fill="#EB3702"/>
<path d="M25.9579 61.1882C28.4224 58.9754 35.0376 51.8288 28.4332 43.6869C28.0441 43.2104 27.309 43.3163 27.1469 43.8669C26.4767 46.1961 26.1092 48.7584 25.9795 51.5005C25.9579 51.9876 25.2553 51.9558 25.1688 51.4688C24.8013 49.2136 24.7148 46.9585 24.9418 44.6821C25.0067 43.9727 24.0987 43.4963 23.6339 44.0045C20.229 47.6361 18.8779 52.1358 24.4446 60.8918C24.7905 61.4317 25.5039 61.58 25.9363 61.1882H25.9579Z" fill="#EB3702"/>
<path d="M52.0154 2.25756C56.685 2.72342 70.3802 5.2221 71.0612 18.5096C71.1044 19.293 70.2289 19.7271 69.5371 19.2719C66.6403 17.3555 63.8515 14.9839 61.1384 12.2417C60.6628 11.7547 59.9386 12.3052 60.3169 12.8664C62.0464 15.4603 64.0785 17.8637 66.4457 20.0448C67.1807 20.7224 66.6727 21.887 65.7107 21.7176C58.7171 20.4789 53.0531 16.8261 50.7075 3.66572C50.567 2.86106 51.1831 2.17286 52.0046 2.25756H52.0154Z" fill="#EB3702"/>
<path d="M33.4574 11.8183C37.5432 11.2466 49.8008 10.5584 53.8326 21.9295C54.0704 22.5965 53.4435 23.1577 52.7409 22.9142C49.79 21.866 46.8067 20.3837 43.7909 18.5732C43.2613 18.2556 42.7965 18.8803 43.2613 19.2826C45.4015 21.1672 47.7471 22.8295 50.3305 24.2164C51.1303 24.6505 51.0006 25.7622 50.1359 25.8152C43.8774 26.1963 38.1269 24.2164 32.7223 13.3112C32.3873 12.6442 32.7331 11.9136 33.4574 11.8183Z" fill="#EB3702"/>
<path d="M17.0693 20.956C20.9606 19.802 32.7859 17.3033 38.4066 27.6474C38.7417 28.2615 38.2121 28.8861 37.4878 28.7591C34.4613 28.1873 31.3266 27.2133 28.1271 25.911C27.565 25.6781 27.1975 26.3557 27.7164 26.6733C30.0836 28.1768 32.6129 29.4155 35.326 30.3684C36.1691 30.6649 36.2124 31.7554 35.3801 31.9354C29.3485 33.2376 23.4575 32.1895 16.5721 22.4912C16.1505 21.8983 16.3775 21.1466 17.0585 20.9454L17.0693 20.956Z" fill="#EB3702"/>
<path d="M14.5836 45.1905C15.3186 45.0634 15.7618 45.6457 15.3618 46.2069C13.6756 48.5573 11.5462 50.8972 9.06007 53.2159C8.6277 53.6288 9.16816 54.0841 9.67619 53.7347C12.0542 52.1465 14.2377 50.3678 16.2049 48.3562C16.8102 47.7315 17.9344 47.9644 17.8047 48.6844C16.9075 53.9464 13.6864 58.5415 1.38556 61.8977C0.628915 62.0989 -0.0412536 61.7389 0.00198311 61.1249C0.261403 57.6521 2.08815 47.3398 14.5836 45.1799V45.1905Z" fill="#EB3702"/>
<path d="M23.9352 34.0734C24.4108 34.4758 24.2487 35.1534 23.6542 35.2487C21.1681 35.6827 18.455 35.8098 15.5689 35.7039C15.0609 35.6827 15.0393 36.3392 15.5473 36.4556C17.8821 36.985 20.2385 37.2391 22.6381 37.2179C23.3839 37.2179 23.8163 38.0967 23.2542 38.4885C19.2008 41.3471 14.3907 42.2365 5.61367 36.3498C5.07321 35.9898 4.96512 35.3122 5.40829 34.9416C7.90521 32.8347 15.8608 27.2762 23.9244 34.0734H23.9352Z" fill="#EB3702"/>
<path d="M112.77 27.3293C105.161 31.9984 103.637 42.0143 106.155 49.9656C107.744 54.9418 109.322 60.4368 110.328 65.5294C113.181 79.6004 113.549 94.2642 110.349 108.314C110.263 108.706 109.863 108.949 109.474 108.865C109.074 108.78 108.825 108.388 108.912 108.007C110.403 101.093 111.063 94.0101 110.933 86.9482C110.76 76.3394 108.89 65.7941 105.82 55.63C102.599 46.874 100.859 37.1123 107.312 29.2351C108.22 28.2292 111.96 23.793 113.235 25.7412C113.592 26.3023 113.365 27.0434 112.77 27.3399V27.3293Z" fill="#EB3702"/>
<path d="M84.5519 66.1014C85.6977 62.0781 90.0646 50.527 102.095 52.9621C102.809 53.1104 103.057 53.9785 102.549 54.4867C100.387 56.6149 97.8148 58.5418 94.9287 60.3099C94.4207 60.617 94.799 61.3793 95.3611 61.1781C97.9553 60.2464 100.431 58.9865 102.755 57.3878C103.479 56.8901 104.441 57.6101 104.138 58.4253C101.933 64.3332 97.7824 68.5048 85.6112 67.573C84.8654 67.5201 84.3466 66.8107 84.5411 66.1014H84.5519Z" fill="#EB3702"/>
<path d="M88.6379 81.0614C89.7836 77.4193 94.1506 66.9587 106.181 69.1609C106.895 69.288 107.143 70.082 106.635 70.5373C104.473 72.4643 101.901 74.2112 99.0147 75.8099C98.5066 76.0958 98.885 76.784 99.447 76.5934C102.041 75.7464 104.517 74.6135 106.841 73.163C107.565 72.7078 108.527 73.3642 108.224 74.0947C106.019 79.4415 101.868 83.2319 89.6972 82.3849C88.9513 82.3319 88.4325 81.6967 88.6271 81.0508L88.6379 81.0614Z" fill="#EB3702"/>
<path d="M90.0895 96.2968C91.1704 92.8559 95.3428 82.9776 107.417 84.8199C108.13 84.9257 108.4 85.6669 107.892 86.101C105.763 87.9432 103.223 89.6266 100.369 91.183C99.8718 91.4583 100.261 92.0936 100.812 91.9136C103.396 91.0771 105.838 89.9654 108.141 88.5573C108.854 88.1232 109.827 88.7161 109.535 89.4043C107.427 94.4546 103.352 98.0756 91.1596 97.5144C90.4138 97.4827 89.8841 96.8898 90.0679 96.2863L90.0895 96.2968Z" fill="#EB3702"/>
<path d="M90.6599 110.03C91.6219 106.811 95.3727 97.5577 106.225 99.2834C106.863 99.3893 107.111 100.078 106.657 100.49C104.744 102.216 102.463 103.794 99.9017 105.244C99.4477 105.498 99.8044 106.102 100.302 105.932C102.626 105.149 104.82 104.111 106.884 102.799C107.522 102.396 108.398 102.947 108.138 103.593C106.247 108.325 102.582 111.713 91.6327 111.184C90.9625 111.152 90.4869 110.602 90.6491 110.03H90.6599Z" fill="#EB3702"/>
<path d="M134.815 58.489C132.199 54.6669 123.444 44.0157 110.441 49.9554C109.673 50.3048 109.662 51.2788 110.419 51.6494C113.586 53.227 117.153 54.4763 121.034 55.4821C121.715 55.6621 121.531 56.5515 120.817 56.4985C117.542 56.2762 114.299 55.6833 111.111 54.6986C110.116 54.3916 109.252 55.408 109.857 56.1597C114.299 61.6124 120.407 64.7357 134.059 60.3101C134.902 60.0348 135.258 59.1666 134.804 58.489H134.815Z" fill="#EB3702"/>
<path d="M134.32 79.2827C132.969 75.4606 127.932 64.4812 115.188 66.5776C114.431 66.7046 114.193 67.5199 114.755 68.0069C117.133 70.0503 119.933 71.9137 123.057 73.6395C123.608 73.9466 123.23 74.6559 122.624 74.4548C119.825 73.523 117.155 72.3055 114.626 70.7491C113.836 70.2727 112.842 70.9291 113.188 71.702C115.728 77.3134 120.29 81.3261 133.228 80.6591C134.017 80.6168 134.547 79.9603 134.309 79.2933L134.32 79.2827Z" fill="#EB3702"/>
<path d="M133.203 97.9692C132.5 94.0306 129.387 82.543 116.892 82.7442C116.157 82.7548 115.8 83.5277 116.265 84.0782C118.221 86.4287 120.61 88.6627 123.334 90.7908C123.81 91.1719 123.334 91.8072 122.794 91.5213C120.264 90.2085 117.897 88.6203 115.725 86.7357C115.044 86.1534 113.984 86.651 114.2 87.4557C115.757 93.3212 119.497 97.9162 131.971 99.1338C132.738 99.2079 133.343 98.6468 133.225 97.948L133.203 97.9692Z" fill="#EB3702"/>
<path d="M111.215 112.031C110.999 111.332 110.231 111.237 109.885 111.851C108.426 114.477 107.183 117.462 106.113 120.755C105.929 121.337 105.238 121.083 105.324 120.469C105.735 117.632 106.427 114.858 107.421 112.169C107.734 111.332 106.999 110.475 106.362 110.94C101.746 114.307 98.8601 119.347 101.379 131.671C101.53 132.423 102.2 132.825 102.751 132.486C105.951 130.559 114.955 123.91 111.204 112.01L111.215 112.031Z" fill="#EB3702"/>
<path d="M117.486 98.4678C116.881 98.256 116.308 98.7219 116.492 99.283C117.237 101.655 118.372 104.069 119.821 106.514C120.08 106.948 119.464 107.287 119.118 106.906C117.529 105.138 116.189 103.222 115.086 101.125C114.751 100.479 113.703 100.532 113.584 101.21C112.741 106.123 114.124 110.739 123.82 115.461C124.415 115.747 125.117 115.503 125.269 114.942C126.123 111.745 127.722 102.11 117.486 98.4572V98.4678Z" fill="#EB3702"/>
<path d="M131.707 4.30088C127.188 15.0261 119.536 18.8165 109.483 23.2527C88.9024 32.3581 80.7198 44.2691 75.9098 65.4444C73.6398 74.7403 69.608 84.1209 62.1497 90.6217C61.8578 90.897 61.3822 90.8758 61.112 90.59C60.831 90.2935 60.8526 89.8383 61.1552 89.5736C64.5926 86.3232 67.457 82.5328 69.4999 78.3189C73.7155 69.743 74.5694 60.087 77.8986 51.1087C82.6331 37.0802 94.7285 26.5455 108.197 20.6164C116.844 16.7625 125.232 12.2204 128.464 3.04095C129.275 0.817551 132.69 2.07748 131.707 4.30088Z" fill="#EB3702"/>
<path d="M81.0385 99.7915C74.6395 81.1997 73.6126 60.0244 82.6599 42.0784C83.1355 41.1149 84.6704 41.8137 84.1624 42.809C77.558 55.8847 76.25 70.972 78.8334 85.2336C79.6549 90.0086 80.9088 94.7201 82.4329 99.3363C82.7247 100.204 81.3304 100.702 81.0277 99.7809L81.0385 99.7915Z" fill="#EB3702"/>
<path d="M48.6953 80.3729C65.1793 78.1812 73.8158 70.3464 77.3288 55.3014L48.6953 80.3729Z" fill="#EB3702"/>
<path d="M74.5227 52.9304C70.7935 59.1771 62.5569 59.5265 56.0714 59.9606C49.6184 60.3841 43.0031 61.2523 37.5986 64.905C36.8203 65.4344 35.9664 64.2698 36.7663 63.7192C45.1326 57.7054 56.0606 59.1136 65.5727 57.0067C68.6425 56.2443 71.334 54.5503 72.8797 51.9458C73.5174 50.8764 75.2037 51.8505 74.5227 52.9198V52.9304Z" fill="#EB3702"/>
<path d="M45.375 72.5393C45.375 72.5393 46.1533 61.1365 58.854 58.9025L45.375 72.5393Z" fill="#EB3702"/>
<path d="M122.943 31.0984C119.582 30.6431 116.469 32.9512 116.004 36.244C115.539 39.5367 117.895 42.5859 121.257 43.0412C124.619 43.4965 127.732 41.1884 128.197 37.8956C128.661 34.6029 126.305 31.5536 122.943 31.0984ZM122.23 39.4943C122.241 40.2567 122.014 40.8496 121.592 40.9449C121.171 41.0401 120.695 40.6272 120.349 39.939C119.571 39.9496 118.966 39.7273 118.868 39.3144C118.771 38.912 119.193 38.4356 119.895 38.0968C119.884 37.3345 120.111 36.7416 120.533 36.6463C120.944 36.551 121.43 36.9639 121.776 37.6521C122.554 37.6415 123.159 37.8639 123.257 38.2768C123.354 38.6791 122.932 39.1555 122.23 39.4943Z" fill="#EB3702"/>
<path d="M121.24 122.184C118.257 122.248 115.89 124.662 115.954 127.584C116.019 130.506 118.484 132.825 121.467 132.761C124.45 132.698 126.818 130.284 126.753 127.362C126.688 124.44 124.223 122.121 121.24 122.184ZM120.797 127.277C120.916 127.934 120.797 128.484 120.451 128.622C120.105 128.759 119.63 128.463 119.23 127.923C118.559 128.039 117.997 127.923 117.857 127.584C117.716 127.245 118.019 126.779 118.57 126.388C118.451 125.731 118.57 125.181 118.916 125.043C119.262 124.905 119.738 125.202 120.138 125.742C120.808 125.625 121.37 125.742 121.51 126.081C121.651 126.419 121.348 126.885 120.797 127.277Z" fill="#EB3702"/>
<path d="M99.1536 6.03805C97.1755 3.32762 93.3382 2.70295 90.5711 4.6299C87.8039 6.56744 87.1662 10.326 89.1335 13.0365C91.1115 15.7469 94.9488 16.3716 97.7159 14.4446C100.483 12.5071 101.121 8.74849 99.1536 6.03805ZM94.0408 11.1836C93.803 11.533 93.1653 11.5542 92.4303 11.2895C91.8682 11.8189 91.2737 12.0624 90.917 11.8401C90.5603 11.6177 90.5387 10.9825 90.8089 10.2625C90.2684 9.71196 90.0198 9.12964 90.2468 8.78025C90.4738 8.43086 91.1223 8.40968 91.8574 8.67437C92.4194 8.14499 93.0139 7.90148 93.3706 8.12382C93.7273 8.34616 93.749 8.98141 93.4787 9.70137C94.0192 10.2519 94.2678 10.8342 94.0408 11.1836Z" fill="#EB3702"/>
<path d="M131.117 18.4248C128.815 18.1178 126.696 19.6847 126.383 21.9399C126.069 24.1951 127.669 26.2702 129.972 26.5773C132.274 26.8843 134.393 25.3174 134.706 23.0622C135.019 20.807 133.42 18.7319 131.117 18.4248ZM131.582 24.5868C130.923 24.5868 130.382 24.0574 130.382 23.4116C130.382 22.7657 130.923 22.2364 131.582 22.2364C132.242 22.2364 132.782 22.7657 132.782 23.4116C132.782 24.0574 132.242 24.5868 131.582 24.5868Z" fill="#EB3702"/>
<path d="M96.8607 41.115C94.8934 39.908 92.3101 40.4797 91.067 42.4067C89.8348 44.3336 90.4185 46.8641 92.3857 48.0817C94.353 49.2992 96.9364 48.7169 98.1794 46.79C99.4117 44.863 98.828 42.3326 96.8607 41.115ZM95.1637 43.8254C94.8934 44.4183 94.18 44.683 93.5747 44.4077C92.9694 44.1325 92.6992 43.4443 92.9802 42.8514C93.2613 42.2585 93.9639 41.9938 94.5692 42.269C95.1745 42.5443 95.4447 43.2325 95.1637 43.8254Z" fill="#EB3702"/>
<path d="M131.369 122.163C133.255 122.163 134.785 120.665 134.785 118.817C134.785 116.97 133.255 115.472 131.369 115.472C129.482 115.472 127.953 116.97 127.953 118.817C127.953 120.665 129.482 122.163 131.369 122.163Z" fill="#EB3702"/>
<path d="M33.9626 7.73221C35.849 7.73221 37.3783 6.23429 37.3783 4.38652C37.3783 2.53875 35.849 1.04083 33.9626 1.04083C32.0761 1.04083 30.5469 2.53875 30.5469 4.38652C30.5469 6.23429 32.0761 7.73221 33.9626 7.73221Z" fill="#EB3702"/>
<path d="M112.665 1.93038C110.471 1.18925 108.082 2.32213 107.325 4.47141C106.569 6.6207 107.725 8.96056 109.92 9.7017C112.114 10.4428 114.503 9.30996 115.259 7.16067C116.016 5.01138 114.859 2.67152 112.665 1.93038ZM111.346 6.86422C111.217 7.49947 110.59 7.91239 109.93 7.78534C109.271 7.65829 108.86 7.04421 108.99 6.39836C109.12 5.75252 109.747 5.35019 110.406 5.47724C111.055 5.60429 111.476 6.21837 111.346 6.86422Z" fill="#EB3702"/>
<path d="M82.5643 4.44983C82.3265 2.19467 80.262 0.543002 77.9596 0.786517C75.6573 1.01944 73.971 3.04168 74.2196 5.29684C74.4574 7.55201 76.522 9.20367 78.8243 8.96016C81.1267 8.72723 82.8129 6.705 82.5643 4.44983ZM77.4516 5.37096C76.803 5.52977 76.1545 5.13803 76.0031 4.51336C75.841 3.8781 76.2409 3.24284 76.8787 3.09462C77.5272 2.9358 78.1758 3.32755 78.3271 3.95221C78.4892 4.58747 78.0893 5.22273 77.4516 5.37096Z" fill="#EB3702"/>
<path d="M27.0174 10.1985C26.7796 7.94333 24.7151 6.29166 22.4127 6.53517C20.1104 6.7681 18.4241 8.79034 18.6728 11.0455C18.9106 13.3007 20.9751 14.9523 23.2775 14.7088C25.5798 14.4759 27.266 12.4537 27.0174 10.1985ZM21.9047 11.1196C21.2561 11.2784 20.6076 10.8867 20.4563 10.262C20.2941 9.62676 20.6941 8.9915 21.3318 8.84327C21.9696 8.69505 22.6289 9.0762 22.7802 9.70087C22.9316 10.3255 22.5424 10.9714 21.9047 11.1196Z" fill="#EB3702"/>
<path d="M5.85955 18.2451C3.54639 18.044 1.50346 19.7062 1.29809 21.972C1.09271 24.2377 2.78975 26.2388 5.10291 26.4399C7.41607 26.6411 9.45901 24.9789 9.66438 22.7131C9.86975 20.4474 8.17272 18.4463 5.85955 18.2451ZM6.6162 24.3859C5.95684 24.4177 5.39476 23.9201 5.36233 23.2637C5.32991 22.6072 5.83794 22.0673 6.5081 22.0355C7.17827 22.0037 7.72954 22.5014 7.76197 23.1578C7.79439 23.8142 7.28636 24.3542 6.6162 24.3859Z" fill="#EB3702"/>
<path d="M11.6872 4.66135C9.70908 1.95092 5.87183 1.32625 3.10468 3.25319C0.348341 5.19073 -0.300209 8.94933 1.67787 11.6598C3.65595 14.3702 7.4932 14.9949 10.2603 13.0679C13.0275 11.1304 13.6652 7.37178 11.698 4.66135H11.6872ZM6.57442 9.80693C6.33662 10.1563 5.69888 10.1775 4.96386 9.9128C4.40178 10.4422 3.80728 10.6857 3.45057 10.4634C3.09387 10.241 3.07225 9.60576 3.34248 8.88581C2.80202 8.33525 2.55341 7.75293 2.7804 7.40354C3.0074 7.05415 3.65595 7.03297 4.39097 7.29766C4.95305 6.76828 5.54755 6.52477 5.90425 6.74711C6.26096 6.96945 6.28257 7.6047 6.01234 8.32466C6.5528 8.87522 6.80141 9.45754 6.57442 9.80693Z" fill="#EB3702"/>
<path d="M33.4909 101.156C33.7936 101.029 33.9017 100.553 33.7936 99.9598C34.2908 99.6104 34.561 99.1975 34.4313 98.901C34.3016 98.6046 33.8152 98.4987 33.2099 98.6046C32.8532 98.1175 32.4316 97.8529 32.129 97.9799C31.8263 98.107 31.7182 98.5834 31.8263 99.1763C31.3291 99.5257 31.0589 99.9386 31.1886 100.235C31.3183 100.532 31.8047 100.637 32.41 100.532C32.7667 101.019 33.1883 101.283 33.4909 101.156Z" fill="#EB3702"/>
<path d="M77.6174 116.118C77.9632 115.98 78.0821 115.43 77.9632 114.773C78.5253 114.381 78.828 113.915 78.6767 113.577C78.5253 113.238 77.9741 113.121 77.3039 113.238C76.9039 112.687 76.4283 112.391 76.0825 112.539C75.7366 112.687 75.6177 113.227 75.7366 113.884C75.1745 114.275 74.8718 114.741 75.0232 115.08C75.1745 115.419 75.7258 115.535 76.3959 115.419C76.7959 115.969 77.2715 116.266 77.6174 116.118Z" fill="#EB3702"/>
<path d="M54.5651 111.544C54.965 111.713 55.5271 111.385 56.0027 110.76C56.781 110.919 57.4295 110.792 57.6133 110.411C57.797 110.03 57.4511 109.468 56.8134 109.003C56.9755 108.24 56.8458 107.605 56.4567 107.425C56.0676 107.245 55.4947 107.584 55.0191 108.209C54.2408 108.05 53.5923 108.177 53.4085 108.558C53.2248 108.939 53.5706 109.5 54.2084 109.966C54.0463 110.728 54.176 111.364 54.5651 111.544Z" fill="#EB3702"/>
<path d="M15.6198 92.6649C16.0197 92.8343 16.5818 92.5061 17.0574 91.8814C17.8357 92.0402 18.4842 91.9132 18.668 91.532C18.8517 91.1508 18.5058 90.5897 17.8681 90.1239C18.0302 89.3615 17.9005 88.7263 17.5114 88.5463C17.1223 88.3663 16.5494 88.7051 16.0738 89.3298C15.2955 89.171 14.647 89.298 14.4632 89.6792C14.2794 90.0603 14.6253 90.6215 15.2631 91.0873C15.1009 91.8496 15.2306 92.4849 15.6198 92.6649Z" fill="#EB3702"/>
<path d="M22.9132 117.673C23.2916 117.324 23.1727 116.561 22.6754 115.757C23.2051 114.973 23.3672 114.221 22.9997 113.851C22.6322 113.48 21.8648 113.597 21.0433 114.084C20.2434 113.565 19.4759 113.406 19.0976 113.766C18.7193 114.126 18.8382 114.878 19.3354 115.682C18.8058 116.466 18.6436 117.218 19.0111 117.588C19.3786 117.959 20.1461 117.842 20.9676 117.355C21.7675 117.874 22.5349 118.033 22.9132 117.673Z" fill="#EB3702"/>
<path d="M24.2848 75.5032C23.8849 75.6726 23.3228 75.3444 22.8472 74.7197C22.0689 74.8785 21.4204 74.7515 21.2366 74.3703C21.0529 73.9892 21.3988 73.428 22.0365 72.9622C21.8744 72.1999 22.0041 71.5646 22.3932 71.3846C22.7823 71.2046 23.3552 71.5434 23.8308 72.1681C24.6091 72.0093 25.2576 72.1363 25.4414 72.5175C25.6252 72.8986 25.2793 73.4598 24.6415 73.9256C24.8037 74.688 24.6739 75.3232 24.2848 75.5032Z" fill="#EB3702"/>
<path d="M41.4176 84.8199C41.2663 84.4175 40.6285 84.2693 39.8394 84.3752C39.3963 83.7294 38.8558 83.3588 38.4451 83.5176C38.0343 83.6764 37.883 84.2905 37.9911 85.0634C37.3317 85.4975 36.9534 86.0269 37.1155 86.4292C37.2777 86.8315 37.9046 86.9797 38.6937 86.8739C39.1368 87.5197 39.6773 87.8903 40.0881 87.7315C40.4988 87.5727 40.6501 86.9586 40.542 86.1857C41.2014 85.7516 41.5797 85.2222 41.4176 84.8199Z" fill="#EB3702"/>
<path d="M44.3785 116.636C44.2272 116.234 43.5894 116.086 42.8004 116.191C42.3572 115.546 41.8167 115.175 41.406 115.334C40.9952 115.493 40.8439 116.107 40.952 116.88C40.2927 117.314 39.9143 117.843 40.0765 118.245C40.2386 118.648 40.8655 118.796 41.6546 118.69C42.0978 119.336 42.6382 119.707 43.049 119.548C43.4597 119.389 43.6111 118.775 43.503 118.002C44.1623 117.568 44.5407 117.038 44.3785 116.636Z" fill="#EB3702"/>
<path d="M83.9197 117.409C83.4549 119.24 82.1578 120.839 80.2446 121.623C77.0343 122.935 73.3591 121.443 72.0188 118.309C70.6785 115.164 72.2026 111.564 75.4021 110.251C76.1911 109.934 77.0018 109.775 77.8017 109.775C76.937 107.16 74.4293 105.265 71.4675 105.265C71.4027 105.265 71.3378 105.265 71.2838 105.265C71.2838 105.18 71.2946 105.095 71.2946 105.011C71.2946 99.2086 64.6361 96.0005 59.9882 98.9227C59.9774 95.037 55.9456 92.4854 52.3894 93.7665C52.4542 89.288 48.5521 85.7305 44.0123 86.1117C43.9474 87.594 43.3421 89.055 42.1855 90.1879C39.7318 92.5913 35.7432 92.5913 33.2896 90.1879C30.8359 87.7845 30.8359 83.8777 33.2896 81.4743C33.7003 81.072 34.1543 80.7438 34.6407 80.4685C38.2185 75.2805 33.6679 67.9645 27.2689 68.8327C27.9498 69.8173 28.3498 71.0031 28.3498 72.2842C28.3498 75.6829 25.5394 78.4462 22.0588 78.4462C18.5783 78.4462 15.7679 75.6935 15.7679 72.2842C15.7679 70.8337 16.2867 69.4997 17.1407 68.4409C16.4489 65.7199 13.9411 63.6977 10.947 63.6977C7.42322 63.6977 4.55879 66.5034 4.55879 69.955C4.55879 70.7067 4.69931 71.4267 4.94792 72.0937C2.6888 73.036 1.11067 75.2276 1.11067 77.7898C1.11067 79.4944 1.81326 81.0402 2.94822 82.1625C2.78609 82.6601 2.71042 83.2001 2.71042 83.7506C2.71042 85.8788 3.96429 87.7104 5.79103 88.5998C3.07793 89.4256 1.11067 91.9137 1.11067 94.8465C1.11067 97.1546 2.34291 99.1874 4.19128 100.352C1.95378 101.485 0.429688 103.761 0.429688 106.398C0.429688 109.584 2.66719 112.253 5.69375 112.994C5.42352 113.629 5.27219 114.328 5.27219 115.069C5.27219 116.456 5.80184 117.705 6.67739 118.669C4.48313 119.823 2.99146 122.099 2.99146 124.704C2.99146 128.494 6.12612 131.564 9.9958 131.564C12.5684 131.564 14.8167 130.199 16.0273 128.176C16.8704 128.685 17.8541 128.981 18.9134 128.981C20.2861 128.981 21.54 128.483 22.5128 127.668C23.5073 130.347 26.1231 132.263 29.2037 132.263C31.96 132.263 34.3489 130.728 35.5379 128.473C36.5431 129.129 37.7537 129.521 39.0508 129.521C41.364 129.521 43.3745 128.303 44.477 126.493C45.5688 129.394 48.4008 131.458 51.7408 131.458C54.1945 131.458 56.3779 130.336 57.7939 128.6C58.81 129.256 60.0206 129.648 61.3285 129.648C63.2418 129.648 64.9604 128.812 66.1278 127.499C67.2087 129.161 69.0895 130.262 71.2405 130.262C73.1105 130.262 74.7751 129.436 75.8885 128.134C77.1856 129.997 79.369 131.215 81.8443 131.215C85.8221 131.215 89.0541 128.06 89.0541 124.153C89.0541 120.966 86.8922 118.266 83.9305 117.398L83.9197 117.409ZM5.9856 75.7888C6.21259 75.5029 6.78548 75.5347 7.4016 75.8205C7.93125 75.397 8.47171 75.2276 8.76356 75.4605C9.0554 75.6935 9.02298 76.244 8.73113 76.8475C9.1635 77.3663 9.33644 77.8957 9.09864 78.1816C8.87165 78.4674 8.29876 78.4357 7.68264 78.1498C7.15299 78.5733 6.61253 78.7427 6.32068 78.5098C6.02884 78.2874 6.06126 77.7263 6.35311 77.1228C5.92074 76.604 5.7478 76.0746 5.9856 75.7888ZM8.83922 108.335C8.95812 108.992 8.83922 109.542 8.49333 109.68C8.14743 109.817 7.67183 109.521 7.27189 108.981C6.60172 109.097 6.03965 108.981 5.89913 108.642C5.75861 108.303 6.06126 107.837 6.61253 107.446C6.49363 106.789 6.61253 106.239 6.95842 106.101C7.30432 105.963 7.77992 106.26 8.17986 106.8C8.85003 106.683 9.41211 106.8 9.55263 107.139C9.69314 107.478 9.39049 107.943 8.83922 108.335ZM45.3093 102.554C45.8282 102.628 46.1849 103.094 46.12 103.602C46.0552 104.111 45.5688 104.46 45.0499 104.396C44.5311 104.333 44.1744 103.857 44.2392 103.348C44.3149 102.84 44.7905 102.491 45.3093 102.554ZM17.4974 83.2319C20.9671 83.2319 23.7883 85.9846 23.7883 89.3938C23.7883 92.8031 20.9779 95.5558 17.4974 95.5558C14.0168 95.5558 11.2064 92.8031 11.2064 89.3938C11.2064 85.9846 14.0168 83.2319 17.4974 83.2319ZM17.346 101.263C17.2704 101.771 16.7948 102.12 16.2759 102.057C15.7571 101.993 15.4004 101.517 15.4652 101.008C15.5301 100.5 16.0165 100.151 16.5353 100.214C17.0542 100.278 17.4109 100.754 17.346 101.263ZM27.0527 116.911C25.507 120.691 21.1184 122.533 17.2488 121.019C13.3899 119.505 11.5091 115.206 13.0548 111.416C14.6005 107.626 18.989 105.794 22.8587 107.308C26.7176 108.822 28.5984 113.121 27.0527 116.911ZM32.2303 126.503C32.133 127.223 31.452 127.721 30.717 127.626C29.982 127.53 29.4739 126.863 29.5712 126.143C29.6685 125.424 30.3495 124.926 31.0845 125.021C31.8195 125.116 32.3275 125.783 32.2303 126.503ZM28.5119 103.115C27.3229 100.32 28.674 97.1122 31.5169 95.9476C34.3705 94.7829 37.6456 96.1064 38.8347 98.8909C40.0237 101.686 38.6725 104.894 35.8297 106.059C32.9761 107.223 29.7009 105.9 28.5119 103.115ZM45.1364 122.014C42.6827 124.418 38.6941 124.418 36.2405 122.014C33.7868 119.611 33.7868 115.704 36.2405 113.301C38.6941 110.897 42.6827 110.897 45.1364 113.301C47.5901 115.704 47.5901 119.611 45.1364 122.014ZM48.3792 94.8782C48.0981 95.1217 47.5468 94.9841 46.9956 94.5924C46.3903 94.91 45.8282 94.9735 45.5796 94.6982C45.331 94.423 45.4715 93.883 45.8714 93.343C45.5471 92.7501 45.4823 92.1996 45.7633 91.956C46.0444 91.7125 46.5956 91.8502 47.1469 92.2419C47.7522 91.9243 48.3143 91.8608 48.5629 92.136C48.8115 92.4113 48.671 92.9513 48.2711 93.4912C48.5953 94.0842 48.6602 94.6347 48.3792 94.8782ZM57.7831 122.808C57.902 123.465 57.7831 124.015 57.4372 124.153C57.0913 124.291 56.6157 123.994 56.2158 123.454C55.5456 123.571 54.9836 123.454 54.843 123.115C54.7025 122.777 55.0052 122.311 55.5564 121.919C55.4375 121.263 55.5564 120.712 55.9023 120.574C56.2482 120.437 56.7238 120.733 57.1238 121.273C57.7939 121.157 58.356 121.273 58.4965 121.612C58.6371 121.951 58.3344 122.417 57.7831 122.808ZM56.432 114.444C52.9622 114.444 50.141 111.691 50.141 108.282C50.141 104.873 52.9514 102.12 56.432 102.12C59.9125 102.12 62.7229 104.873 62.7229 108.282C62.7229 111.691 59.9125 114.444 56.432 114.444ZM67.9762 113.428C67.8789 114.148 67.1979 114.645 66.4629 114.55C65.7279 114.455 65.2198 113.788 65.3171 113.068C65.4144 112.348 66.0954 111.85 66.8304 111.945C67.5654 112.041 68.0735 112.708 67.9762 113.428ZM85.033 127.096C84.9574 127.658 84.4277 128.039 83.8656 127.965C83.2928 127.89 82.9036 127.372 82.9793 126.821C83.055 126.26 83.5846 125.879 84.1467 125.953C84.7196 126.027 85.1087 126.546 85.033 127.096Z" fill="#EB3702"/>
</svg>
