<svg width="135" height="133" viewBox="0 0 135 133" fill="none" xmlns="http://www.w3.org/2000/svg">
<path d="M88.2888 37.7485C88.9026 37.0919 88.3534 36.2129 87.4811 36.4671C81.9567 38.0556 76.3462 39.4534 70.6602 40.6289C69.9279 40.7771 69.3572 40.1206 69.6479 39.464C72.0063 34.2221 74.6231 29.1284 77.4769 24.2041C77.8 23.6323 77.423 23.0287 76.7554 23.0604C74.9247 23.1558 73.0832 23.2299 71.2417 23.2722C70.7787 23.2828 70.4125 22.9545 70.4125 22.5204C70.391 18.0197 70.6279 13.5614 71.1125 9.15607C71.1987 8.39361 70.2187 8.07591 69.6049 8.66894C67.7203 10.4798 65.8681 12.3118 64.0266 14.1862C63.7035 14.5145 63.1866 14.5992 62.8313 14.3662C62.4328 14.1121 62.0344 13.8473 61.6359 13.5826C61.1513 13.2649 60.4406 13.5085 60.2144 14.0803C59.5252 15.8594 58.8683 17.6597 58.2545 19.4811C58.0391 20.1271 57.2099 20.3706 56.7361 19.9259C56.5207 19.7247 56.2946 19.5235 56.0792 19.3223C55.6054 18.8775 54.7762 19.0999 54.55 19.7564C53.5701 22.6686 52.6762 25.6232 51.8686 28.6095C51.5994 29.6155 50.1348 29.5202 50.0379 28.4824C49.661 24.3418 49.4887 20.2118 49.5102 16.0924C49.5102 15.7429 49.3164 15.4358 49.0148 15.2875C48.2395 14.9169 47.4749 14.5357 46.6995 14.1544C46.3872 13.9956 46.2042 13.6673 46.2149 13.3073C46.3226 11.2211 46.4842 9.15607 46.6888 7.08047C46.7749 6.18034 45.6873 5.74616 45.095 6.46627C43.2427 8.72189 41.4336 11.0199 39.6783 13.3708C39.1614 14.0591 38.1275 13.7626 38.0522 12.8943C37.8152 10.4374 37.6537 7.97002 37.5568 5.5026C37.5245 4.78249 36.7922 4.36949 36.1999 4.75072C35.5107 5.1849 34.8323 5.62968 34.1538 6.07445C33.7769 6.31801 33.3139 6.25447 33.0231 5.9156C31.7201 4.39067 30.4494 2.8128 29.2109 1.20315C28.7156 0.567763 27.7679 0.864277 27.6171 1.72205C27.2402 3.87177 26.9172 6.03209 26.6372 8.1924C26.5726 8.66894 26.228 9.03958 25.7972 9.08194C25.0111 9.15607 24.225 9.2302 23.4388 9.30433C22.7496 9.36787 22.3727 10.2362 22.7389 10.9034C23.988 13.1696 25.3018 15.3829 26.6695 17.5538C27.1541 18.3162 26.5833 19.3223 25.7649 19.1528C22.965 18.5704 20.1651 17.9138 17.3652 17.1937C16.4714 16.9607 15.9006 18.1891 16.5468 18.9728C18.0113 20.7519 19.5082 22.4886 21.0374 24.1724C21.3066 24.4689 21.4035 24.8925 21.3066 25.2737C21.0589 26.2162 20.8112 27.1693 20.5743 28.1224C20.4774 28.5036 20.5851 28.9166 20.8543 29.2131C23.988 32.623 27.2725 35.8529 30.6755 38.8922C31.5262 39.644 30.8586 41.0207 29.8355 40.6077C26.7556 39.3687 23.7081 38.0238 20.682 36.573C20.0036 36.2447 19.3251 36.7954 19.4328 37.6002C19.4867 37.9603 19.5297 38.3203 19.5836 38.6909C19.702 39.4852 19.0344 40.0464 18.3452 39.7287C16.4068 38.8074 14.4684 37.8438 12.5515 36.8377C11.9377 36.52 11.3023 36.933 11.2916 37.6849C11.2916 38.2991 11.2808 38.9133 11.27 39.5275C11.27 40.0782 10.9147 40.4912 10.4301 40.4912C7.73786 40.4912 5.03488 40.4383 2.3319 40.343C1.44885 40.3112 1.16886 41.6137 1.91191 42.3444C6.21945 46.5486 10.7208 50.4562 15.3945 54.0885C15.8468 54.4379 16.0406 55.0627 15.8576 55.5393C15.1037 57.4243 14.3822 59.3198 13.6823 61.226C13.4238 61.9249 14.0053 62.825 14.7484 62.8992C21.1989 63.5981 27.6387 63.9899 34.0354 64.0958C34.8323 64.1064 35.4461 65.0065 35.123 65.6843C32.6354 71.0003 30.3417 76.4329 28.274 81.9714C27.9402 82.8503 29.114 83.9199 29.954 83.5069C33.5831 81.7278 37.1799 79.9169 40.7551 78.0743C41.1967 77.8519 41.8105 78.0214 42.1766 78.4767C42.4243 78.7732 42.672 79.0803 42.9197 79.3769C43.415 79.9805 44.3196 80.0334 44.6535 79.4722C46.1503 76.973 47.6795 74.5056 49.2518 72.0487C49.6179 71.4875 50.5332 71.551 50.9855 72.1758C51.6747 73.1183 52.3639 74.0502 53.0747 74.9715C53.6347 75.6916 54.7439 75.5857 54.9054 74.8021C55.9069 70.0155 57.113 65.303 58.5022 60.6753C58.5022 60.6753 58.5022 60.6753 58.5022 60.6647C61.7652 64.0535 65.2866 67.2092 69.368 70.0261C70.7141 70.8203 71.8663 69.3695 70.9402 68.7977C66.7511 66.1714 62.939 63.2486 59.4929 60.0505C64.5327 59.5846 69.5187 58.928 74.4293 58.102C75.2477 57.9643 75.4954 57.0113 74.8493 56.5347C74.0201 55.9205 73.2124 55.2957 72.394 54.6603C71.8556 54.2367 71.974 53.4531 72.6094 53.1778C75.3447 51.9811 78.0584 50.7527 80.7614 49.4925C81.3644 49.2066 81.5044 48.4865 81.0414 48.0841C80.8152 47.8829 80.5783 47.6817 80.3522 47.4805C80.0076 47.1839 79.9968 46.6756 80.3199 46.3156C82.9367 43.4352 85.5858 40.5759 88.2673 37.759L88.2888 37.7485ZM25.4849 25.9197C24.9357 25.422 25.5603 24.4053 26.1741 24.9348C30.7616 28.8531 35.543 32.4112 40.4859 35.6305C35.7261 26.8304 32.097 17.6385 29.4802 7.97002C29.2755 7.22873 30.3309 6.81573 30.557 7.57819C33.3569 17.0455 37.1476 26.1844 41.8859 34.8363C41.8859 28.9589 42.252 23.1346 42.9735 17.4055C43.0704 16.6642 44.1689 16.7701 44.1042 17.5114C43.4797 24.31 43.3504 31.204 43.7489 38.1403C46.5165 42.8951 49.5425 47.4805 52.7086 51.9917C53.1501 52.6165 52.2347 53.2201 51.7609 52.6483C48.2072 48.37 45.1273 43.7634 42.3489 38.9769C36.4691 35.1116 30.8155 30.7592 25.4634 25.9197H25.4849ZM52.5255 61.0036C50.1886 63.5875 47.5718 65.9067 45.0411 68.3C42.5105 70.6932 39.9259 73.0548 37.3737 75.4269C36.846 75.9246 35.8661 74.9609 36.3722 74.442C38.8275 71.964 41.2936 69.5072 43.8243 67.1033C46.3442 64.7206 48.8641 62.232 51.6209 60.1035C52.1486 59.6905 52.9778 60.4847 52.5147 60.993L52.5255 61.0036ZM56.8223 57.1383C56.7792 57.5619 56.3915 57.8478 55.9392 57.7949C49.4456 56.9795 42.9412 55.7934 36.4584 54.205C31.7739 55.8676 27.0572 57.4454 22.3189 58.9598C21.6297 59.1822 21.0481 57.9326 21.7697 57.689C25.7218 56.3335 29.6525 54.9251 33.5723 53.4743C26.271 51.5575 19.0236 49.1325 11.8839 46.1885C11.1947 45.9026 11.3347 44.5789 12.1315 44.9071C19.0882 47.7346 26.1633 50.0538 33.2816 51.8964C30.4817 49.4184 27.7679 46.8345 25.1511 44.1341C24.6019 43.5622 25.3018 42.6303 25.9157 43.234C29.3079 46.5803 32.8508 49.7361 36.523 52.7012C42.7581 54.1944 49.0148 55.3169 55.25 56.0899C55.993 50.1809 57.1022 44.3777 58.5345 38.7121C57.5438 34.7198 56.7469 30.7063 56.1654 26.6821C56.0684 25.9832 57.1776 25.7714 57.2961 26.4598C57.8453 29.5732 58.513 32.6865 59.3099 35.7788C61.0867 29.3508 63.2728 23.124 65.8465 17.1196C66.1158 16.4842 67.1603 16.7489 66.8911 17.4161C64.3497 23.5688 62.2067 29.9544 60.516 36.5412C63.5635 33.7667 66.6327 31.0134 69.7449 28.313C70.2725 27.8576 71.0371 28.5459 70.4879 29.0543C66.9019 32.3477 63.3589 35.7046 59.8806 39.1145C58.4914 44.9813 57.4576 51.0069 56.8223 57.1277V57.1383ZM78.8015 43.4775C75.8723 45.4366 72.9324 47.364 69.971 49.2595C67.0096 51.1657 64.0481 53.093 60.8929 54.7027C60.279 55.0098 59.6437 54.1414 60.2144 53.7284C63.0897 51.674 66.1373 49.9161 69.1526 48.0947C72.1678 46.2732 75.1831 44.4518 78.1984 42.6198C78.8122 42.2491 79.4153 43.0751 78.8015 43.4775Z" fill="#F37600"/>
<path d="M76.4064 122.974C80.8539 123.048 85.3768 120.782 88.4675 117.626C89.609 116.535 90.5351 115.254 91.4612 113.983C92.0104 113.253 93.1734 114.036 92.6673 114.799C90.1151 119.087 86.2921 122.752 81.4569 124.457C80.1216 124.827 75.1464 126.691 74.9849 124.234C74.9633 123.472 75.6525 122.879 76.4064 122.963V122.974Z" fill="#F37600"/>
<path d="M91.7432 116.017C91.7432 116.017 91.7432 116.017 91.7432 116.027C92.7878 119.427 93.6923 122.879 94.4462 126.395C94.5646 126.967 95.3938 127.041 95.7923 126.511C96.3092 125.833 96.8153 125.145 97.3214 124.446C97.6553 123.991 98.3229 123.938 98.5922 124.351C99.7552 126.141 100.886 127.962 101.995 129.783C102.243 130.186 102.9 130.154 103.266 129.709C103.449 129.487 103.632 129.265 103.804 129.042C104.074 128.714 104.526 128.576 104.849 128.746C107.487 130.091 110.136 131.404 112.807 132.696C113.421 132.992 114.282 132.208 114.035 131.563C112.495 127.496 110.783 123.514 108.93 119.617C108.693 119.12 109.146 118.463 109.727 118.442C114.433 118.336 119.161 118.029 123.899 117.489C124.448 117.425 124.868 116.758 124.674 116.25C124.157 114.852 123.608 113.454 123.048 112.077C122.908 111.728 123.048 111.273 123.382 111.008C126.807 108.329 130.102 105.427 133.246 102.324C133.796 101.784 133.58 100.831 132.934 100.852C130.953 100.926 128.96 100.979 126.979 100.99C126.623 100.99 126.365 100.693 126.354 100.291C126.354 99.8355 126.343 99.3908 126.333 98.9354C126.322 98.3847 125.848 98.0776 125.396 98.3212C123.996 99.0625 122.574 99.7826 121.153 100.471C120.647 100.714 120.162 100.301 120.238 99.7085C120.27 99.4437 120.313 99.179 120.345 98.9036C120.421 98.3106 119.925 97.9082 119.43 98.1518C117.211 99.2319 114.972 100.227 112.721 101.159C111.967 101.466 111.472 100.46 112.096 99.8991C114.584 97.6541 116.985 95.2714 119.268 92.751C119.462 92.5392 119.538 92.2321 119.473 91.9462C119.29 91.2472 119.107 90.5483 118.924 89.86C118.848 89.574 118.924 89.2669 119.118 89.0446C120.238 87.795 121.336 86.5136 122.402 85.2005C122.876 84.618 122.445 83.7179 121.788 83.8979C119.742 84.438 117.685 84.9251 115.628 85.3699C115.025 85.497 114.605 84.7557 114.961 84.1944C115.962 82.5954 116.91 80.9646 117.825 79.2914C118.095 78.8043 117.804 78.1583 117.308 78.1159C116.727 78.063 116.156 78.01 115.575 77.9571C115.262 77.9253 115.004 77.6606 114.961 77.3111C114.745 75.7226 114.498 74.1342 114.218 72.5563C114.11 71.9315 113.399 71.7091 113.044 72.1856C112.139 73.3717 111.213 74.5366 110.255 75.6591C110.05 75.9027 109.706 75.9556 109.426 75.7862C108.919 75.4685 108.413 75.1402 107.918 74.8225C107.476 74.5472 106.938 74.8543 106.916 75.3838C106.852 77.1946 106.744 79.016 106.583 80.8163C106.529 81.4517 105.764 81.6741 105.387 81.1658C104.084 79.4502 102.738 77.7665 101.371 76.1144C100.929 75.585 100.132 75.9132 100.197 76.5698C100.358 78.0841 100.477 79.6091 100.574 81.1446C100.584 81.4093 100.455 81.6529 100.229 81.7694C99.6691 82.0553 99.0983 82.3412 98.5383 82.6166C98.3122 82.7225 98.1722 82.9554 98.1722 83.2096C98.2045 86.2383 98.0968 89.2775 97.8383 92.3168C97.7737 93.0793 96.6968 93.1534 96.4922 92.4227C95.8892 90.2306 95.2215 88.0597 94.4892 85.9206C94.3277 85.444 93.7139 85.2746 93.3693 85.6135C93.2078 85.7617 93.0462 85.91 92.8955 86.0582C92.5401 86.3865 91.937 86.2065 91.7755 85.7406C91.3124 84.4062 90.8278 83.0825 90.3109 81.78C90.1494 81.3564 89.6217 81.1869 89.2663 81.4199C88.9756 81.6105 88.6848 81.8117 88.3941 82.0024C88.1356 82.1718 87.7587 82.1188 87.511 81.8753C86.1542 80.5092 84.7865 79.1643 83.3866 77.8512C82.9343 77.417 82.2128 77.6606 82.2774 78.2218C82.6543 81.4517 82.8481 84.7345 82.8481 88.0385C82.8481 88.3562 82.5897 88.5998 82.2451 88.5892C80.8882 88.568 79.5421 88.5151 78.196 88.4515C77.7114 88.4304 77.4314 88.8751 77.6683 89.2881C79.779 92.8992 81.7282 96.6268 83.4835 100.471C83.6989 100.947 83.2789 101.435 82.7404 101.329C78.5514 100.482 74.4269 99.4755 70.3563 98.3318C69.7101 98.1518 69.3117 98.7977 69.764 99.2743C71.7454 101.339 73.7054 103.425 75.6438 105.533C75.8807 105.787 75.8699 106.168 75.6222 106.391C75.4607 106.539 75.2884 106.687 75.1161 106.835C74.7823 107.132 74.8792 107.661 75.3207 107.873C77.3022 108.794 79.3052 109.684 81.3189 110.552C81.782 110.754 81.8682 111.336 81.4805 111.643C80.8882 112.109 80.2851 112.575 79.6821 113.03C79.2083 113.38 79.4021 114.079 80.0051 114.185C83.6235 114.767 87.2957 115.233 90.9894 115.561M103.503 100.016C101.478 103.542 99.2383 106.941 96.643 110.097C96.2984 110.521 95.62 110.076 95.943 109.62C98.2583 106.295 100.455 102.917 102.469 99.412C102.738 94.3077 102.609 89.2458 102.124 84.2474C102.071 83.7073 102.889 83.6226 102.954 84.1627C103.503 88.3774 103.804 92.6557 103.826 96.9657C107.272 90.5907 110.018 83.8556 112.042 76.8875C112.204 76.3262 112.979 76.6228 112.839 77.1734C110.966 84.2792 108.327 91.0566 104.87 97.5376C108.489 95.1549 111.999 92.518 115.348 89.6164C115.801 89.2246 116.264 89.9765 115.865 90.3365C111.956 93.9159 107.821 97.1351 103.514 100.005L103.503 100.016ZM96.783 115.583C98.8183 117.129 100.681 118.95 102.544 120.697C104.418 122.455 106.238 124.245 108.058 126.066C108.435 126.437 107.724 127.157 107.326 126.797C105.441 125.06 103.535 123.345 101.661 121.587C99.7875 119.829 97.8599 118.135 96.1261 116.25C95.7815 115.879 96.3846 115.297 96.783 115.593V115.583ZM90.634 100.196C88.0602 97.6964 85.4434 95.2502 82.7943 92.8357C82.3851 92.4651 82.945 91.9567 83.3327 92.285C85.6265 94.2547 87.8987 96.2668 90.1494 98.3C88.8787 93.4711 87.2849 88.7798 85.3896 84.2686C85.185 83.7814 85.9495 83.5802 86.1542 84.0462C88.071 88.4409 89.7079 93.0157 91.0324 97.7282C91.6032 95.4514 92.0878 93.164 92.4755 90.8766C92.5616 90.3683 93.38 90.5271 93.3047 91.0354C92.8954 93.99 92.3247 96.9445 91.614 99.8885C92.6908 104.05 93.5308 108.307 94.1016 112.649C98.6891 112.056 103.277 111.209 107.853 110.086C110.535 107.894 113.13 105.554 115.607 103.087C116.059 102.642 116.576 103.32 116.167 103.743C114.25 105.734 112.269 107.651 110.223 109.483C115.445 108.096 120.625 106.359 125.73 104.262C126.311 104.019 126.419 104.993 125.913 105.205C120.679 107.397 115.359 109.208 110.007 110.648C112.893 111.696 115.79 112.723 118.698 113.698C119.225 113.878 118.805 114.788 118.299 114.629C114.81 113.539 111.332 112.395 107.886 111.188C103.126 112.374 98.3553 113.274 93.5847 113.899C93.2616 113.941 92.9708 113.729 92.9385 113.422C92.4432 108.922 91.657 104.506 90.6125 100.196H90.634ZM77.1945 102.832C79.4129 104.167 81.642 105.49 83.8604 106.825C86.0788 108.159 88.3402 109.43 90.4509 110.934C90.8709 111.23 90.4078 111.876 89.9556 111.654C87.6295 110.489 85.4434 109.08 83.2573 107.693C81.0713 106.306 78.896 104.908 76.7422 103.478C76.2899 103.182 76.7422 102.578 77.1837 102.843L77.1945 102.832Z" fill="#F37600"/>
<path d="M34.4112 114.895C35.2188 116.409 36.0373 117.913 36.888 119.406C37.0818 119.756 36.748 120.073 36.4034 119.872C34.2066 118.601 31.9559 117.415 29.6406 116.303C29.3498 116.166 29.0267 116.388 29.0806 116.695C29.5221 119.194 30.0821 121.662 30.7605 124.076C30.8359 124.352 30.6098 124.574 30.3298 124.489C29.5544 124.256 28.7791 124.023 27.9929 123.812C27.7991 123.759 27.6053 123.854 27.5514 124.045C27.0453 125.972 26.6576 127.91 26.3884 129.858C26.3453 130.197 25.893 130.229 25.6884 129.911C25.0746 128.937 24.4823 127.952 23.9008 126.957C23.7931 126.777 23.5885 126.692 23.4054 126.756C23.2008 126.819 23.007 126.893 22.8024 126.967C22.5654 127.052 22.2854 126.872 22.2531 126.607C22.1562 125.771 22.0701 124.924 22.0055 124.076C21.9839 123.78 21.6609 123.589 21.4024 123.727C21.2839 123.79 21.1655 123.854 21.0578 123.918C20.7994 124.055 20.4763 123.875 20.4547 123.568C20.3471 122.213 20.2932 120.857 20.2717 119.48C20.2717 119.025 19.6255 118.909 19.4748 119.343C18.861 121.079 18.3333 122.837 17.8918 124.606C17.8595 124.754 17.741 124.871 17.5902 124.902C17.2133 124.977 16.8472 125.061 16.4703 125.146C16.3195 125.178 16.2011 125.305 16.1687 125.464C15.9857 126.364 15.8241 127.274 15.6841 128.185C15.6195 128.588 15.1026 128.651 14.9303 128.281C14.3811 127.116 13.8642 125.94 13.3581 124.744C13.2181 124.394 12.7335 124.415 12.6043 124.775C12.2381 125.803 11.8935 126.851 11.5812 127.899C11.4843 128.206 11.1289 128.302 10.9136 128.079C10.6659 127.815 10.4182 127.56 10.1813 127.296C10.052 127.147 9.83667 127.126 9.67514 127.243C8.95362 127.762 8.23211 128.302 7.52137 128.863C7.24138 129.085 6.86447 128.863 6.89677 128.471C6.97216 127.507 7.06908 126.544 7.18753 125.591C7.20907 125.379 7.10138 125.188 6.92908 125.125C6.60602 125.008 6.27218 124.892 5.93835 124.775C5.64759 124.68 5.58298 124.267 5.80912 124.013C6.59525 123.176 7.40291 122.361 8.22134 121.577C8.5121 121.302 8.38287 120.804 8.00596 120.794C6.73524 120.751 5.46452 120.73 4.19379 120.741C3.78458 120.741 3.67689 120.158 4.03226 119.893C4.85069 119.29 5.69066 118.697 6.53063 118.136C6.6814 118.04 6.76755 117.86 6.76755 117.691C6.76755 117.257 6.76755 116.822 6.76755 116.388C6.76755 116.219 6.86447 116.049 7.00446 115.954C8.72748 114.821 10.4828 113.783 12.2812 112.841C12.7335 112.608 12.5935 111.94 12.1089 112.015C10.6551 112.216 9.19054 112.47 7.73674 112.777C7.41368 112.841 7.17676 112.534 7.31676 112.205C7.38137 112.057 7.43522 111.909 7.49983 111.75C7.63982 111.422 7.41368 111.104 7.07984 111.178C6.14295 111.369 5.20607 111.57 4.27995 111.803C3.97842 111.877 3.75227 111.623 3.82765 111.305C3.89227 111.04 3.95688 110.776 4.02149 110.511C4.08611 110.278 3.97842 110.056 3.76304 110.013C2.61077 109.727 1.43697 109.462 0.273936 109.219C-0.113742 109.134 -0.0814355 108.552 0.317012 108.319C2.62154 106.974 4.99069 105.767 7.39214 104.708C7.62906 104.602 7.77982 104.358 7.74751 104.136C7.62906 103.246 7.52137 102.357 7.43522 101.467C7.40291 101.139 7.74751 100.811 8.08135 100.864C10.9243 101.245 13.735 101.764 16.4918 102.399C16.8364 102.473 17.1918 102.156 17.1379 101.838C16.6533 99.2963 16.2657 96.723 15.9857 94.1285C15.9426 93.7155 16.5564 93.3872 16.8795 93.6519C18.2364 94.7956 19.5825 95.9605 20.9178 97.1254C21.0793 97.2737 21.3701 97.2631 21.5747 97.1042C21.7147 96.9983 21.8547 96.903 21.9947 96.7971C22.2747 96.5853 22.6624 96.67 22.7485 96.9348C23.1147 98.1632 23.5023 99.3916 23.9115 100.609C24.0085 100.885 24.4069 100.959 24.6654 100.737C25.0638 100.408 25.4623 100.08 25.8715 99.7622C26.1838 99.5081 26.6576 99.6775 26.6361 100.027C26.5391 102.187 26.5391 104.337 26.6361 106.466C26.6361 106.624 26.7437 106.762 26.9053 106.815C29.0483 107.556 31.1374 108.382 33.1943 109.261C33.5281 109.41 33.5281 109.844 33.1943 109.981C32.7743 110.161 32.3543 110.341 31.9343 110.521C31.6543 110.649 31.622 110.998 31.8589 111.178C32.9035 111.983 33.9373 112.798 34.9496 113.624C35.1758 113.804 35.1542 114.133 34.9173 114.26C34.7988 114.323 34.6804 114.387 34.5619 114.44C34.3789 114.535 34.325 114.747 34.4219 114.937L34.4112 114.895Z" fill="#F37600"/>
<path d="M22.4981 110.139C25.9226 106.2 29.9609 102.8 34.6992 100.449C35.0223 100.29 35.4207 100.418 35.5822 100.735C35.7438 101.064 35.6038 101.455 35.2699 101.604C30.6178 103.69 26.4933 106.909 23.0473 110.605C22.7458 110.944 22.1858 110.478 22.4981 110.128V110.139Z" fill="#F37600"/>
<path d="M107.636 35.1531C106.376 35.5343 105.116 35.9368 103.867 36.3498C103.576 36.4451 103.382 36.1591 103.587 35.9262C104.847 34.486 106.064 32.9928 107.227 31.4573C107.378 31.2561 107.248 30.9913 107.011 30.9913C105.051 30.9702 103.102 31.0443 101.185 31.2137C100.959 31.2349 100.83 31.0337 100.927 30.8431C101.218 30.303 101.487 29.7629 101.767 29.2228C101.832 29.0852 101.789 28.9263 101.649 28.8734C100.259 28.238 98.8378 27.6873 97.3948 27.2214C97.1471 27.1367 97.1794 26.8084 97.4487 26.7025C98.2671 26.3848 99.1071 26.0883 99.9363 25.7918C100.087 25.7388 100.184 25.6011 100.162 25.4529C100.141 25.294 100.109 25.1458 100.087 24.9869C100.055 24.7963 100.227 24.6163 100.442 24.6269C101.089 24.6692 101.745 24.7222 102.392 24.7963C102.618 24.8175 102.812 24.6057 102.736 24.4045C102.704 24.3092 102.672 24.2139 102.639 24.1186C102.564 23.9174 102.758 23.695 102.984 23.7162C104.028 23.8221 105.062 23.9703 106.107 24.1503C106.451 24.2139 106.634 23.7585 106.322 23.5785C105.084 22.8902 103.824 22.2654 102.542 21.6935C102.435 21.6406 102.359 21.5453 102.359 21.4288C102.359 21.1428 102.338 20.8569 102.327 20.5816C102.327 20.4651 102.241 20.3592 102.133 20.3168C101.476 20.0627 100.809 19.8191 100.13 19.5861C99.8393 19.4908 99.8609 19.099 100.162 19.0249C101.121 18.7813 102.09 18.5589 103.059 18.3577C103.339 18.2942 103.393 17.9447 103.135 17.8071C102.402 17.3941 101.659 17.0022 100.905 16.6316C100.679 16.5257 100.658 16.2398 100.862 16.1127C101.099 15.9644 101.325 15.8268 101.562 15.6785C101.692 15.6044 101.735 15.4455 101.67 15.3185C101.379 14.7149 101.067 14.1112 100.744 13.5182C100.615 13.2852 100.841 13.0417 101.132 13.1158C101.853 13.3064 102.564 13.5076 103.275 13.7194C103.436 13.7724 103.598 13.7194 103.662 13.5923C103.792 13.37 103.932 13.137 104.061 12.9146C104.179 12.7134 104.502 12.724 104.653 12.9252C105.181 13.6135 105.687 14.323 106.171 15.0325C106.344 15.2867 106.731 15.2549 106.796 14.9796C107.001 14.0583 107.194 13.1264 107.356 12.1839C107.41 11.8874 107.873 11.8874 108.024 12.1839C108.368 12.8722 108.702 13.5606 109.014 14.2595C109.068 14.376 109.187 14.4713 109.316 14.4925C109.65 14.5454 109.973 14.609 110.307 14.6725C110.436 14.6937 110.554 14.789 110.608 14.9055C111.233 16.3245 111.771 17.7541 112.245 19.2049C112.364 19.565 112.88 19.5544 112.902 19.1943C112.945 18.093 112.956 16.9917 112.923 15.8797C112.923 15.6362 113.182 15.5091 113.419 15.6468C113.527 15.7103 113.634 15.7738 113.731 15.848C113.957 15.9962 114.227 15.8691 114.227 15.6256C114.216 14.9161 114.183 14.196 114.14 13.4864C114.13 13.2535 114.345 13.1264 114.582 13.2217C114.776 13.3064 114.97 13.3911 115.153 13.4758C115.325 13.55 115.497 13.5076 115.573 13.3594C115.95 12.5439 116.305 11.7285 116.66 10.9025C116.779 10.6378 117.22 10.7331 117.339 11.0614C118.039 12.9358 118.631 14.8419 119.105 16.7481C119.148 16.9281 119.32 17.0764 119.492 17.087C120.182 17.1187 120.871 17.1717 121.56 17.2246C121.808 17.2458 122.012 17.5423 121.937 17.7753C121.259 19.8085 120.472 21.7994 119.622 23.7373C119.514 23.9809 119.708 24.288 119.966 24.288C121.959 24.288 123.972 24.3515 125.975 24.4998C126.298 24.521 126.46 25.0293 126.212 25.2199C125.157 26.0565 124.091 26.8931 123.014 27.7085C122.885 27.8038 122.852 28.0156 122.939 28.1956C123.003 28.3121 123.057 28.4286 123.111 28.5451C123.229 28.7781 123.111 29.0534 122.895 29.0746C121.915 29.1805 120.925 29.2864 119.956 29.424C119.729 29.4558 119.622 29.7417 119.751 29.9641C119.945 30.303 120.139 30.6419 120.332 30.9807C120.483 31.2455 120.289 31.5738 120.02 31.5102C118.394 31.1396 116.768 30.8431 115.131 30.6207C115.013 30.5995 114.894 30.6631 114.83 30.7689C113.968 32.2409 113.063 33.66 112.105 35.0472C111.944 35.2696 111.62 35.2167 111.556 34.9519C111.48 34.6236 111.405 34.2848 111.319 33.9565C111.265 33.7341 111.007 33.66 110.824 33.8082C110.07 34.4648 109.305 35.1108 108.541 35.7461C108.368 35.8838 108.121 35.8309 108.067 35.6297C108.034 35.5343 108.002 35.439 107.981 35.3437C107.938 35.1955 107.776 35.1213 107.625 35.1743L107.636 35.1531Z" fill="#F37600"/>
<path d="M114.971 29.5725C118.223 32.0611 118.277 37.0277 115.983 40.1729C113.635 43.5616 109.048 44.2076 105.247 43.4557C104.256 43.2863 104.568 41.8143 105.548 42.0473C108.929 42.7992 112.914 42.4497 115.1 39.5269C117.211 36.8901 117.297 32.3788 114.54 30.1444C114.152 29.8796 114.594 29.276 114.971 29.5619V29.5725Z" fill="#F37600"/>
<path d="M56.2705 121.163C51.7799 120.284 49.8846 114.809 51.6291 110.976C53.2552 107.195 57.4012 105.236 61.1811 105.533C68.827 106.03 73.9637 114.269 72.0361 121.28C69.3546 132.272 53.6967 133.85 46.1586 126.765C32.7298 113.856 45.1032 92.9095 56.8197 83.2411C66.964 74.7057 79.2297 69.3261 91.2262 63.9889C104.978 57.5609 122.714 50.9952 130.199 37.2073C137.737 22.3711 129.251 3.60598 111.418 2.92823C105.064 2.4411 98.6244 4.40021 94.1553 8.93263C84.2264 18.9188 86.9832 33.808 99.3351 40.3525C99.6905 40.5537 99.8089 40.9879 99.6151 41.3373C99.4213 41.6868 98.969 41.8033 98.6136 41.6127C95.6952 39.9924 93.003 37.8745 90.8816 35.2694C78.9928 20.0837 92.863 -0.682881 111.525 1.11738C135.529 2.18695 142.378 31.0335 126.214 46.251C103.449 68.2354 62.2149 70.311 46.4709 99.7188C43.6925 105.31 41.5387 111.6 42.9387 117.615C44.1986 123.62 49.4215 128.597 55.689 129.222C61.6657 130.069 68.6762 127.009 69.8931 120.814C70.5392 117.954 69.8715 114.841 68.1808 112.511C65.004 107.788 57.1859 106.528 54.6767 112.204C53.8367 114.11 54.7413 117.34 56.9597 117.647C59.4258 118.071 58.7258 121.661 56.2813 121.184L56.2705 121.163Z" fill="#F37600"/>
<path d="M57.1929 121.311C59.4827 121.311 61.3389 119.486 61.3389 117.234C61.3389 114.983 59.4827 113.157 57.1929 113.157C54.9031 113.157 53.0469 114.983 53.0469 117.234C53.0469 119.486 54.9031 121.311 57.1929 121.311Z" fill="#F37600"/>
<path d="M84.4333 66.9649C95.2452 62.6019 107.737 59.7745 119.152 63.5868C124.536 65.2388 131.989 71.1796 127.896 77.1946C127.121 78.243 126.076 78.9949 124.989 79.5985C124.633 79.7891 124.192 79.6726 123.987 79.3232C123.783 78.9737 123.923 78.5184 124.289 78.3277C126.076 77.3323 127.606 75.6591 127.466 73.5729C127.326 71.6032 126.012 69.75 124.332 68.4157C117.106 62.909 106.994 63.2903 98.4328 65.0693C93.9853 66.033 89.6562 67.505 85.4779 69.3264C83.8949 69.9936 82.8288 67.6533 84.4441 66.9543L84.4333 66.9649Z" fill="#F37600"/>
<path d="M39.7725 88.0282C36.4341 87.9329 33.8388 90.9616 35.4542 93.8526C37.0802 96.5 41.0216 96.7436 43.7785 95.6528C45.7707 94.8798 47.4614 93.4396 48.7321 91.6817C49.626 90.4427 51.5536 91.7876 50.6598 93.0266C47.666 97.1778 41.8078 99.7828 36.7895 97.4954C32.525 95.8328 31.7712 89.7437 35.928 87.4987C36.7787 86.9692 40.4509 85.7937 40.494 87.3187C40.494 87.7105 40.1709 88.0282 39.7725 88.0388V88.0282Z" fill="#F37600"/>
<path d="M91.0987 59.2676C88.2342 57.3085 87.028 53.0514 89.1387 50.1074C93.2309 43.7324 104.021 45.5538 105.281 53.1996C105.884 56.7472 103.601 60.0724 100.855 62.0527C100.349 62.4339 99.6168 62.3386 99.2291 61.8409C98.8307 61.3326 98.9492 60.5807 99.4768 60.2101C101.706 58.664 103.58 56.2389 103.203 53.4856C102.384 47.5765 93.8016 46.0727 90.5495 50.9864C88.8372 53.3585 89.7418 56.4083 92.0248 58.1345C92.7571 58.7275 91.8525 59.8288 91.0987 59.257V59.2676Z" fill="#F37600"/>
<path d="M20.3419 77.8945L21.6234 73.7963C21.7311 73.4468 21.4296 73.0974 21.0634 73.1503L20.0296 73.2986C19.7712 73.3409 19.5235 73.1715 19.4589 72.9279L18.6512 69.8039C18.5328 69.338 17.8759 69.285 17.682 69.7404L14.9683 76.2213C14.796 76.6343 14.2144 76.6343 14.0314 76.2319L11.7268 71.1065C11.5545 70.7147 10.9946 70.7041 10.8007 71.0853L9.92845 72.7903C9.79922 73.055 9.46539 73.1503 9.20694 72.9915L6.5255 71.3818C6.10551 71.1277 5.59937 71.5618 5.79321 72.0066L7.02086 74.8553C7.13932 75.12 6.99932 75.4377 6.70857 75.533L4.86709 76.1366C4.45788 76.2743 4.39326 76.8144 4.7594 77.0367L9.58385 80.0231C9.96076 80.256 9.87461 80.8279 9.43308 80.9338L2.51949 82.6387C2.04566 82.7552 1.99181 83.4012 2.4441 83.5918L5.47015 84.8308C5.70706 84.9261 5.83629 85.1909 5.76091 85.445L5.45938 86.4299C5.35169 86.7793 5.65322 87.1288 6.03013 87.0759L10.3377 86.4299C10.7361 86.3663 11.0484 86.7687 10.8869 87.1288L9.44385 90.3269C9.22848 90.7929 9.78846 91.2376 10.2084 90.9411L13.9022 88.3043C14.2037 88.0925 14.6129 88.1031 14.8929 88.3466L15.3775 88.7596C15.6575 88.9926 16.0882 88.8761 16.1959 88.5267L17.3266 84.8414C17.3805 84.6508 17.542 84.5237 17.7359 84.4919L21.6019 83.9201C21.968 83.8672 22.1511 83.4647 21.9572 83.1576L21.6126 82.6281C21.4188 82.321 21.4619 81.9186 21.7203 81.6539L24.9079 78.4346C25.2741 78.064 24.9079 77.4603 24.4018 77.598L20.9773 78.5299C20.5896 78.6358 20.2342 78.2758 20.3527 77.8945H20.3419Z" fill="#F37600"/>
<path d="M64.3326 90.2312L63.8373 92.5715C63.7942 92.7727 63.9773 92.9528 64.1819 92.8998L64.7526 92.7621C64.8926 92.7304 65.0434 92.8045 65.0865 92.9422L65.7003 94.6365C65.7972 94.8907 66.1633 94.8801 66.2387 94.6259L67.4125 90.8878C67.4879 90.6548 67.811 90.623 67.9294 90.8348L69.4801 93.567C69.5986 93.7682 69.9001 93.7576 69.997 93.5352L70.3955 92.5398C70.4601 92.3915 70.6324 92.3174 70.7832 92.3915L72.3554 93.1434C72.6031 93.2599 72.8616 92.9951 72.7323 92.7621L71.9031 91.2478C71.8278 91.0996 71.8924 90.9195 72.0431 90.856L73.0339 90.4324C73.2492 90.3371 73.26 90.03 73.0446 89.9241L70.2124 88.5051C69.9863 88.3886 70.0078 88.0709 70.2447 87.9968L73.9923 86.7048C74.2507 86.6201 74.24 86.2494 73.9923 86.1753L72.2477 85.6352C72.1077 85.5929 72.0216 85.4552 72.0539 85.3069L72.1724 84.7457C72.2154 84.5445 72.0324 84.3645 71.8278 84.4174L69.4694 84.9893C69.254 85.0422 69.0602 84.841 69.1355 84.6292L69.7709 82.7866C69.8678 82.5112 69.534 82.2994 69.3186 82.4901L67.4018 84.1421C67.251 84.2797 67.0141 84.2903 66.8525 84.1738L66.5618 83.9726C66.3895 83.8561 66.1633 83.9514 66.1203 84.1421L65.6787 86.2388C65.6572 86.3447 65.5711 86.4295 65.4634 86.4506L63.3419 86.9589C63.1373 87.0119 63.0619 87.2449 63.1804 87.4037L63.3958 87.6791C63.525 87.8379 63.5142 88.0603 63.3958 88.2191L61.7912 90.1676C61.6081 90.39 61.845 90.7077 62.1143 90.6018L63.9665 89.9135C64.1819 89.8394 64.3973 90.0194 64.3434 90.2312H64.3326Z" fill="#F37600"/>
<path d="M130.683 54.1194L129.466 52.1709C129.358 52.0015 129.111 52.0015 129.003 52.1709L128.702 52.6369C128.626 52.7534 128.475 52.7957 128.346 52.7322L126.795 51.9485C126.559 51.832 126.311 52.0756 126.429 52.3086L128.109 55.6655C128.217 55.8773 128.012 56.1103 127.786 56.0362L124.889 55.1361C124.674 55.0725 124.469 55.2843 124.556 55.4855L124.943 56.428C124.997 56.5763 124.922 56.7351 124.771 56.7881L123.166 57.2752C122.919 57.3493 122.908 57.6988 123.166 57.7835L124.76 58.3024C124.911 58.3553 124.986 58.5142 124.922 58.6624L124.512 59.6049C124.426 59.8167 124.62 60.0285 124.836 59.965L127.754 59.1284C127.98 59.0649 128.185 59.2978 128.077 59.5096L126.332 62.8242C126.214 63.0572 126.462 63.3008 126.699 63.1843L128.271 62.4324C128.4 62.3689 128.551 62.4112 128.626 62.5277L128.917 62.9937C129.025 63.1631 129.272 63.1631 129.38 62.9937L130.64 61.0769C130.758 60.8969 131.028 60.9181 131.114 61.1087L131.9 62.803C132.018 63.0466 132.395 62.9937 132.417 62.7183L132.654 60.3356C132.675 60.145 132.826 59.9862 133.02 59.965L133.354 59.9226C133.548 59.8909 133.655 59.6791 133.548 59.5202L132.449 57.7729C132.395 57.6882 132.395 57.5717 132.449 57.487L133.58 55.7608C133.688 55.602 133.58 55.3796 133.397 55.3478L133.063 55.2949C132.869 55.2631 132.718 55.1043 132.708 54.9137L132.525 52.531C132.503 52.2556 132.126 52.1921 132.008 52.4357L131.178 54.1088C131.081 54.2995 130.812 54.31 130.705 54.13L130.683 54.1194Z" fill="#F37600"/>
<path d="M54.5678 2.82309L52.5648 3.35258C52.3925 3.39494 52.3279 3.60673 52.4463 3.73381L52.7694 4.10445C52.8556 4.19976 52.8448 4.33743 52.7694 4.42214L51.6925 5.53407C51.531 5.70351 51.6817 5.96825 51.9079 5.93648L55.2462 5.37522C55.4616 5.34345 55.6124 5.56584 55.4831 5.74587L53.9647 7.94854C53.8463 8.11798 53.9863 8.34036 54.1909 8.31918L55.1062 8.23446C55.2462 8.22387 55.3647 8.32977 55.3755 8.46744L55.397 9.93942C55.397 10.1724 55.6985 10.2677 55.8385 10.0771L56.6893 8.86985C56.7754 8.75336 56.9369 8.73218 57.0446 8.82749L57.7554 9.40993C57.9169 9.53701 58.1538 9.43111 58.1538 9.2299V6.57187C58.1538 6.36007 58.423 6.25418 58.5738 6.40243L61.0183 8.711C61.1906 8.86985 61.4599 8.72159 61.4276 8.49921L61.1691 6.98487C61.1476 6.86838 61.2229 6.75189 61.3414 6.72012L61.826 6.59305C61.9983 6.55069 62.0629 6.33889 61.9445 6.21182L60.5876 4.66571C60.4584 4.52804 60.5445 4.30566 60.7383 4.27389L62.4075 4.04091C62.6552 4.00914 62.6983 3.67027 62.4614 3.58555L60.4476 2.79132C60.2861 2.72778 60.1891 2.55834 60.2107 2.38891L60.2537 2.09239C60.2753 1.92296 60.1245 1.78529 59.9522 1.82765L58.1538 2.30419C58.0677 2.32537 57.9708 2.30419 57.9061 2.23006L56.7 0.8428C56.5816 0.715723 56.377 0.736902 56.3016 0.895749L56.1724 1.16049C56.097 1.31934 55.9247 1.40406 55.7524 1.3617L53.6309 0.916928C53.394 0.863979 53.2325 1.16049 53.4155 1.32993L54.6647 2.45245C54.8047 2.57952 54.7509 2.8125 54.5678 2.85486V2.82309Z" fill="#F37600"/>
<path d="M123.282 125.474L122.539 127.984C122.475 128.195 122.658 128.407 122.884 128.375L123.519 128.269C123.681 128.248 123.832 128.344 123.875 128.492L124.392 130.398C124.467 130.684 124.876 130.705 124.984 130.43L126.588 126.448C126.685 126.194 127.051 126.183 127.159 126.437L128.613 129.551C128.721 129.784 129.065 129.794 129.173 129.551L129.69 128.502C129.765 128.344 129.97 128.28 130.131 128.375L131.79 129.339C132.048 129.487 132.36 129.223 132.231 128.947L131.456 127.221C131.38 127.062 131.467 126.872 131.639 126.808L132.759 126.427C133.007 126.342 133.039 126.014 132.824 125.876L129.851 124.086C129.614 123.949 129.668 123.599 129.937 123.525L134.148 122.424C134.439 122.35 134.46 121.947 134.18 121.841L132.317 121.111C132.167 121.047 132.091 120.888 132.134 120.74L132.317 120.136C132.382 119.925 132.188 119.713 131.962 119.745L129.334 120.179C129.087 120.221 128.904 119.978 129.001 119.755L129.851 117.796C129.981 117.51 129.636 117.245 129.377 117.425L127.138 119.067C126.954 119.205 126.707 119.194 126.535 119.046L126.233 118.802C126.061 118.665 125.791 118.739 125.738 118.95L125.07 121.206C125.038 121.323 124.941 121.407 124.822 121.428L122.464 121.81C122.238 121.841 122.13 122.096 122.249 122.276L122.464 122.593C122.593 122.784 122.561 123.027 122.41 123.186L120.493 125.177C120.278 125.4 120.493 125.77 120.805 125.686L122.884 125.082C123.121 125.018 123.336 125.23 123.272 125.463L123.282 125.474Z" fill="#F37600"/>
<path d="M14.1834 6.84721L14.7111 3.87149C14.7541 3.61733 14.5172 3.39495 14.2588 3.46908L13.548 3.67028C13.365 3.72323 13.1819 3.62792 13.1173 3.45849L12.2773 1.34053C12.1481 1.02284 11.685 1.04402 11.5881 1.3723L10.2635 6.14829C10.1774 6.4448 9.76816 6.50834 9.60662 6.23301L7.52824 2.83369C7.36671 2.57954 6.97903 2.61131 6.88211 2.89723L6.41905 4.168C6.34367 4.35862 6.12829 4.45393 5.93445 4.36921L3.90991 3.47967C3.58684 3.342 3.27455 3.68087 3.44685 3.97739L4.55604 5.86237C4.66373 6.04239 4.58834 6.27537 4.39451 6.36009L3.15609 6.94252C2.8761 7.0696 2.88687 7.46142 3.15609 7.5885L6.80673 9.27227C7.09748 9.40994 7.07595 9.81235 6.78519 9.92884L2.08997 11.7185C1.76691 11.8456 1.78844 12.3009 2.12228 12.3963L4.35143 12.9999C4.5345 13.0528 4.64219 13.2223 4.60988 13.4023L4.48066 14.1224C4.43758 14.3765 4.67449 14.5989 4.93295 14.5248L7.89438 13.6988C8.1636 13.6247 8.42205 13.8788 8.3359 14.1436L7.61439 16.5051C7.5067 16.8546 7.93745 17.1193 8.20668 16.8651L10.5651 14.7048C10.7589 14.5248 11.0496 14.5036 11.265 14.6519L11.6419 14.8954C11.8573 15.0331 12.1481 14.9166 12.2019 14.6625L12.6757 11.9833C12.6973 11.8456 12.805 11.7397 12.9342 11.6973L15.5941 10.9666C15.8418 10.8925 15.9387 10.596 15.7772 10.3948L15.4864 10.0559C15.3249 9.85471 15.3141 9.56879 15.4756 9.36758L17.4248 6.83663C17.651 6.5507 17.3387 6.15888 16.9941 6.29655L14.6787 7.24963C14.4203 7.35552 14.1403 7.13314 14.1834 6.8578V6.84721Z" fill="#F37600"/>
<path d="M91.066 74.6219C91.1091 74.982 91.486 75.2573 91.8521 75.1726C92.3259 75.0667 92.7782 74.8655 93.1874 74.5795C93.3921 75.2573 94.0597 76.7081 94.932 76.5598C95.8043 76.4116 95.9658 74.8443 95.9335 74.1242C96.4181 74.2618 96.9135 74.3148 97.3873 74.2619C97.7534 74.2195 98.0334 73.8488 97.9473 73.4888C97.5704 71.8262 95.6858 70.3648 93.9305 70.6507C92.1752 70.9367 90.8722 72.9275 91.066 74.6113V74.6219Z" fill="#F37600"/>
<path d="M12.1731 25.7495C12.0331 25.4107 11.5916 25.2624 11.2577 25.4318C10.8378 25.6648 10.4608 25.9825 10.1486 26.3637C9.76087 25.7707 8.70553 24.5635 7.90863 24.9341C7.11174 25.3048 7.4025 26.872 7.63941 27.5498C7.13328 27.5498 6.64868 27.6345 6.20716 27.8145C5.86255 27.9522 5.71179 28.3864 5.88409 28.7147C6.71329 30.2078 8.94244 31.0974 10.547 30.3455C12.1516 29.5936 12.8408 27.3168 12.1731 25.7495Z" fill="#F37600"/>
<path d="M85.1204 62.5383C84.8835 62.1465 84.3127 62.03 83.9358 62.3053C83.4512 62.6548 83.042 63.1207 82.7189 63.6502C82.1374 62.9725 80.619 61.6594 79.6929 62.2524C78.7668 62.8454 79.4021 64.741 79.8114 65.5352C79.1868 65.6093 78.5945 65.8105 78.0776 66.1071C77.6791 66.34 77.5607 66.9013 77.8407 67.2719C79.1329 68.9769 82.0513 69.7076 83.9035 68.5109C85.8096 67.2719 86.2188 64.3809 85.1312 62.5489L85.1204 62.5383Z" fill="#F37600"/>
<path d="M77.1402 9.20821C77.3664 9.57885 77.9048 9.67416 78.2602 9.42C78.7125 9.08113 79.0894 8.64695 79.3801 8.13864C79.9401 8.76344 81.3724 9.99185 82.2446 9.40941C83.1169 8.82698 82.4923 7.06907 82.0939 6.32779C82.6754 6.24307 83.2246 6.05245 83.72 5.76653C84.0969 5.54415 84.1938 5.01466 83.9354 4.66519C82.6969 3.07673 79.9509 2.42016 78.2279 3.57445C76.5049 4.72873 76.1064 7.48207 77.151 9.19762L77.1402 9.20821Z" fill="#F37600"/>
<path d="M125.825 40.8297C125.621 40.5332 125.158 40.4803 124.878 40.7132C124.522 41.0204 124.221 41.4016 124.005 41.8464C123.51 41.3486 122.229 40.4061 121.539 40.9356C120.85 41.4651 121.464 42.9053 121.841 43.509C121.356 43.6043 120.904 43.7949 120.516 44.0596C120.215 44.2608 120.161 44.7162 120.398 44.9915C121.518 46.2517 123.855 46.6435 125.233 45.5845C126.655 44.4938 126.784 42.1958 125.815 40.8191L125.825 40.8297Z" fill="#F37600"/>
<path d="M50.9922 98.1198C51.326 98.3845 51.8644 98.2998 52.1013 97.9398C52.4029 97.4738 52.6075 96.9443 52.7044 96.3831C53.4367 96.7855 55.192 97.4315 55.7951 96.616C56.3981 95.8006 55.2243 94.371 54.5997 93.8098C55.1166 93.545 55.5581 93.185 55.9135 92.7508C56.1827 92.4225 56.0966 91.893 55.7304 91.66C54.0397 90.6011 51.2721 90.9082 50.066 92.5496C48.8276 94.2439 49.4414 96.8808 51.0029 98.1198H50.9922Z" fill="#F37600"/>
<path d="M127.197 86.1541C126.82 86.3976 126.734 86.9483 127.025 87.2978C127.402 87.7425 127.865 88.1132 128.414 88.3885C127.779 88.9815 126.562 90.4959 127.197 91.3431C127.833 92.1902 129.663 91.4913 130.428 91.0677C130.536 91.6608 130.762 92.2114 131.085 92.688C131.333 93.0586 131.893 93.1433 132.248 92.8574C133.863 91.5337 134.434 88.7168 133.153 87.0224C131.828 85.2645 128.963 85.0316 127.208 86.1647L127.197 86.1541Z" fill="#F37600"/>
</svg>
