<svg width="824" height="1168" viewBox="0 0 824 1168" fill="none" xmlns="http://www.w3.org/2000/svg">
<g opacity="0.5">
<path d="M124.507 802.354C124.507 802.354 172.705 973.377 305.25 1041.46C437.392 1109.55 489.205 1167.45 489.205 1167.45C489.205 1167.45 445.425 972.841 294.003 887.061C198.411 832.913 124.105 802.89 124.105 802.89" fill="#1F3834"/>
<path fill-rule="evenodd" clip-rule="evenodd" d="M824 0.738569C790.084 0.268034 759.946 0 734.609 0C516.011 0 332.373 38.1242 210.216 128.871C72.3867 231.967 -2.35444 418.829 0.0565617 570.252C1.26206 648.111 20.1483 729.729 84.4417 801.145C72.3867 758.725 63.1445 724.36 62.3408 675.496C61.1353 606.228 72.7885 541.793 93.6838 485.949C138.689 350.098 290.984 216.932 562.624 208.878C634.411 206.819 738.563 211.39 824 215.57V0.738569Z" fill="#1F3834"/>
</g>
</svg>
