<svg width="210" height="58" viewBox="0 0 210 58" fill="none" xmlns="http://www.w3.org/2000/svg">
<g clip-path="url(#clip0_6917_285)">
<path d="M78.8604 51.9892L79.4183 51.9714C81.508 51.9179 82.9071 52.853 83.1196 54.5984C83.155 54.9012 83.1727 55.1951 83.155 55.4622C83.0842 56.7001 82.3935 57.4303 81.1007 57.6618C80.6491 57.7776 80.0912 57.8132 79.4537 57.7954L78.0104 57.7598H76.815C76.9035 57.0474 76.9301 55.9342 76.9301 54.4203V50.5465C76.9301 48.9525 76.8947 47.8571 76.8327 47.2427H81.8622V48.0709C81.4283 47.9551 80.2329 47.8839 78.276 47.866C78.2229 48.6319 78.2052 49.5224 78.2052 50.5376V57.1364C78.3734 57.1364 78.6302 57.1364 78.949 57.1542C79.2855 57.172 79.5422 57.172 79.6928 57.172C80.2506 57.172 80.6668 57.0741 80.9856 56.8693C81.6054 56.5487 81.9242 55.952 81.9242 55.106C81.9242 54.1799 81.57 53.4942 81.1538 53.1558C80.4631 52.6304 79.6042 52.5591 79.0995 52.5947L78.8604 51.9714V51.9892Z" fill="white"/>
<path d="M89.7607 56.0678C88.9283 57.9913 87.9277 58.3208 86.4313 57.644C86.2985 57.5817 86.2276 57.4392 86.263 57.2967L86.3516 56.9138C86.8032 57.1631 87.2636 57.3056 87.6975 57.3056C87.9366 57.3056 88.1668 57.1364 88.4236 56.798C88.6715 56.4596 88.7955 56.1034 88.7778 55.7472L86.4844 50.0389C85.9266 48.6319 85.4927 47.7057 85.2093 47.2427H86.9803C86.9803 47.2427 87.0334 47.4653 87.1485 47.866L87.6709 49.4245C87.8923 50.0478 88.1048 50.6267 88.3085 51.1343L89.6721 54.6073L91.7796 49.558C92.1869 48.5963 92.4702 47.8126 92.6385 47.2427H93.7365C93.2317 48.2044 92.7979 49.1395 92.4083 50.0033L89.7695 56.0678H89.7607Z" fill="white"/>
<path d="M96.8445 56.0142C97.0481 55.5601 97.2164 54.999 97.3669 54.3044C97.6857 52.933 97.8894 50.6444 97.8894 47.857C97.4023 47.857 96.9507 47.9105 96.9507 47.9105V47.2515H104.309C104.238 47.9283 104.212 49.2641 104.212 51.2855V54.438C104.212 55.943 104.247 57.0651 104.327 57.7775H102.928V50.5642C102.928 50.3238 102.91 49.4511 102.857 47.9105C102.264 47.8748 100.856 47.857 98.6509 47.857C98.6509 53.5297 97.7388 58.0625 95.6845 58.0179C95.2595 58.0001 94.9584 57.9022 94.7548 57.6973L94.9407 57.074L95.0293 57.1274C95.1621 57.1986 95.3834 57.2788 95.6048 57.2788C96.0564 57.261 96.446 56.9404 96.8533 56.041" fill="white"/>
<path d="M110.587 51.9892L111.145 51.9714C113.447 51.9179 114.899 53.0845 114.899 55.204C114.899 56.5042 114.094 57.457 112.827 57.6618C112.376 57.7776 111.836 57.8132 111.18 57.7954L109.728 57.7598H108.533C108.621 57.0474 108.648 55.9342 108.648 54.4203V50.5465C108.648 49.3621 108.612 48.2579 108.559 47.2427H110.038C109.95 47.9551 109.923 49.0504 109.923 50.5465V57.1453C110.091 57.1453 110.339 57.1453 110.667 57.1631C111.003 57.181 111.26 57.181 111.411 57.181C111.968 57.181 112.385 57.083 112.703 56.8782C113.359 56.5398 113.677 55.9431 113.677 55.1149C113.677 54.1888 113.323 53.5031 112.907 53.1647C112.278 52.7105 111.561 52.6036 111.048 52.5947C110.906 52.5947 110.782 52.5057 110.738 52.3721L110.587 51.9714V51.9892Z" fill="white"/>
<path d="M118.601 50.2256C118.601 49.1926 118.565 48.1952 118.486 47.2246L120.186 47.1889C120.788 47.1711 121.195 47.1533 121.399 47.1533C123.17 47.1533 124.312 47.9192 124.312 49.2015C124.312 50.3325 123.621 51.0271 122.222 51.2854C124.241 51.4189 125.552 52.541 125.552 54.3488C125.552 55.2838 125.18 56.0942 124.454 56.7888C123.728 57.4834 122.771 57.8218 121.594 57.8218C121.505 57.8218 121.16 57.804 120.531 57.7862C119.911 57.7684 119.238 57.7506 118.494 57.7506C118.565 56.3257 118.592 55.2304 118.592 54.4467V50.2167L118.601 50.2256ZM120.434 51.0538H120.682C121.133 51.0538 121.594 50.9648 122.134 50.751C122.692 50.5284 123.072 50.003 123.072 49.3084C123.072 48.3555 122.479 47.8568 121.284 47.7856C120.54 47.7856 120.071 47.7856 119.867 47.8034C119.867 52.728 119.885 55.8449 119.902 57.145L121.452 57.1806C122.178 57.1985 122.816 56.9224 123.373 56.3703C123.931 55.8092 124.215 55.1503 124.215 54.3577C124.215 53.3959 123.763 52.6479 123.223 52.2917C122.957 52.1046 122.63 51.9533 122.249 51.8553C121.647 51.6772 121.248 51.6327 120.832 51.6238C120.664 51.6238 120.522 51.4991 120.487 51.3388L120.425 51.0627L120.434 51.0538Z" fill="white"/>
<path d="M135.726 54.4469C136.213 55.8005 136.665 56.9047 137.054 57.7685H135.372C135.115 56.789 134.779 55.6847 134.362 54.4469L133.875 53.022C133.725 53.0042 133.318 53.0042 132.627 53.0042H131.715C131.246 53.0042 130.874 53.022 130.608 53.0398L129.988 54.6784C129.448 56.1834 129.094 57.2164 128.908 57.7596H127.916C128.474 56.5218 128.926 55.4532 129.262 54.5626L132.105 47.2781L133.114 47.1802L135.726 54.4469ZM132.627 52.3987C133.185 52.3987 133.539 52.3987 133.654 52.3809L132.308 48.4893L130.847 52.3987H132.636H132.627Z" fill="white"/>
<path d="M142.536 52.2117L142.385 51.615L142.837 51.6328C143.12 51.6506 143.58 51.5794 144.183 51.3657C144.802 51.143 145.289 50.484 145.289 49.5846C145.289 48.4358 144.333 47.8392 143.235 47.8214C143.085 47.8214 142.828 47.8214 142.491 47.8392H141.73V54.4558C141.73 55.56 141.765 56.6554 141.845 57.7596H140.348C140.419 56.3348 140.446 55.2394 140.446 54.4558V50.582C140.446 49.4688 140.41 48.3468 140.331 47.2425H141.411C141.526 47.2425 141.951 47.2247 142.66 47.2069C143.386 47.1713 143.82 47.1713 143.97 47.2069C145.431 47.3227 146.529 48.1509 146.529 49.5223C146.529 50.2881 146.193 50.9471 145.502 51.4725C144.829 51.9979 143.935 52.2295 142.846 52.2206L142.527 52.2027L142.536 52.2117Z" fill="white"/>
<path d="M149.406 53.6039L149.404 54.0225L178.633 54.1507L178.635 53.7322L149.406 53.6039Z" fill="white"/>
<path d="M41.5354 53.12L41.5336 53.5386L70.763 53.6668L70.7648 53.2483L41.5354 53.12Z" fill="white"/>
<path d="M199.109 8.01472C199.109 8.01472 202.332 9.1635 205.352 7.4715C208.362 5.7795 210.009 5.50344 210.009 5.50344C210.009 5.50344 206.644 4.28341 202.943 5.81512C200.499 6.83032 199.118 8.01472 199.118 8.01472" fill="white"/>
<path d="M2.745 13.2866C2.745 13.2866 3.80757 16.1274 6.72965 17.2584C9.64288 18.3893 10.7851 19.3511 10.7851 19.3511C10.7851 19.3511 9.81997 16.1185 6.48172 14.6937C4.37428 13.7942 2.73615 13.2955 2.73615 13.2955" fill="white"/>
<path d="M121.771 39.2276V25.6738H111.004V39.2276H107.878V9.84912H111.004V22.7707H121.771V9.84912H124.906V39.2276H121.771Z" fill="white"/>
<path d="M145.024 36.387L145.52 38.0968C144.236 39.1921 142.253 39.7354 139.552 39.7354C136.408 39.7354 133.92 38.5064 132.105 36.0397C130.281 33.5818 129.369 29.7436 129.369 24.543C129.369 19.3423 130.343 15.4685 132.291 13.0196C134.239 10.5706 136.674 9.35059 139.596 9.35059C141.792 9.35059 143.66 9.68899 145.192 10.3569L144.732 12.1201C144.581 12.6812 143.997 12.975 143.457 12.7791C142.447 12.4229 141.261 12.2448 139.897 12.2448C137.781 12.2448 136.054 13.2333 134.699 15.2013C133.353 17.1694 132.672 20.2863 132.672 24.543C132.672 28.5147 133.353 31.5603 134.717 33.6709C136.081 35.7814 137.94 36.8411 140.313 36.8411C141.668 36.8411 142.908 36.5473 144.032 35.9506C144.431 35.7369 144.918 35.9506 145.042 36.387" fill="white"/>
<path d="M161.733 38.3638L153.994 25.6293H152.488V39.2276H149.362V9.84912H152.488V23.5365L153.949 22.9488L161.042 10.7218C161.352 10.1875 161.919 9.85803 162.538 9.85803H165.133L157.5 22.5302L156.039 23.8749L157.748 25.558L166.222 39.2454H163.264C162.636 39.2454 162.06 38.9159 161.733 38.3816" fill="white"/>
<path d="M49.2677 9.84912C48.8604 9.84912 48.4885 10.0718 48.2937 10.428L37.7654 29.2003L36.3043 33.1453H36.1361L36.4283 29.3695V9.84912H36.0564H32.7624V10.4636C32.7624 11.0959 32.9661 11.6836 33.3026 12.1645V39.2365H35.3923L46.204 20.0991L47.665 16.154H47.789L47.541 20.0189V38.533C47.541 38.9248 47.851 39.2365 48.2406 39.2365H50.6668V9.84912H49.2766H49.2677Z" fill="white"/>
<path d="M101.139 9.84912C100.732 9.84912 100.36 10.0718 100.165 10.428L89.6366 29.2003L88.1756 33.1453H88.0073L88.2995 29.3695V9.84912H87.9276H84.6337V10.4636C84.6337 11.0959 84.8373 11.6836 85.1738 12.1645V39.2365H87.2635L98.0752 20.0991L99.5363 16.154H99.6602L99.4123 20.0189V38.533C99.4123 38.9248 99.7222 39.2365 100.112 39.2365H102.538V9.84912H101.148H101.139Z" fill="white"/>
<path d="M185.906 9.84912C185.498 9.84912 185.126 10.0718 184.932 10.428L174.403 29.2003L172.942 33.1453H172.774L173.066 29.3695V9.84912H172.694H169.4V10.4636C169.4 11.0959 169.604 11.6836 169.941 12.1645V39.2365H172.03L182.842 20.0991L184.303 16.154H184.427L184.179 20.0189V38.533C184.179 38.9248 184.489 39.2365 184.879 39.2365H187.305V9.84912H185.915H185.906Z" fill="white"/>
<path d="M208.61 9.84912C208.203 9.84912 207.831 10.0718 207.636 10.428L197.108 29.2003L195.647 33.1453H195.479L195.771 29.3695V9.84912H195.399H192.105V10.4636C192.105 11.0959 192.309 11.6836 192.645 12.1645V39.2365H194.735L205.546 20.0991L207.008 16.154H207.131L206.884 20.0189V38.533C206.884 38.9248 207.193 39.2365 207.583 39.2365H210.009V9.84912H208.619H208.61Z" fill="white"/>
<path d="M41.237 0.276063C35.995 0.391832 21.4288 0 16.1868 0C11.3698 0 7.32317 0.632274 4.63132 2.13726C1.59413 3.84708 -0.0528589 6.94611 0.000269826 9.45739C0.0268342 10.7487 0.443009 12.1023 1.85977 13.2867C1.59413 12.5831 1.39047 12.0132 1.37276 11.2028C1.3462 10.054 1.60299 8.98541 2.06343 8.05927C3.05517 5.80623 6.41113 3.59773 12.397 3.46415C14.4601 3.41962 17.7364 3.56211 19.7287 3.63335V39.2277H22.8633V3.69569L25.9182 3.74021C27.822 3.77583 32.6833 3.70459 34.5074 3.51758C36.0746 3.35729 39.2978 2.90312 41.1042 1.56733C41.4584 1.30907 41.7063 0.810379 41.7063 0.65899C41.7063 0.409642 41.7948 0.258253 41.237 0.267158V0.276063Z" fill="white"/>
<path d="M79.8262 9.84912H76.7005V36.3334H69.4838V9.84912H66.3492V36.3334H59.1326V9.84912H56.0068V38.5241C56.0068 38.9159 56.3168 39.2276 56.7064 39.2276H79.8351V9.84912H79.8262Z" fill="white"/>
<path d="M78.8603 51.9892L79.4182 51.9714C81.5079 51.9179 82.907 52.853 83.1195 54.5984C83.1549 54.9012 83.1726 55.1951 83.1549 55.4622C83.0841 56.7001 82.3934 57.4303 81.1006 57.6618C80.649 57.7776 80.0912 57.8132 79.4536 57.7954L78.0103 57.7598H76.8149C76.9034 57.0474 76.93 55.9342 76.93 54.4203V50.5465C76.93 48.9525 76.8946 47.8571 76.8326 47.2427H81.8621V48.0709C81.4282 47.9551 80.2328 47.8839 78.2759 47.866C78.2228 48.6319 78.2051 49.5224 78.2051 50.5376V57.1364C78.3733 57.1364 78.6301 57.1364 78.9489 57.1542C79.2854 57.172 79.5422 57.172 79.6927 57.172C80.2505 57.172 80.6667 57.0741 80.9855 56.8693C81.6053 56.5487 81.9241 55.952 81.9241 55.106C81.9241 54.1799 81.5699 53.4942 81.1537 53.1558C80.4631 52.6304 79.6041 52.5591 79.0994 52.5947L78.8603 51.9714V51.9892Z" fill="white"/>
<path d="M89.7606 56.0678C88.9282 57.9913 87.9276 58.3208 86.4312 57.644C86.2984 57.5817 86.2275 57.4392 86.2629 57.2967L86.3515 56.9138C86.8031 57.1631 87.2635 57.3056 87.6974 57.3056C87.9365 57.3056 88.1667 57.1364 88.4235 56.798C88.6714 56.4596 88.7954 56.1034 88.7777 55.7472L86.4843 50.0389C85.9265 48.6319 85.4926 47.7057 85.2092 47.2427H86.9802C86.9802 47.2427 87.0333 47.4653 87.1484 47.866L87.6709 49.4245C87.8922 50.0478 88.1047 50.6267 88.3084 51.1343L89.672 54.6073L91.7795 49.558C92.1868 48.5963 92.4701 47.8126 92.6384 47.2427H93.7364C93.2317 48.2044 92.7978 49.1395 92.4082 50.0033L89.7694 56.0678H89.7606Z" fill="white"/>
<path d="M96.8444 56.0142C97.0481 55.5601 97.2163 54.999 97.3668 54.3044C97.6856 52.933 97.8893 50.6444 97.8893 47.857C97.4022 47.857 96.9507 47.9105 96.9507 47.9105V47.2515H104.309C104.238 47.9283 104.212 49.2641 104.212 51.2855V54.438C104.212 55.943 104.247 57.0651 104.327 57.7775H102.928V50.5642C102.928 50.3238 102.91 49.4511 102.857 47.9105C102.264 47.8748 100.856 47.857 98.6508 47.857C98.6508 53.5297 97.7387 58.0625 95.6844 58.0179C95.2594 58.0001 94.9583 57.9022 94.7547 57.6973L94.9406 57.074L95.0292 57.1274C95.162 57.1986 95.3834 57.2788 95.6047 57.2788C96.0563 57.261 96.4459 56.9404 96.8532 56.041" fill="white"/>
<path d="M110.587 51.9892L111.145 51.9714C113.447 51.9179 114.899 53.0845 114.899 55.204C114.899 56.5042 114.094 57.457 112.827 57.6618C112.376 57.7776 111.836 57.8132 111.18 57.7954L109.728 57.7598H108.533C108.621 57.0474 108.648 55.9342 108.648 54.4203V50.5465C108.648 49.3621 108.612 48.2579 108.559 47.2427H110.038C109.949 47.9551 109.923 49.0504 109.923 50.5465V57.1453C110.091 57.1453 110.339 57.1453 110.667 57.1631C111.003 57.181 111.26 57.181 111.411 57.181C111.968 57.181 112.385 57.083 112.703 56.8782C113.359 56.5398 113.677 55.9431 113.677 55.1149C113.677 54.1888 113.323 53.5031 112.907 53.1647C112.278 52.7105 111.561 52.6036 111.047 52.5947C110.906 52.5947 110.782 52.5057 110.738 52.3721L110.587 51.9714V51.9892Z" fill="white"/>
<path d="M118.601 50.2256C118.601 49.1926 118.565 48.1952 118.485 47.2246L120.186 47.1889C120.788 47.1711 121.195 47.1533 121.399 47.1533C123.17 47.1533 124.312 47.9192 124.312 49.2015C124.312 50.3325 123.621 51.0271 122.222 51.2854C124.241 51.4189 125.552 52.541 125.552 54.3488C125.552 55.2838 125.18 56.0942 124.454 56.7888C123.728 57.4834 122.771 57.8218 121.594 57.8218C121.505 57.8218 121.16 57.804 120.531 57.7862C119.911 57.7684 119.238 57.7506 118.494 57.7506C118.565 56.3257 118.592 55.2304 118.592 54.4467V50.2167L118.601 50.2256ZM120.434 51.0538H120.681C121.133 51.0538 121.593 50.9648 122.134 50.751C122.691 50.5284 123.072 50.003 123.072 49.3084C123.072 48.3555 122.479 47.8568 121.284 47.7856C120.54 47.7856 120.07 47.7856 119.867 47.8034C119.867 52.728 119.885 55.8449 119.902 57.145L121.452 57.1806C122.178 57.1985 122.815 56.9224 123.373 56.3703C123.931 55.8092 124.215 55.1503 124.215 54.3577C124.215 53.3959 123.763 52.6479 123.223 52.2917C122.957 52.1046 122.63 51.9533 122.249 51.8553C121.647 51.6772 121.248 51.6327 120.832 51.6238C120.664 51.6238 120.522 51.4991 120.487 51.3388L120.425 51.0627L120.434 51.0538Z" fill="white"/>
<path d="M135.726 54.4469C136.213 55.8005 136.665 56.9047 137.054 57.7685H135.372C135.115 56.789 134.779 55.6847 134.362 54.4469L133.875 53.022C133.725 53.0042 133.318 53.0042 132.627 53.0042H131.715C131.245 53.0042 130.874 53.022 130.608 53.0398L129.988 54.6784C129.448 56.1834 129.094 57.2164 128.908 57.7596H127.916C128.474 56.5218 128.926 55.4532 129.262 54.5626L132.104 47.2781L133.114 47.1802L135.726 54.4469ZM132.627 52.3987C133.185 52.3987 133.539 52.3987 133.654 52.3809L132.308 48.4893L130.847 52.3987H132.636H132.627Z" fill="white"/>
<path d="M142.536 52.2117L142.385 51.615L142.837 51.6328C143.12 51.6506 143.58 51.5794 144.183 51.3657C144.802 51.143 145.289 50.484 145.289 49.5846C145.289 48.4358 144.333 47.8392 143.235 47.8214C143.085 47.8214 142.828 47.8214 142.491 47.8392H141.73V54.4558C141.73 55.56 141.765 56.6554 141.845 57.7596H140.348C140.419 56.3348 140.446 55.2394 140.446 54.4558V50.582C140.446 49.4688 140.41 48.3468 140.331 47.2425H141.411C141.526 47.2425 141.951 47.2247 142.659 47.2069C143.386 47.1713 143.819 47.1713 143.97 47.2069C145.431 47.3227 146.529 48.1509 146.529 49.5223C146.529 50.2881 146.193 50.9471 145.502 51.4725C144.829 51.9979 143.935 52.2295 142.845 52.2206L142.527 52.2027L142.536 52.2117Z" fill="white"/>
<path d="M149.406 53.6044L149.404 54.0229L178.633 54.1512L178.635 53.7327L149.406 53.6044Z" fill="white"/>
<path d="M41.5354 53.1205L41.5336 53.5391L70.763 53.6666L70.7648 53.2481L41.5354 53.1205Z" fill="white"/>
<path d="M199.109 8.01472C199.109 8.01472 202.332 9.1635 205.352 7.4715C208.362 5.7795 210.009 5.50344 210.009 5.50344C210.009 5.50344 206.644 4.28341 202.943 5.81512C200.499 6.83032 199.118 8.01472 199.118 8.01472" fill="white"/>
<path d="M121.771 39.2276V25.6738H111.004V39.2276H107.878V9.84912H111.004V22.7707H121.771V9.84912H124.906V39.2276H121.771Z" fill="white"/>
<path d="M145.024 36.387L145.52 38.0968C144.236 39.1921 142.253 39.7354 139.552 39.7354C136.408 39.7354 133.92 38.5064 132.105 36.0397C130.281 33.5818 129.369 29.7436 129.369 24.543C129.369 19.3423 130.343 15.4685 132.291 13.0196C134.239 10.5706 136.674 9.35059 139.596 9.35059C141.792 9.35059 143.66 9.68899 145.192 10.3569L144.732 12.1201C144.581 12.6812 143.997 12.975 143.457 12.7791C142.447 12.4229 141.261 12.2448 139.897 12.2448C137.781 12.2448 136.054 13.2333 134.699 15.2013C133.353 17.1694 132.672 20.2863 132.672 24.543C132.672 28.5147 133.353 31.5603 134.717 33.6709C136.081 35.7814 137.94 36.8411 140.313 36.8411C141.668 36.8411 142.908 36.5473 144.032 35.9506C144.431 35.7369 144.918 35.9506 145.042 36.387" fill="white"/>
<path d="M161.733 38.3638L153.994 25.6293H152.488V39.2276H149.362V9.84912H152.488V23.5365L153.949 22.9488L161.042 10.7218C161.352 10.1875 161.919 9.85803 162.538 9.85803H165.133L157.5 22.5302L156.039 23.8749L157.748 25.558L166.222 39.2454H163.264C162.636 39.2454 162.06 38.9159 161.733 38.3816" fill="white"/>
<path d="M49.2677 9.84912C48.8604 9.84912 48.4885 10.0718 48.2937 10.428L37.7654 29.2003L36.3043 33.1453H36.1361L36.4283 29.3695V9.84912H36.0564H32.7624V10.4636C32.7624 11.0959 32.9661 11.6836 33.3026 12.1645V39.2365H35.3923L46.204 20.0991L47.665 16.154H47.789L47.541 20.0189V38.533C47.541 38.9248 47.851 39.2365 48.2406 39.2365H50.6668V9.84912H49.2766H49.2677Z" fill="white"/>
<path d="M101.139 9.84912C100.732 9.84912 100.36 10.0718 100.165 10.428L89.6366 29.2003L88.1756 33.1453H88.0073L88.2995 29.3695V9.84912H87.9276H84.6337V10.4636C84.6337 11.0959 84.8373 11.6836 85.1738 12.1645V39.2365H87.2635L98.0752 20.0991L99.5363 16.154H99.6602L99.4123 20.0189V38.533C99.4123 38.9248 99.7222 39.2365 100.112 39.2365H102.538V9.84912H101.148H101.139Z" fill="white"/>
<path d="M185.906 9.84912C185.498 9.84912 185.126 10.0718 184.932 10.428L174.403 29.2003L172.942 33.1453H172.774L173.066 29.3695V9.84912H172.694H169.4V10.4636C169.4 11.0959 169.604 11.6836 169.941 12.1645V39.2365H172.03L182.842 20.0991L184.303 16.154H184.427L184.179 20.0189V38.533C184.179 38.9248 184.489 39.2365 184.879 39.2365H187.305V9.84912H185.915H185.906Z" fill="white"/>
<path d="M208.61 9.84912C208.203 9.84912 207.831 10.0718 207.636 10.428L197.108 29.2003L195.647 33.1453H195.479L195.771 29.3695V9.84912H195.399H192.105V10.4636C192.105 11.0959 192.309 11.6836 192.645 12.1645V39.2365H194.735L205.546 20.0991L207.008 16.154H207.131L206.884 20.0189V38.533C206.884 38.9248 207.193 39.2365 207.583 39.2365H210.009V9.84912H208.619H208.61Z" fill="white"/>
<path d="M2.74543 13.2866C2.74543 13.2866 3.808 16.1274 6.73008 17.2584C9.6433 18.3893 10.7856 19.3511 10.7856 19.3511C10.7856 19.3511 9.8204 16.1185 6.48215 14.6937C4.37471 13.7942 2.73657 13.2955 2.73657 13.2955" fill="white"/>
<path d="M41.237 0.276063C35.995 0.391832 21.4288 0 16.1868 0C11.3698 0 7.32317 0.632274 4.63132 2.13726C1.59413 3.84708 -0.0528589 6.94611 0.000269826 9.45739C0.0268342 10.7487 0.443009 12.1023 1.85977 13.2867C1.59413 12.5831 1.39047 12.0132 1.37276 11.2028C1.3462 10.054 1.60299 8.98541 2.06343 8.05927C3.05517 5.80623 6.41113 3.59773 12.397 3.46415C14.4601 3.41962 17.7364 3.56211 19.7287 3.63335V39.2277H22.8633V3.69569L25.9182 3.74021C27.822 3.77583 32.6833 3.70459 34.5074 3.51758C36.0746 3.35729 39.2978 2.90312 41.1042 1.56733C41.4584 1.30907 41.7063 0.810379 41.7063 0.65899C41.7063 0.409642 41.7948 0.258253 41.237 0.267158V0.276063Z" fill="white"/>
<path d="M79.8262 9.84912H76.7005V36.3334H69.4838V9.84912H66.3492V36.3334H59.1326V9.84912H56.0068V38.5241C56.0068 38.9159 56.3168 39.2276 56.7064 39.2276H79.8351V9.84912H79.8262Z" fill="white"/>
</g>
<defs>
<clipPath id="clip0_6917_285">
<rect width="210" height="58" fill="white"/>
</clipPath>
</defs>
</svg>
