<svg width="16" height="16" viewBox="0 0 16 16" fill="none" xmlns="http://www.w3.org/2000/svg">
  <path fill-rule="evenodd" clip-rule="evenodd" d="M13.6869 2.31248C13.8296 2.45521 13.8725 2.66976 13.7957 2.85641L9.12901 14.1897C9.05236 14.3759 8.87154 14.4979 8.67024 14.4994C8.46893 14.5008 8.28639 14.3814 8.20709 14.1963L6.28588 9.71349L1.80304 7.79227C1.61801 7.71297 1.49858 7.53043 1.50001 7.32913C1.50145 7.12782 1.62348 6.94701 1.80963 6.87036L13.143 2.20369C13.3296 2.12684 13.5442 2.16975 13.6869 2.31248ZM3.29081 7.34192L6.86363 8.87312C6.98163 8.9237 7.07566 9.01773 7.12624 9.13574L8.65745 12.7086L12.4141 3.58527L3.29081 7.34192Z" fill="currentColor"/>
</svg>
