<svg width="32" height="32" viewBox="0 0 32 32" fill="none" xmlns="http://www.w3.org/2000/svg">
  <path d="M12.2172 7.38166L11.0292 10.411C10.8959 10.7483 10.8292 10.9177 10.8706 11.051C10.8942 11.1283 10.9407 11.1966 11.0039 11.247C11.1132 11.3337 11.2946 11.3337 11.6572 11.3337H15.4012C15.7026 11.3337 15.8546 11.3337 15.9826 11.2777C16.0581 11.2444 16.1268 11.1974 16.1852 11.139C16.2839 11.0403 16.3399 10.899 16.4492 10.619L17.6386 7.58966C17.7706 7.25233 17.8372 7.08299 17.7959 6.94966C17.7723 6.87235 17.7258 6.80402 17.6626 6.75366C17.5532 6.66699 17.3719 6.66699 17.0092 6.66699H13.2652C12.9639 6.66699 12.8119 6.66699 12.6839 6.72299C12.6083 6.75627 12.5396 6.80329 12.4812 6.86166C12.3826 6.96033 12.3266 7.10166 12.2172 7.38166Z" fill="currentColor"/>
  <path d="M9.58014 14.4117L9.72014 14.0503C9.8308 13.7677 9.88547 13.6277 9.98414 13.5277C10.0429 13.4691 10.1121 13.4221 10.1881 13.389C10.3161 13.333 10.4668 13.333 10.7695 13.333H12.4841C12.8455 13.333 13.0268 13.333 13.1361 13.4197C13.1994 13.47 13.2459 13.5384 13.2695 13.6157C13.3108 13.749 13.2455 13.917 13.1135 14.2557L12.9721 14.6157C12.8628 14.8983 12.8081 15.0383 12.7081 15.1383C12.6498 15.1967 12.581 15.2438 12.5055 15.277C12.3775 15.333 12.2255 15.333 11.9228 15.333H10.2095C9.8468 15.333 9.6668 15.333 9.55614 15.2463C9.49291 15.196 9.44642 15.1276 9.4228 15.0503C9.3828 14.917 9.44814 14.749 9.58014 14.4103V14.4117Z" fill="currentColor"/>
  <path fill-rule="evenodd" clip-rule="evenodd" d="M9.44 4.09899L4.232 17.4057C4.13867 17.6483 4.09067 17.7683 4.05867 17.8937C4.0401 17.9683 4.02585 18.044 4.016 18.1203C4 18.2497 4 18.3803 4 18.639V27.0817C4 27.9417 4 28.3723 4.19067 28.6897C4.30303 28.8755 4.45911 29.0312 4.64533 29.143C4.96267 29.335 5.392 29.335 6.25333 29.335H24.4133C25.2733 29.335 25.704 29.335 26.0213 29.1443C26.2072 29.032 26.3628 28.8759 26.4747 28.6897C26.6667 28.3723 26.6667 27.943 26.6667 27.0817V4.92033C26.6667 4.06033 26.6667 3.62966 26.476 3.31233C26.3636 3.12644 26.2076 2.97081 26.0213 2.85899C25.704 2.66699 25.2747 2.66699 24.4133 2.66699H11.5373C10.9333 2.66699 10.6307 2.66699 10.3747 2.77899C10.2231 2.8454 10.0852 2.93944 9.968 3.05633C9.77067 3.25366 9.66 3.53633 9.44 4.09899ZM6 18.379L11.3333 4.66699C14.628 4.66699 17.924 4.66033 21.2187 4.66166L16.232 17.4057C16.1387 17.647 16.0907 17.7683 16.0587 17.8937C16.0401 17.9683 16.0259 18.044 16.016 18.1203C16 18.2483 16 18.3777 16 18.6377C16 21.5403 15.992 24.443 16 27.3457C12.6667 27.3457 9.33333 27.343 6 27.3323C5.992 24.435 6.00133 21.2763 6.00133 18.3777L6 18.379ZM24.6667 27.3337C24.6867 19.7777 24.6867 12.223 24.6667 4.66699C24.232 4.66699 23.8 4.66166 23.3653 4.66699C21.5987 9.15233 19.7587 13.8883 18.0013 18.3777V27.3337C20.2053 27.339 22.4467 27.339 24.6667 27.3337Z" fill="currentColor"/>
</svg>
