<svg width="16" height="16" viewBox="0 0 16 16" fill="none" xmlns="http://www.w3.org/2000/svg">
  <path fill-rule="evenodd" clip-rule="evenodd" d="M11.9336 10.7316H11.0036C10.6506 10.7316 10.5426 10.4436 9.91061 9.81161C9.35861 9.27761 9.11461 9.20561 8.97961 9.20561C8.78961 9.20561 8.73561 9.25061 8.73561 9.52261V10.3626C8.73561 10.5876 8.66361 10.7226 8.06661 10.7226C7.08261 10.7226 5.98961 10.1266 5.22161 9.01661C4.06561 7.38961 3.74961 6.16161 3.74961 5.91661C3.74961 5.78261 3.79461 5.65561 4.06561 5.65561H5.00561C5.23961 5.65561 5.33061 5.75561 5.42061 6.01661C5.88061 7.34461 6.64861 8.50961 6.96461 8.50961C7.08261 8.50961 7.13661 8.45661 7.13661 8.15761V6.78461C7.10061 6.15261 6.76661 6.09761 6.76661 5.87261C6.76661 5.76361 6.85661 5.65561 7.00061 5.65561H8.46461C8.66461 5.65561 8.73561 5.76361 8.73561 5.99861V7.85061C8.73561 8.04961 8.81761 8.12161 8.88061 8.12161C8.99761 8.12161 9.09661 8.04961 9.31361 7.83261C9.98261 7.08261 10.4616 5.92661 10.4616 5.92661C10.493 5.84576 10.5492 5.77693 10.6221 5.73004C10.6951 5.68314 10.781 5.66058 10.8676 5.66561H11.7976C12.0776 5.66561 12.1416 5.80861 12.0776 6.00861C11.9606 6.55061 10.8216 8.15761 10.8316 8.15761C10.7316 8.32061 10.6956 8.39261 10.8316 8.57361C10.9306 8.70961 11.2556 8.98861 11.4716 9.24161C11.8696 9.69361 12.1766 10.0726 12.2586 10.3346C12.3306 10.5966 12.2036 10.7316 11.9336 10.7316ZM9.96361 1.59961H6.03561C2.44961 1.59961 1.59961 2.44961 1.59961 6.03561V9.96561C1.59961 13.5506 2.44861 14.3996 6.03461 14.3996H9.96461C13.5496 14.3996 14.3996 13.5506 14.3996 9.96461V6.03461C14.3996 2.44861 13.5496 1.59961 9.96461 1.59961H9.96361Z" fill="currentColor"/>
</svg>
