<svg width="20" height="20" viewBox="0 0 20 20" fill="none" xmlns="http://www.w3.org/2000/svg">
<path d="M13.743 7.30235C13.7882 7.23379 13.8194 7.15701 13.8349 7.07639C13.8503 6.99577 13.8498 6.91289 13.8332 6.83249C13.8167 6.75209 13.7844 6.67573 13.7383 6.60779C13.6923 6.53985 13.6333 6.48165 13.5647 6.43652C13.4257 6.34694 13.2571 6.31552 13.0951 6.34903C12.9332 6.38254 12.7909 6.47829 12.6989 6.61568C12.0547 7.53902 9.2197 12.1932 9.2197 12.1932L7.4847 10.0632C7.43322 9.99864 7.36946 9.94494 7.29711 9.90518C7.22476 9.86542 7.14525 9.84038 7.06317 9.83153C6.98109 9.82267 6.89806 9.83016 6.81889 9.85356C6.73972 9.87697 6.66598 9.91583 6.60191 9.9679C6.53784 10.02 6.48473 10.0842 6.44563 10.1569C6.40653 10.2296 6.38223 10.3094 6.37412 10.3915C6.36601 10.4737 6.37426 10.5566 6.39838 10.6356C6.42251 10.7145 6.46205 10.7879 6.5147 10.8515L8.09803 12.8073C8.62136 13.454 8.88386 13.7773 9.2172 13.7807C9.2484 13.7808 9.27958 13.7789 9.31053 13.7748C9.6422 13.734 9.86553 13.3832 10.313 12.6815L13.743 7.30235Z" fill="white"/>
<path fill-rule="evenodd" clip-rule="evenodd" d="M10.0003 18.3346C14.6028 18.3346 18.3337 14.6038 18.3337 10.0013C18.3337 5.3988 14.6028 1.66797 10.0003 1.66797C5.39783 1.66797 1.66699 5.3988 1.66699 10.0013C1.66699 14.6038 5.39783 18.3346 10.0003 18.3346ZM17.0837 10.0013C17.0837 11.8799 16.3374 13.6816 15.009 15.01C13.6806 16.3384 11.8789 17.0846 10.0003 17.0846C8.12171 17.0846 6.32004 16.3384 4.99165 15.01C3.66327 13.6816 2.91699 11.8799 2.91699 10.0013C2.91699 8.12268 3.66327 6.32101 4.99165 4.99263C6.32004 3.66425 8.12171 2.91797 10.0003 2.91797C11.8789 2.91797 13.6806 3.66425 15.009 4.99263C16.3374 6.32101 17.0837 8.12268 17.0837 10.0013Z" fill="white"/>
</svg>
