<svg width="32" height="32" viewBox="0 0 32 32" fill="none" xmlns="http://www.w3.org/2000/svg">
  <path d="M16.6745 17.9182C16.5825 18.5209 16.2745 18.8942 15.6532 18.8942C14.9599 18.8942 14.5785 18.4009 14.5785 17.7369V17.5636C14.5785 16.4329 15.1425 15.6863 16.2825 15.0116C17.4132 14.3276 17.7959 13.8263 17.7959 12.9516C17.7959 11.9583 17.0212 11.2649 15.8999 11.2649C14.8879 11.2649 14.2132 11.7663 13.9212 12.6876C13.7212 13.2516 13.3839 13.4796 12.8825 13.4796C12.2532 13.4796 11.8799 13.0969 11.8799 12.4863C11.8799 12.0943 11.9625 11.7569 12.1359 11.4116C12.6999 10.1716 14.1225 9.40625 15.9999 9.40625C18.4692 9.40625 20.1652 10.8089 20.1652 12.8689C20.1652 14.2636 19.4719 15.2209 18.2319 15.9596C17.0385 16.6529 16.7465 17.0889 16.6745 17.9196V17.9182Z" fill="currentColor"/>
  <path d="M16.9933 21.5549C16.9933 22.2749 16.4106 22.8482 15.672 22.8482C15.4995 22.8514 15.3281 22.8204 15.1676 22.757C15.0072 22.6935 14.8609 22.599 14.7372 22.4788C14.6135 22.3585 14.5148 22.215 14.4469 22.0564C14.3789 21.8978 14.343 21.7274 14.3413 21.5549C14.3413 20.8349 14.9333 20.2695 15.672 20.2695C16.4106 20.2695 16.9933 20.8349 16.9933 21.5549Z" fill="currentColor"/>
  <path fill-rule="evenodd" clip-rule="evenodd" d="M16.0003 29.3346C23.3643 29.3346 29.3337 23.3653 29.3337 16.0013C29.3337 8.6373 23.3643 2.66797 16.0003 2.66797C8.63633 2.66797 2.66699 8.6373 2.66699 16.0013C2.66699 23.3653 8.63633 29.3346 16.0003 29.3346ZM27.3337 16.0013C27.3337 19.0071 26.1396 21.8898 24.0142 24.0152C21.8888 26.1406 19.0061 27.3346 16.0003 27.3346C12.9945 27.3346 10.1119 26.1406 7.98645 24.0152C5.86104 21.8898 4.66699 19.0071 4.66699 16.0013C4.66699 12.9955 5.86104 10.1128 7.98645 7.98743C10.1119 5.86201 12.9945 4.66797 16.0003 4.66797C19.0061 4.66797 21.8888 5.86201 24.0142 7.98743C26.1396 10.1128 27.3337 12.9955 27.3337 16.0013Z" fill="currentColor"/>
</svg>
