<svg width="16" height="16" viewBox="0 0 16 16" fill="none" xmlns="http://www.w3.org/2000/svg">
  <path d="M8.82588 6.12971C8.82607 6.29336 8.77771 6.45339 8.68692 6.58954C8.59612 6.7257 8.46697 6.83185 8.31582 6.89457C8.16466 6.95729 7.9983 6.97375 7.83778 6.94187C7.67727 6.90999 7.52982 6.83121 7.4141 6.71549C7.29838 6.59977 7.2196 6.45232 7.18772 6.29181C7.15584 6.13129 7.1723 5.96493 7.23502 5.81377C7.29774 5.66262 7.40389 5.53347 7.54004 5.44267C7.67619 5.35187 7.83622 5.30351 7.99987 5.30371C8.45487 5.30371 8.82588 5.67471 8.82588 6.12971Z" fill="currentColor"/>
  <path fill-rule="evenodd" clip-rule="evenodd" d="M1.33301 8.00048C1.33301 7.12503 1.50544 6.25814 1.84046 5.44933C2.17549 4.64051 2.66654 3.9056 3.28558 3.28656C3.90462 2.66752 4.63953 2.17646 5.44835 1.84144C6.25717 1.50642 7.12405 1.33398 7.99951 1.33398C8.87497 1.33398 9.74185 1.50642 10.5507 1.84144C11.3595 2.17646 12.0944 2.66752 12.7134 3.28656C13.3325 3.9056 13.8235 4.64051 14.1586 5.44933C14.4936 6.25814 14.666 7.12503 14.666 8.00048C14.666 9.76855 13.9636 11.4642 12.7134 12.7144C11.4632 13.9646 9.76757 14.667 7.99951 14.667C6.23144 14.667 4.53579 13.9646 3.28558 12.7144C2.03537 11.4642 1.33301 9.76855 1.33301 8.00048ZM9.92301 11.6955C9.9774 11.6412 10.0206 11.5768 10.05 11.5058C10.0794 11.4349 10.0946 11.3588 10.0946 11.282C10.0946 11.2052 10.0794 11.1291 10.05 11.0581C10.0206 10.9872 9.9774 10.9227 9.92301 10.8685L8.80701 9.75248C9.21769 9.65912 9.60957 9.49682 9.96601 9.27248C10.0936 9.1882 10.1831 9.05731 10.2154 8.90785C10.2476 8.75838 10.2201 8.60222 10.1387 8.47281C10.0572 8.34339 9.92835 8.25101 9.77964 8.21543C9.63093 8.17986 9.4742 8.20393 9.34301 8.28248C8.94017 8.53439 8.47462 8.66796 7.99951 8.66796C7.52439 8.66796 7.05885 8.53439 6.65601 8.28248C6.591 8.24158 6.51858 8.21388 6.44287 8.20096C6.36716 8.18804 6.28964 8.19016 6.21475 8.2072C6.13986 8.22424 6.06906 8.25587 6.00639 8.30027C5.94372 8.34467 5.89042 8.40098 5.84951 8.46598C5.8086 8.53099 5.7809 8.60341 5.76798 8.67912C5.75506 8.75483 5.75719 8.83235 5.77423 8.90724C5.79127 8.98213 5.82289 9.05293 5.86729 9.1156C5.91169 9.17827 5.968 9.23158 6.03301 9.27248C6.39401 9.49949 6.78601 9.66048 7.19201 9.75248L6.07601 10.8685C6.02171 10.9229 5.97864 10.9874 5.94928 11.0584C5.91992 11.1294 5.90483 11.2055 5.90488 11.2823C5.90492 11.3592 5.9201 11.4353 5.94955 11.5062C5.979 11.5772 6.02214 11.6417 6.07651 11.696C6.13088 11.7503 6.19541 11.7933 6.26641 11.8227C6.33742 11.8521 6.41352 11.8672 6.49036 11.8671C6.5672 11.8671 6.64328 11.8519 6.71425 11.8224C6.78523 11.793 6.84971 11.7499 6.90401 11.6955L7.99901 10.5985L9.09701 11.6955C9.15117 11.7498 9.21554 11.793 9.28641 11.8224C9.35728 11.8518 9.43327 11.867 9.51001 11.867C9.58675 11.867 9.66273 11.8518 9.73361 11.8224C9.80448 11.793 9.86884 11.7498 9.92301 11.6955ZM8.00001 4.13548C9.10001 4.13548 9.99501 5.02948 9.99501 6.13048C9.99501 7.23048 9.10001 8.12548 8.00001 8.12548C6.90001 8.12548 6.00401 7.23048 6.00401 6.13048C6.00401 5.03048 6.89901 4.13448 8.00001 4.13448V4.13548Z" fill="currentColor"/>
</svg>
