<svg width="16" height="16" viewBox="0 0 16 16" fill="none" xmlns="http://www.w3.org/2000/svg">
  <path fill-rule="evenodd" clip-rule="evenodd" d="M8.55532 12.7781C8.64907 12.8717 8.77616 12.9243 8.90866 12.9243C9.04116 12.9243 9.16824 12.8717 9.26199 12.7781L13.6867 8.35342C13.7803 8.25967 13.8329 8.13259 13.8329 8.00008C13.8329 7.86758 13.7803 7.7405 13.6867 7.64675L9.26199 3.22209C9.16721 3.13377 9.04184 3.08568 8.91231 3.08797C8.78277 3.09025 8.65918 3.14273 8.56758 3.23434C8.47597 3.32595 8.42349 3.44954 8.42121 3.57907C8.41892 3.7086 8.467 3.83397 8.55532 3.92875L12.126 7.50008H2.66666C2.53405 7.50008 2.40687 7.55276 2.3131 7.64653C2.21933 7.7403 2.16666 7.86748 2.16666 8.00008C2.16666 8.13269 2.21933 8.25987 2.3131 8.35364C2.40687 8.44741 2.53405 8.50008 2.66666 8.50008H12.1267L8.55532 12.0714C8.46169 12.1652 8.4091 12.2923 8.4091 12.4248C8.4091 12.5573 8.46169 12.6843 8.55532 12.7781Z" fill="currentColor"/>
</svg>
