<svg width="16" height="16" viewBox="0 0 16 16" fill="none" xmlns="http://www.w3.org/2000/svg">
  <path fill-rule="evenodd" clip-rule="evenodd" d="M6.63601 10.013V6.04801L10.121 8.03001L6.63601 10.013ZM14.388 4.80001C14.3125 4.51624 14.1638 4.25729 13.9567 4.04913C13.7496 3.84098 13.4914 3.69092 13.208 3.61401C12.169 3.33301 8.00001 3.33301 8.00001 3.33301C8.00001 3.33301 3.83001 3.33301 2.79001 3.61301C2.50673 3.69025 2.24872 3.84056 2.04181 4.04888C1.83489 4.25719 1.68633 4.51622 1.61101 4.80001C1.33301 5.84701 1.33301 8.03001 1.33301 8.03001C1.33301 8.03001 1.33301 10.214 1.61101 11.26C1.68633 11.5438 1.83489 11.8028 2.04181 12.0111C2.24872 12.2195 2.50673 12.3698 2.79001 12.447C3.83001 12.727 8.00001 12.727 8.00001 12.727C8.00001 12.727 12.169 12.727 13.209 12.447C13.4923 12.3699 13.7504 12.2196 13.9573 12.0112C14.1642 11.8029 14.3128 11.5438 14.388 11.26C14.666 10.214 14.666 8.03001 14.666 8.03001C14.666 8.03001 14.666 5.84701 14.388 4.80001Z" fill="currentColor"/>
</svg>
