<svg width="32" height="32" viewBox="0 0 32 32" fill="none" xmlns="http://www.w3.org/2000/svg">
<path fill-rule="evenodd" clip-rule="evenodd" d="M6.09207 17.5403C5.67741 18.763 4.85074 19.615 4.11341 20.375C3.24941 21.2643 2.50941 22.0283 2.69607 23.1097C2.96941 24.695 5.04807 24.675 6.21874 24.6657L11.0107 24.663C11.0936 25.9299 11.6553 27.1178 12.5819 27.9857C13.5085 28.8536 14.7305 29.3366 16.0001 29.3366C17.2696 29.3366 18.4917 28.8536 19.4183 27.9857C20.3448 27.1178 20.9065 25.9299 20.9894 24.663L25.7814 24.6657C26.9521 24.6763 29.0307 24.695 29.3041 23.1097C29.4907 22.027 28.7507 21.2643 27.8867 20.375C27.1494 19.615 26.3227 18.7617 25.9081 17.5403C25.3841 15.9937 25.1254 13.3337 24.6667 10.6163C24.0001 6.66699 21.3334 2.66699 16.0001 2.66699C10.6667 2.66699 8.00007 6.66699 7.33341 10.6163C6.89074 13.2363 6.61607 15.9937 6.09207 17.5417V17.5403ZM4.80007 22.5937C4.93341 22.4137 5.16941 22.1577 5.56141 21.7563C6.27874 21.023 7.41874 19.8577 7.98541 18.1843C8.76941 15.8737 8.90141 13.3443 9.30541 10.951C9.58807 9.27233 10.2841 7.68166 11.3681 6.53766C12.4107 5.43766 13.8881 4.66699 16.0001 4.66699C18.1121 4.66699 19.5894 5.43766 20.6321 6.53633C21.7161 7.68033 22.4107 9.27099 22.6947 10.9497C23.1001 13.3537 23.2281 15.8657 24.0147 18.183C24.5814 19.8563 25.7214 21.0203 26.4387 21.755C26.8307 22.155 27.0654 22.4123 27.1987 22.5923C26.6521 22.6977 26.0854 22.663 25.5321 22.663H6.46807C5.91341 22.663 5.34674 22.6977 4.79874 22.5923L4.80007 22.5937ZM18.9827 24.6643H13.0174C13.0968 25.3999 13.4453 26.0803 13.9958 26.5746C14.5464 27.0689 15.2602 27.3423 16.0001 27.3423C16.74 27.3423 17.4538 27.0689 18.0043 26.5746C18.5549 26.0803 18.9033 25.3999 18.9827 24.6643Z" fill="currentColor"/>
</svg>
