<svg width="32" height="32" viewBox="0 0 32 32" fill="none" xmlns="http://www.w3.org/2000/svg">
  <path d="M14.0573 20.3831C13.848 20.6977 13.668 20.8098 13.372 20.8098C13.0067 20.8098 12.6533 20.5737 12.6533 20.1844C12.6533 19.9684 12.716 19.8324 12.8213 19.6778L17.9293 12.0391C18.14 11.7231 18.3133 11.5938 18.672 11.5938C19.0547 11.5938 19.352 11.8604 19.352 12.2364C19.3431 12.4109 19.2828 12.5788 19.1787 12.7191L14.0573 20.3831Z" fill="currentColor"/>
  <path fill-rule="evenodd" clip-rule="evenodd" d="M14.7338 14.0663C14.7338 15.6263 13.8858 16.5663 12.5685 16.5663C11.2445 16.5663 10.3965 15.6329 10.3965 14.0663C10.3965 12.4956 11.2498 11.5996 12.5685 11.5996C13.8792 11.5996 14.7325 12.4903 14.7325 14.0663H14.7338ZM11.9552 14.0729C11.9552 15.0129 12.2032 15.4036 12.5685 15.4036C12.9272 15.4036 13.1738 15.0129 13.1738 14.0663C13.1738 13.1196 12.9272 12.7623 12.5685 12.7623C12.2032 12.7623 11.9552 13.1209 11.9552 14.0729Z" fill="currentColor"/>
  <path fill-rule="evenodd" clip-rule="evenodd" d="M21.635 18.3108C21.635 19.8628 20.7937 20.8094 19.4697 20.8094C18.147 20.8094 17.3057 19.8761 17.3057 18.3108C17.3057 16.7388 18.159 15.8428 19.4697 15.8428C20.7817 15.8428 21.635 16.7348 21.635 18.3108ZM18.8643 18.3108C18.8643 19.2574 19.1043 19.6401 19.4697 19.6401C19.835 19.6401 20.0763 19.2561 20.0763 18.3108C20.0763 17.3574 19.835 16.9988 19.4697 16.9988C19.1057 16.9988 18.8643 17.3588 18.8643 18.3108Z" fill="currentColor"/>
  <path fill-rule="evenodd" clip-rule="evenodd" d="M25.431 6.57366C24.8028 5.94385 24.0351 5.471 23.19 5.19347C22.3449 4.91594 21.4462 4.84154 20.567 4.97633C20.0407 4.25971 19.353 3.67717 18.5596 3.27595C17.7662 2.87472 16.8894 2.6661 16.0003 2.667C15.1115 2.66631 14.2349 2.87503 13.4418 3.27625C12.6486 3.67746 11.9611 4.25989 11.435 4.97633C10.5558 4.84154 9.65712 4.91594 8.81202 5.19347C7.96691 5.471 7.19914 5.94385 6.57099 6.57366C5.94249 7.20176 5.47073 7.96904 5.19392 8.81338C4.91711 9.65771 4.84302 10.5554 4.97766 11.4337C4.26115 11.9595 3.67858 12.6467 3.27714 13.4396C2.8757 14.2326 2.66667 15.1089 2.66699 15.9977C2.66699 17.8737 3.57899 19.5337 4.97766 20.563C4.84302 21.4413 4.91711 22.3389 5.19392 23.1833C5.47073 24.0276 5.94249 24.7949 6.57099 25.423C7.19941 26.0528 7.96746 26.5255 8.81281 26.8028C9.65816 27.0801 10.557 27.1542 11.4363 27.019C11.9623 27.7353 12.6496 28.3176 13.4425 28.7188C14.2354 29.12 15.1117 29.3288 16.0003 29.3283C16.8892 29.329 17.7657 29.1203 18.5589 28.7191C19.352 28.3179 20.0395 27.7354 20.5657 27.019C21.4448 27.1539 22.3434 27.0798 23.1885 26.8025C24.0336 26.5252 24.8014 26.0526 25.4297 25.423C26.0584 24.795 26.5304 24.0278 26.8075 23.1835C27.0845 22.3391 27.1588 21.4414 27.0243 20.563C27.741 20.037 28.3237 19.3496 28.7251 18.5564C29.1266 17.7632 29.3355 16.8866 29.335 15.9977C29.3355 15.1087 29.1266 14.2321 28.7251 13.4389C28.3237 12.6457 27.741 11.9583 27.0243 11.4323C27.1588 10.5539 27.0845 9.65621 26.8075 8.81187C26.5304 7.96753 26.0584 7.2003 25.4297 6.57233L25.431 6.57366ZM20.1977 7.12033C20.8506 6.88858 21.5558 6.84654 22.2316 6.9991C22.9074 7.15165 23.5261 7.49255 24.0162 7.98231C24.5062 8.47206 24.8475 9.09063 25.0004 9.76635C25.1533 10.4421 25.1117 11.1473 24.8803 11.8003C24.787 12.0657 24.7417 12.1977 24.7483 12.271C24.7503 12.3373 24.7769 12.4006 24.823 12.4483C24.8697 12.507 24.9963 12.567 25.2483 12.6883C25.8737 12.9864 26.4018 13.4554 26.7716 14.0412C27.1413 14.627 27.3375 15.3056 27.3375 15.9983C27.3375 16.6911 27.1413 17.3696 26.7716 17.9554C26.4018 18.5412 25.8737 19.0103 25.2483 19.3083C24.995 19.4283 24.8697 19.4883 24.8217 19.547C24.7758 19.5948 24.7497 19.6581 24.7483 19.7243C24.7417 19.799 24.7883 19.9297 24.8817 20.1937C25.1132 20.8468 25.1549 21.5523 25.0019 22.2282C24.8489 22.9041 24.5076 23.5228 24.0173 24.0126C23.5271 24.5024 22.9081 24.8433 22.2321 24.9957C21.556 25.1481 20.8506 25.1058 20.1977 24.8737C19.9337 24.7803 19.8017 24.7337 19.7283 24.7403C19.662 24.7422 19.5987 24.7688 19.551 24.815C19.4923 24.8617 19.4323 24.9883 19.311 25.2417C19.013 25.867 18.5439 26.3951 17.9581 26.7649C17.3723 27.1346 16.6937 27.3309 16.001 27.3309C15.3083 27.3309 14.6297 27.1346 14.0439 26.7649C13.4581 26.3951 12.989 25.867 12.691 25.2417C12.571 24.9883 12.5097 24.8617 12.4523 24.815C12.4044 24.7693 12.3412 24.7431 12.275 24.7417C12.2003 24.7337 12.0683 24.7817 11.8043 24.875C11.1514 25.1067 10.4462 25.1488 9.77041 24.9962C9.0946 24.8437 8.47584 24.5028 7.98581 24.013C7.49578 23.5233 7.15453 22.9047 7.00159 22.229C6.84865 21.5533 6.89028 20.848 7.12166 20.195C7.21499 19.9297 7.26166 19.7977 7.25499 19.7243C7.25304 19.658 7.22642 19.5948 7.18033 19.547C7.13366 19.4883 7.00699 19.4283 6.75366 19.307C6.12831 19.009 5.60018 18.5399 5.23043 17.9541C4.86068 17.3683 4.66444 16.6897 4.66444 15.997C4.66444 15.3043 4.86068 14.6257 5.23043 14.0399C5.60018 13.4541 6.12831 12.985 6.75366 12.687C7.00699 12.567 7.13366 12.507 7.18033 12.4483C7.22593 12.4004 7.25207 12.3372 7.25366 12.271C7.26166 12.1977 7.21499 12.0657 7.12166 11.8017C6.89028 11.1486 6.84865 10.4434 7.00159 9.76768C7.15453 9.09196 7.49578 8.47339 7.98581 7.98364C8.47584 7.49389 9.0946 7.15299 9.77041 7.00043C10.4462 6.84788 11.1514 6.88991 11.8043 7.12166C12.0683 7.215 12.2003 7.26166 12.275 7.255C12.3414 7.25317 12.4046 7.22653 12.4523 7.18033C12.5097 7.13366 12.571 7.007 12.6923 6.75366C12.9905 6.12868 13.4596 5.6009 14.0452 5.23142C14.6309 4.86193 15.3092 4.66584 16.0017 4.66584C16.6941 4.66584 17.3724 4.86193 17.9581 5.23142C18.5438 5.6009 19.0128 6.12868 19.311 6.75366C19.4323 7.007 19.4923 7.13366 19.551 7.18033C19.615 7.23366 19.6443 7.247 19.7283 7.25366C19.8017 7.26166 19.935 7.21366 20.199 7.12033H20.1977Z" fill="currentColor"/>
</svg>
