<svg width="32" height="32" viewBox="0 0 32 32" fill="none" xmlns="http://www.w3.org/2000/svg">
  <path fill-rule="evenodd" clip-rule="evenodd" d="M12.6667 25.6237C8.81333 25.3704 6.07333 24.0277 6 22.3997V19.8837C6.49867 20.2997 7.104 20.6411 7.75733 20.9171C9.084 21.4797 10.7773 21.8424 12.6667 21.9584V25.6224V25.6237ZM12.8267 27.6371C10.8 27.5304 8.956 27.1491 7.49733 26.5317C6.632 26.1664 5.80933 25.6784 5.17467 25.0304C4.54133 24.3864 4.02 23.4931 4 22.3997V6.39974C4 4.32507 5.744 2.94241 7.49733 2.19974C9.23333 1.46641 11.5133 1.06641 14 1.06641C16.4867 1.06641 18.7667 1.46641 20.5027 2.19974C22.2493 2.94107 24 4.33174 24 6.39974V13.0117C26.0627 13.4717 28.6667 14.6997 28.6667 17.1664V26.6637C28.6667 28.4011 27.2293 29.6304 25.7573 30.2717C24.372 30.8744 22.584 31.1917 20.6667 31.1917C18.7493 31.1917 16.9613 30.8744 15.576 30.2717C14.5973 29.8451 13.2787 29.0144 12.8267 27.6357V27.6371ZM21.828 12.7037C21.9413 12.4771 22 12.2411 22 11.9997V8.95041C21.4677 9.37901 20.8757 9.72758 20.2427 9.98507C18.6107 10.6757 16.424 11.0651 14 11.0651C11.576 11.0651 9.38933 10.6757 7.75733 9.98507C7.12432 9.72756 6.53229 9.37899 6 8.95041V11.9997C6 13.7397 9.04267 15.1691 13.256 15.3197C13.82 14.4984 14.6907 13.9384 15.5947 13.5571C16.9747 12.9731 18.7547 12.6664 20.6667 12.6664C21.06 12.6664 21.448 12.6797 21.828 12.7051V12.7037ZM12.7133 16.6291C10.8053 16.5157 9.09467 16.1504 7.75733 15.5837C7.1244 15.3266 6.53239 14.9785 6 14.5504V17.3331C6 18.9904 8.76133 20.3664 12.6667 20.6224V17.1664C12.6667 16.9797 12.6827 16.8011 12.7133 16.6291ZM14 3.06641C9.40533 3.06641 6 4.55974 6 6.39974C6 8.23974 9.40533 9.73307 14 9.73307C18.5947 9.73307 22 8.23974 22 6.39974C22 4.55974 18.5947 3.06641 14 3.06641ZM14.6667 17.1664C14.6667 18.5464 17.22 19.6664 20.6667 19.6664C24.1067 19.6664 26.656 18.5437 26.6667 17.1664C26.6667 15.7851 24.1133 14.6664 20.6667 14.6664C17.22 14.6664 14.6667 15.7864 14.6667 17.1664ZM26.6667 19.5024C26.308 19.7651 25.9027 19.9824 25.4787 20.1611C24.2027 20.7011 22.516 20.9997 20.6667 20.9997C18.8173 20.9997 17.1307 20.7011 15.8547 20.1611C15.4346 19.988 15.036 19.767 14.6667 19.5024V21.9997C14.7813 23.3357 17.3 24.4037 20.6667 24.4037C24.0333 24.4037 26.5467 23.3357 26.6627 21.9997L26.6667 19.5024ZM14.6667 26.6464V24.2397C15.0253 24.5024 15.4307 24.7197 15.8547 24.8997C17.1307 25.4397 18.8173 25.7371 20.6667 25.7371C22.516 25.7371 24.2027 25.4397 25.4787 24.8997C25.9027 24.7197 26.308 24.5024 26.6667 24.2397V26.6464C26.6333 28.0544 24.0907 29.1904 20.6667 29.1904C17.2427 29.1904 14.7 28.0544 14.6667 26.6464Z" fill="currentColor"/>
</svg>
