<svg width="20" height="20" viewBox="0 0 20 20" fill="none" xmlns="http://www.w3.org/2000/svg">
  <path d="M13.7433 7.30333C13.7884 7.23477 13.8196 7.15799 13.8351 7.07737C13.8506 6.99675 13.85 6.91387 13.8335 6.83347C13.8169 6.75306 13.7847 6.67671 13.7386 6.60877C13.6925 6.54083 13.6335 6.48263 13.5649 6.43749C13.4259 6.34791 13.2573 6.31649 13.0954 6.35C12.9334 6.38351 12.7911 6.47927 12.6991 6.61666C12.0549 7.53999 9.21994 12.1942 9.21994 12.1942L7.48494 10.0642C7.43346 9.99962 7.3697 9.94592 7.29735 9.90616C7.225 9.8664 7.14549 9.84136 7.06341 9.8325C6.98133 9.82364 6.89831 9.83113 6.81914 9.85454C6.73997 9.87794 6.66622 9.9168 6.60215 9.96887C6.53809 10.0209 6.48497 10.0852 6.44587 10.1579C6.40677 10.2306 6.38247 10.3103 6.37436 10.3925C6.36625 10.4747 6.3745 10.5576 6.39863 10.6366C6.42276 10.7155 6.46229 10.7889 6.51494 10.8525L8.09827 12.8083C8.62161 13.455 8.88411 13.7783 9.21744 13.7817C9.24865 13.7818 9.27983 13.7798 9.31077 13.7758C9.64244 13.735 9.86577 13.3842 10.3133 12.6825L13.7433 7.30333Z" fill="currentColor"/>
  <path fill-rule="evenodd" clip-rule="evenodd" d="M10.0001 18.3337C14.6026 18.3337 18.3334 14.6028 18.3334 10.0003C18.3334 5.39783 14.6026 1.66699 10.0001 1.66699C5.39758 1.66699 1.66675 5.39783 1.66675 10.0003C1.66675 14.6028 5.39758 18.3337 10.0001 18.3337ZM17.0834 10.0003C17.0834 11.8789 16.3371 13.6806 15.0088 15.009C13.6804 16.3374 11.8787 17.0837 10.0001 17.0837C8.12146 17.0837 6.31979 16.3374 4.99141 15.009C3.66303 13.6806 2.91675 11.8789 2.91675 10.0003C2.91675 8.12171 3.66303 6.32004 4.99141 4.99165C6.31979 3.66327 8.12146 2.91699 10.0001 2.91699C11.8787 2.91699 13.6804 3.66327 15.0088 4.99165C16.3371 6.32004 17.0834 8.12171 17.0834 10.0003Z" fill="currentColor"/>
</svg>
