<svg width="32" height="32" viewBox="0 0 32 32" fill="none" xmlns="http://www.w3.org/2000/svg">
  <path d="M14.1602 25.1663C14.1602 24.9256 14.2076 24.6872 14.2997 24.4648C14.3918 24.2423 14.5269 24.0402 14.6971 23.87C14.8674 23.6997 15.0695 23.5647 15.2919 23.4726C15.5143 23.3804 15.7527 23.333 15.9935 23.333C16.2342 23.333 16.4726 23.3804 16.6951 23.4726C16.9175 23.5647 17.1196 23.6997 17.2899 23.87C17.4601 24.0402 17.5951 24.2423 17.6873 24.4648C17.7794 24.6872 17.8268 24.9256 17.8268 25.1663C17.8268 25.6526 17.6337 26.1189 17.2899 26.4627C16.946 26.8065 16.4797 26.9997 15.9935 26.9997C15.5073 26.9997 15.0409 26.8065 14.6971 26.4627C14.3533 26.1189 14.1602 25.6526 14.1602 25.1663Z" fill="currentColor"/>
  <path fill-rule="evenodd" clip-rule="evenodd" d="M23.7193 1.81034C22.926 1.33301 21.8487 1.33301 19.698 1.33301H12.298C10.1473 1.33301 9.07135 1.33301 8.27935 1.81034C7.81308 2.09093 7.42261 2.48141 7.14202 2.94767C6.66602 3.74101 6.66602 4.81567 6.66602 6.96634V25.033C6.66602 27.1837 6.66602 28.2597 7.14335 29.053C7.42335 29.5183 7.81402 29.909 8.28068 30.189C9.07402 30.6663 10.1487 30.6663 12.2993 30.6663H19.6993C21.85 30.6663 22.926 30.6663 23.718 30.189C24.1841 29.9088 24.5746 29.5188 24.8553 29.053C25.3327 28.2597 25.3327 27.1837 25.3327 25.033V6.96634C25.3327 4.81567 25.3327 3.73967 24.8553 2.94767C24.5751 2.48157 24.1851 2.0911 23.7193 1.81034ZM23.3327 25.033V6.96634C23.3327 5.85301 23.33 5.15567 23.282 4.63434C23.2353 4.14101 23.162 4.01167 23.142 3.97834C23.0296 3.79245 22.8736 3.63683 22.6873 3.52501C22.654 3.50367 22.5247 3.43034 22.0313 3.38367C21.51 3.33567 20.778 3.33301 19.666 3.33301C19.6633 4.02767 19.646 4.40234 19.4753 4.68767C19.363 4.87356 19.2069 5.02919 19.0207 5.14101C18.7033 5.33301 18.274 5.33301 17.4127 5.33301H14.586C13.726 5.33301 13.2953 5.33301 12.978 5.14234C12.7921 5.02997 12.6365 4.87389 12.5247 4.68767C12.3513 4.40234 12.3353 4.02767 12.3327 3.33301C11.2193 3.33301 10.4887 3.33567 9.96735 3.38367C9.47402 3.43034 9.34468 3.50367 9.31135 3.52367C9.12546 3.63604 8.96984 3.79212 8.85802 3.97834C8.83668 4.01167 8.76335 4.14101 8.71668 4.63434C8.66868 5.15567 8.66602 5.85301 8.66602 6.96634V25.033C8.66602 26.1463 8.66868 26.8437 8.71668 27.365C8.76335 27.8583 8.83668 27.9877 8.85668 28.021C8.96905 28.2069 9.12513 28.3625 9.31135 28.4743C9.34468 28.4957 9.47402 28.569 9.96735 28.6157C10.4887 28.665 11.186 28.6663 12.2993 28.6663H19.6993C20.8127 28.6663 21.51 28.6637 22.0313 28.6157C22.5247 28.569 22.654 28.4957 22.6873 28.4757C22.8732 28.3633 23.0289 28.2072 23.1407 28.021C23.162 27.9877 23.2353 27.8583 23.282 27.365C23.3313 26.8437 23.3327 26.1463 23.3327 25.033Z" fill="currentColor"/>
</svg>
