<svg width="24" height="24" viewBox="0 0 24 24" fill="none" xmlns="http://www.w3.org/2000/svg">
<path fill-rule="evenodd" clip-rule="evenodd" d="M2 5.75C2 5.55109 2.07902 5.36032 2.21967 5.21967C2.36032 5.07902 2.55109 5 2.75 5H21.25C21.4489 5 21.6397 5.07902 21.7803 5.21967C21.921 5.36032 22 5.55109 22 5.75C22 5.94891 21.921 6.13968 21.7803 6.28033C21.6397 6.42098 21.4489 6.5 21.25 6.5H2.75C2.55109 6.5 2.36032 6.42098 2.21967 6.28033C2.07902 6.13968 2 5.94891 2 5.75ZM2 11.75C2 11.5511 2.07902 11.3603 2.21967 11.2197C2.36032 11.079 2.55109 11 2.75 11H21.25C21.4489 11 21.6397 11.079 21.7803 11.2197C21.921 11.3603 22 11.5511 22 11.75C22 11.9489 21.921 12.1397 21.7803 12.2803C21.6397 12.421 21.4489 12.5 21.25 12.5H2.75C2.55109 12.5 2.36032 12.421 2.21967 12.2803C2.07902 12.1397 2 11.9489 2 11.75ZM2 17.75C2 17.5511 2.07902 17.3603 2.21967 17.2197C2.36032 17.079 2.55109 17 2.75 17H21.25C21.4489 17 21.6397 17.079 21.7803 17.2197C21.921 17.3603 22 17.5511 22 17.75C22 17.9489 21.921 18.1397 21.7803 18.2803C21.6397 18.421 21.4489 18.5 21.25 18.5H2.75C2.55109 18.5 2.36032 18.421 2.21967 18.2803C2.07902 18.1397 2 17.9489 2 17.75Z" fill="currentColor"/>
</svg>
