<svg width="32" height="32" viewBox="0 0 32 32" fill="none" xmlns="http://www.w3.org/2000/svg">
  <path d="M30 11.3333C31.104 11.3333 32 12.2293 32 13.3333V28.6667C32 29.7707 31.104 30.6667 30 30.6667H7.33333C6.22933 30.6667 5.33333 29.7707 5.33333 28.6667V18.792C6.38267 19.1387 7.50267 19.3333 8.66667 19.3333C13.6267 19.3333 17.7947 15.928 18.9813 11.3333H30ZM27.3333 24.9067H10C9.448 24.9067 9 25.3547 9 25.9067C9 26.4587 9.448 26.9067 10 26.9067H27.3333C27.8853 26.9067 28.3333 26.4587 28.3333 25.9067C28.3333 25.3547 27.8853 24.9067 27.3333 24.9067ZM8.66667 0C13.4533 0 17.3333 3.88 17.3333 8.66667C17.3333 13.4533 13.4533 17.3333 8.66667 17.3333C3.88 17.3333 0 13.4533 0 8.66667C0 3.88 3.88 0 8.66667 0ZM10.48 4.488C10.088 4.10267 9.456 4.10267 9.06667 4.49867C8.67733 4.89067 8.68267 5.52533 9.07333 5.91333L10.8507 7.66667H4.044C3.492 7.66667 3.044 8.11467 3.044 8.66667C3.044 9.21867 3.492 9.66667 4.044 9.66667H10.8507L9.07333 11.42C8.68267 11.808 8.67733 12.4427 9.06533 12.8347C9.26133 13.0333 9.51867 13.1333 9.77733 13.1333C10.0307 13.1333 10.2853 13.036 10.4787 12.8453L13.9907 9.37867C14.1827 9.19067 14.2893 8.93333 14.2893 8.66667C14.2893 8.4 14.1827 8.14267 13.9907 7.95467L10.48 4.488Z" fill="currentColor"/>
</svg>
