<svg width="24" height="24" viewBox="0 0 24 24" fill="none" xmlns="http://www.w3.org/2000/svg">
<path fill="currentColor" fill-rule="evenodd" clip-rule="evenodd" d="M14.5547 15.9692C13.0972 17.0687 11.2768 17.5744 9.46103 17.3843C7.64523 17.1941 5.96915 16.3223 4.77101 14.9447C3.57286 13.5672 2.94186 11.7864 3.00534 9.96175C3.06882 8.13713 3.82205 6.40451 5.11303 5.11352C6.40402 3.82254 8.13664 3.06931 9.96126 3.00583C11.7859 2.94235 13.5667 3.57335 14.9442 4.77149C16.3218 5.96964 17.1936 7.64572 17.3838 9.46152C17.5739 11.2773 17.0682 13.0976 15.9687 14.5552L20.7047 19.2912C20.8923 19.4787 20.9978 19.733 20.9979 19.9983C20.998 20.2636 20.8927 20.518 20.7052 20.7057C20.5177 20.8933 20.2633 20.9988 19.998 20.9989C19.7328 20.999 19.4783 20.8937 19.2907 20.7062L14.5547 15.9692ZM15.9227 10.2112C15.9227 10.9612 15.7749 11.7039 15.4879 12.3969C15.2009 13.0898 14.7802 13.7194 14.2498 14.2498C13.7195 14.7802 13.0898 15.2009 12.3969 15.4879C11.7039 15.7749 10.9612 15.9227 10.2112 15.9227C9.46113 15.9227 8.71843 15.7749 8.02548 15.4879C7.33253 15.2009 6.7029 14.7802 6.17253 14.2498C5.64217 13.7194 5.22147 13.0898 4.93444 12.3969C4.64741 11.7039 4.49967 10.9612 4.49967 10.2112C4.49967 8.69638 5.10142 7.24364 6.17253 6.17252C7.24365 5.10141 8.69639 4.49966 10.2112 4.49966C11.726 4.49966 13.1787 5.10141 14.2498 6.17252C15.3209 7.24364 15.9227 8.69638 15.9227 10.2112Z"/>
</svg>
