<svg width="188" height="40" viewBox="0 0 188 40" fill="none" xmlns="http://www.w3.org/2000/svg">
<g clip-path="url(#clip0_5030_1450)">
<path fill-rule="evenodd" clip-rule="evenodd" d="M0.689762 20C0.689762 9.36005 9.28526 0.685197 19.8439 0.685197C30.4159 0.685197 39.0114 9.34712 39.0114 20C39.0114 30.6529 30.4159 39.3148 19.8439 39.3148C9.28526 39.3148 0.689762 30.6529 0.689762 20ZM0 20C0 31.0278 8.90059 40 19.8439 40C30.7873 40 39.6879 31.0278 39.6879 20C39.7011 8.9722 30.7873 0 19.8439 0C8.90059 0 0 8.9722 0 20Z" fill="#476BF0"/>
<path fill-rule="evenodd" clip-rule="evenodd" d="M32.4722 17.9701C32.3263 18.0994 32.1671 18.2286 31.9814 18.3579C30.8804 19.2112 29.156 19.8835 26.7551 20.5299C21.7676 21.8744 18.1596 22.0813 14.0343 23.0897C13.2384 23.2836 12.4027 23.5551 11.6201 23.8783C12.4027 24.2661 13.2251 24.6281 14.0741 24.9513C15.7454 24.473 16.5413 24.2532 18.9687 23.8395C19.884 23.6844 22.7226 23.1802 24.7919 22.7406C28.4928 21.952 33.918 20.2325 32.4722 17.9701ZM30.0845 13.2771C29.3019 12.9151 28.3071 12.5661 27.2592 12.2817C26.7949 12.6566 26.2378 12.9927 25.4684 13.2901C26.7684 13.5228 27.7632 13.8848 28.8509 14.208C29.0631 14.3114 29.9519 13.4711 30.0845 13.2771ZM11.9385 18.2674C16.7801 16.8324 21.8604 16.3928 27.0071 15.0095C24.9909 14.4665 23.8899 14.2338 21.7676 14.4795C18.6769 14.8414 15.2812 15.5266 12.3762 16.3928C11.2354 16.729 5.23982 18.4484 6.96423 20.8402C6.96423 20.8789 7.99887 19.431 11.9385 18.2674ZM8.59578 26.5027C8.58252 26.9552 8.86107 27.3431 9.44472 27.8343C9.52431 27.5887 9.63042 27.4206 9.80286 27.1879C9.39166 26.9681 8.98046 26.7354 8.59578 26.5027ZM10.864 26.27C11.2222 26.0502 11.6599 25.8305 12.164 25.6365C11.4742 25.3521 10.7712 25.0418 10.0549 24.7057C9.72328 24.9126 9.44472 25.1194 9.20596 25.3521C9.76307 25.6624 10.3069 25.9727 10.864 26.27ZM29.4744 15.9016C28.4928 16.3541 27.1 16.8324 25.0838 17.3366C23.4389 17.7503 19.433 18.3321 15.122 19.2758C13.7557 19.5732 10.0682 20.4523 8.2509 22.0037C8.75496 22.4174 9.07331 22.5208 9.63042 22.8311C10.3865 22.3528 11.3946 21.8873 12.9201 21.4736C15.5597 20.7626 17.5362 20.4523 19.9105 20.0774C22.2716 19.7025 26.702 18.7587 29.1693 17.8796C29.9651 17.5822 30.708 17.2202 31.2651 16.7807C31.1059 16.5997 29.5274 15.8369 29.4744 15.9016ZM30.9069 15.0224C31.3845 15.2681 31.8222 15.4361 32.2467 15.7335C32.5518 15.1517 32.366 14.7768 31.7293 14.2338C31.4906 14.5312 31.1988 14.7897 30.9069 15.0224ZM8.35702 23.8395C7.93255 23.5939 7.62746 23.4258 7.26931 23.1672C7.07034 23.5939 7.44176 24.0722 7.82643 24.292C7.99887 24.1239 8.18458 23.9817 8.35702 23.8395ZM28.9703 10.3553C28.8774 10.6915 28.5326 11.0664 28.2805 11.3379C29.0101 11.5318 29.7396 11.8033 30.4427 12.0619C30.3631 11.4155 29.607 10.782 28.9703 10.3553ZM6.18161 14.5182C11.2487 11.1698 16.8597 9.21766 26.3704 10.8725C26.901 10.5622 27.1928 10.2778 27.3255 9.64429C24.9511 8.7781 22.3778 8.48075 19.0483 8.53246C16.0505 8.61003 10.6651 9.73479 7.7999 11.4542L8.67537 10.3553C10.6916 9.16595 15.9311 7.5887 19.8575 7.51113C22.6298 7.45942 24.0624 7.61456 27.352 8.5066C27.0735 7.93776 26.3837 7.65334 25.3888 7.20085C22.2053 5.75289 16.2495 5.62361 11.3681 7.78262C11.9915 7.38185 12.5884 6.994 13.3843 6.63201C14.9893 5.8951 17.629 5.17112 20.9186 5.22283C23.5451 5.26161 26.6755 6.19245 28.5856 8.10583C28.904 8.48075 29.0897 8.88152 29.1693 9.20473C30.6814 9.98042 31.5569 10.7044 32.061 11.5577C32.2599 11.9843 32.3528 12.4756 32.2599 13.0056C32.8834 13.3935 33.1885 13.7038 33.4935 14.1175C33.719 14.4665 33.8915 14.8673 33.9313 15.2293C33.9843 15.7076 34.0374 16.2506 33.5466 16.8712C34.0772 17.1297 34.4751 17.8537 34.5415 18.1769C34.7802 19.3275 34.0507 20.4394 33.0691 21.3185C31.9548 22.301 29.5009 23.4646 27.4979 23.9817C23.5185 24.9901 20.0167 25.4168 17.2178 25.9339C18.4647 26.2312 20.1626 26.6449 22.9481 26.6449C28.8774 26.6449 34.117 23.8137 34.117 23.8137C34.117 23.8137 33.9976 24.1886 33.8782 24.5118C30.1111 26.813 24.1154 27.7826 21.5686 27.6663C18.9687 27.5499 16.7801 27.1621 14.6445 26.4898C13.9812 26.6708 13.3445 26.8776 12.7211 27.1491C15.9842 28.6359 18.4382 28.972 21.2237 29.1789C24.0624 29.3857 28.7581 28.7005 32.7375 27.2526C32.5518 27.4336 32.4589 27.718 32.2732 27.899C30.2437 28.972 25.946 30.058 23.7838 30.1356C21.6349 30.2261 19.0218 30.1485 16.7403 29.7089C14.7771 29.334 13.1854 28.7005 11.5007 27.9636C11.1957 28.1834 11.0365 28.4808 10.9834 28.804C17.5096 32.2429 23.6379 32.3204 30.6018 30.1356L29.9651 30.7561C22.2982 33.8848 16.3025 32.6695 11.6732 30.42C11.5273 30.3553 11.3416 30.2778 11.2089 30.1873C11.6334 30.9371 15.1751 33.5486 19.1412 33.8718C21.8737 34.0916 25.2031 33.6262 27.1796 32.8246L26.0255 33.4323C25.0705 33.9106 22.5369 34.9837 18.982 34.7509C14.2598 34.4277 11.5936 32.3204 10.3998 31.2215C9.84266 30.7044 9.59063 30.1097 9.41819 29.3728C8.34375 28.804 7.68052 28.2222 7.1234 27.356C6.79179 26.8389 6.85811 26.27 6.9377 25.7787C6.96423 25.6236 7.00402 25.4814 7.05708 25.3392C6.53976 24.9643 6.02244 24.5635 5.79694 24.1627C5.33267 23.3095 5.61123 22.5855 5.94285 22.0166C5.66429 21.6934 5.399 21.3702 5.27962 21.047C5.16023 20.685 5.1337 20.3101 5.1735 19.8964C5.26635 19.1853 5.63776 18.526 6.12855 17.9572C7.1632 16.7548 8.78149 15.824 11.5671 14.8932C14.2863 13.9882 15.3873 13.846 17.4433 13.3676C19.8442 12.8117 22.7094 12.6307 25.1103 11.7904C18.4116 10.6139 11.4609 11.687 5.79694 15.6171L6.18161 14.5182Z" fill="#476BF0"/>
<path d="M64.6919 16.5225L65.448 21.8619H63.9226L64.6919 16.5225ZM58.6963 28.7397H62.7951L63.2859 25.7145H66.098L66.5888 28.7397H70.6743L67.2255 11.2349H62.1584L58.6963 28.7397Z" fill="#476BF0"/>
<path d="M74.5471 18.009C75.197 18.009 76.4041 17.5824 76.4041 16.2895C76.4041 14.764 75.0113 14.6735 74.6266 14.6735C74.1624 14.6735 73.2869 14.7381 72.4114 15.1648L72.3584 11.3768C73.7246 11.0148 74.7195 10.9243 75.8735 10.9243C79.1632 10.9243 80.6488 13.2514 80.6488 15.5138C80.6488 17.7246 79.3754 19.0691 78.155 19.5862V19.7543C79.3223 20.1292 80.9141 21.2798 80.9141 23.956C80.9141 27.2527 78.6193 29.0756 75.7011 29.0756C74.1359 29.0756 73.1145 28.8429 71.8809 28.1706L71.9472 24.5378C73.0747 25.029 73.844 25.0678 74.6266 25.0678C75.9133 25.0678 76.4439 24.1111 76.4439 23.4001C76.4439 22.4175 75.8205 21.7582 74.4542 21.7582H72.8227V18.009H74.5471Z" fill="#476BF0"/>
<path d="M82.8115 11.2349H93.8079V28.7397H89.7755V15.4365H86.844V28.7397H82.8115V11.2349Z" fill="#476BF0"/>
<path d="M100.148 15.087H101.103C102.018 15.087 102.588 15.6429 102.588 17.0909C102.588 18.9914 101.62 19.1206 101.103 19.1206H100.148V15.087ZM96.1152 28.7393H100.148V22.9603H101.501C105.493 22.9603 106.727 19.3533 106.727 17.0521C106.727 14.7897 105.321 11.2215 101.501 11.2344H96.1152V28.7393Z" fill="#476BF0"/>
<path d="M114.183 24.7188C112.763 24.7188 112.034 23.0511 112.034 19.9612C112.034 16.8714 112.763 15.2036 114.183 15.2036C115.602 15.2036 116.345 16.8714 116.345 19.9612C116.345 23.0511 115.602 24.7188 114.183 24.7188ZM114.183 28.9463C118.958 28.9463 120.576 24.4602 120.576 19.9612C120.576 15.4751 118.958 10.9761 114.183 10.9761C109.407 10.9761 107.789 15.4751 107.789 19.9612C107.802 24.4602 109.407 28.9463 114.183 28.9463Z" fill="#476BF0"/>
<path d="M142.077 25.2362V21.2543H142.661C143.138 21.2543 144.412 21.2801 144.412 23.0771C144.412 24.9259 143.138 25.2362 142.661 25.2362H142.077ZM138.138 28.7397H142.953C143.987 28.7397 148.351 28.3002 148.365 22.9996C148.365 18.5264 144.982 17.7507 142.807 17.7507H142.091V15.4365H147.423V11.2349H138.138V28.7397Z" fill="#476BF0"/>
<path d="M162.864 11.2349H166.817V17.5309H169.629V11.2349H173.582V28.7397H169.629V21.7326H166.817V28.7397H162.864V11.2349Z" fill="#476BF0"/>
<path d="M176.221 11.2349H180.174L180.16 17.5309H181.023L183.277 11.2349H187.575L184.498 19.5348L188 28.7397H183.357L181.102 21.6938H180.16L180.174 28.7397H176.221V11.2349Z" fill="#476BF0"/>
<path d="M50.8965 11.2349H59.1604V15.5917H54.9953V28.7397H50.8965V11.2349Z" fill="#476BF0"/>
<path d="M122.512 11.2349H125.934L128.958 15.359L131.996 11.2349H135.418V28.7397H131.386V18.061L128.958 21.125L126.544 18.061V28.7397H122.512V11.2349Z" fill="#476BF0"/>
<path d="M155.144 16.5479L155.9 21.8873H154.375L155.144 16.5479ZM149.148 28.7651H153.234L153.725 25.7399H156.537L157.028 28.7651H161.113L157.651 11.2603H152.584L149.148 28.7651Z" fill="#476BF0"/>
</g>
<defs>
<clipPath id="clip0_5030_1450">
<rect width="188" height="40" fill="white"/>
</clipPath>
</defs>
</svg>
